<?xml version="1.0" standalone="no"?>
<!DOCTYPE svg PUBLIC "-//W3C//DTD SVG 20010904//EN"
 "http://www.w3.org/TR/2001/REC-SVG-20010904/DTD/svg10.dtd">
<svg version="1.0" xmlns="http://www.w3.org/2000/svg"
 width="672.000000pt" height="672.000000pt" viewBox="0 0 672.000000 672.000000"
 preserveAspectRatio="xMidYMid meet">
<metadata>
Created by potrace 1.11, written by Peter Selinger 2001-2013
</metadata>
<g transform="translate(0.000000,672.000000) scale(0.100000,-0.100000)"
fill="#000000" stroke="none">
<path d="M1 4873 c1 -955 4 -1246 14 -1308 7 -44 16 -98 19 -120 12 -74 15
-90 31 -155 9 -36 17 -72 19 -81 11 -44 80 -237 92 -256 8 -13 12 -23 9 -23
-7 0 96 -202 139 -274 73 -121 187 -275 261 -353 105 -109 139 -144 195 -193
35 -30 67 -57 72 -59 5 -1 20 -14 34 -26 73 -68 432 -278 495 -290 11 -2 26
-8 33 -13 6 -5 40 -19 76 -31 87 -30 95 -33 95 -31 0 1 14 -4 30 -10 17 -7 37
-13 45 -15 8 -2 35 -8 60 -15 57 -15 71 -18 145 -32 160 -28 219 -33 420 -31
110 1 225 4 255 8 l56 6 42 -57 c75 -100 220 -256 312 -334 14 -12 34 -29 45
-38 11 -10 38 -31 60 -47 22 -16 42 -33 45 -36 3 -3 48 -34 100 -68 120 -79
336 -187 460 -230 52 -18 102 -36 110 -39 8 -3 20 -6 27 -8 6 -1 27 -7 45 -13
18 -6 44 -13 58 -16 75 -16 170 -34 210 -40 25 -3 59 -9 75 -13 17 -3 587 -7
1268 -9 l1237 -3 1 42 c0 24 1 468 3 988 1 520 7 977 12 1015 15 118 10 421
-10 555 -22 146 -42 233 -92 385 -30 93 -57 161 -104 262 -22 46 -40 87 -40
91 -1 4 -7 14 -14 22 -7 8 -28 42 -46 75 -19 33 -36 62 -39 65 -3 3 -33 45
-65 93 -98 145 -309 366 -450 472 -14 11 -32 25 -39 31 -51 44 -235 156 -347
211 -74 36 -143 69 -152 74 -10 5 -25 9 -33 9 -8 0 -15 4 -15 8 0 5 -6 9 -12
9 -7 0 -49 13 -93 28 -44 14 -91 29 -104 31 -14 3 -28 7 -32 10 -16 9 -225 47
-339 61 -82 10 -381 10 -480 -1 l-75 -7 -40 53 c-22 29 -44 58 -50 64 -5 6
-32 37 -60 69 -62 72 -135 144 -199 199 -26 22 -62 53 -80 68 -17 15 -34 28
-37 28 -3 0 -17 9 -30 21 -51 45 -253 171 -329 205 -19 9 -67 31 -106 50 -73
34 -315 118 -369 127 -16 3 -41 8 -55 12 -46 11 -125 26 -165 31 -22 3 -51 8
-65 11 -14 3 -591 8 -1283 10 l-1258 4 2 -1228z"/>
</g>
</svg>
