<svg fill="none" height="31" viewBox="0 0 40 31" width="40" xmlns="http://www.w3.org/2000/svg"><path d="m34.5678 24.7984c1.0555 1.1327 1.1101 2.7975 1.1101 2.7975s-1.6568-.1717-2.7123-1.3043c-1.0556-1.1327-1.1101-2.7975-1.1101-2.7975s1.6568.1717 2.7123 1.3043z" fill="#6c63ff"/><path d="m37.8892 26.5659c-1.1326 1.0555-2.7974 1.11-2.7974 1.11s.1716-1.6568 1.3043-2.7123 2.7974-1.1101 2.7974-1.1101-.1716 1.6568-1.3043 2.7124z" fill="#6c63ff"/><path d="m37.6085 29.9276h-4.166c-.0799 0-.1582-.0225-.226-.0648-.0677-.0424-.1222-.103-.1572-.1749l-.907-1.8645c-.0316-.0649-.0462-.1368-.0423-.209.0038-.0721.0259-.1421.0642-.2033.0384-.0613.0916-.1118.1548-.1468s.1342-.0534.2065-.0534h5.98c.0723 0 .1433.0184.2065.0534s.1165.0855.1548.1468c.0383.0612.0604.1312.0642.2033.0039.0722-.0107.1441-.0423.209l-.907 1.8645c-.035.0719-.0894.1325-.1572.1749-.0678.0423-.1461.0648-.226.0648z" fill="#3f3d56"/><g fill="#2f2e41"><path d="m20.7286 12.0196c.9481 0 1.7168-.7686 1.7168-1.7168 0-.94821-.7687-1.71686-1.7168-1.71686-.9482 0-1.7169.76865-1.7169 1.71686 0 .9482.7687 1.7168 1.7169 1.7168z"/><path d="m21.2076 8.63338c.2971.00004.5891.07718.8475.22387.2584.1467.4743.35793.6266.61305s.2358.5454.2423.8424c.0065.2971-.0642.5907-.2051.8523.1488-.1862.2573-.4014.3183-.6319.0611-.2304.0735-.4711.0365-.70656-.0371-.23551-.1228-.46071-.2517-.66125-.1289-.20055-.2982-.37205-.4971-.50356-.1988-.13151-.4229-.22015-.6579-.26028-.235-.04014-.4758-.03087-.707.0272s-.4478.16367-.6359.31008c-.1882.1464-.3438.33039-.4569.54025.1605-.20148.3643-.36417.5964-.47595s.4864-.16977.744-.16965z"/><path d="m17.5198 10.2993c2.7852 0 5.0432-2.25793 5.0432-5.04321s-2.258-5.043199-5.0432-5.043199c-2.7853 0-5.0432 2.257919-5.0432 5.043199s2.2579 5.04321 5.0432 5.04321z"/><path d="m13.5628 2.12669c.869-.97729 2.0837-1.578736 3.3877-1.677397 1.304-.09866 2.5954.313181 3.6015 1.148607-.0412-.0392-.082-.07872-.1249-.11682-.9996-.888664-2.3113-1.343826-3.6466-1.265354-1.3352.078472-2.5846.68415-3.4732 1.683794-.8887.99964-1.3439 2.31136-1.2654 3.6466.0785 1.33523.6841 2.58461 1.6838 3.47327.0428.0381.0869.07399.1306.11036-.9475-.90135-1.5078-2.13558-1.5625-3.44219-.0548-1.30661.4002-2.58339 1.269-3.56087z"/></g><path d="m17.4767 10.2561c1.7939 0 3.2481-1.45426 3.2481-3.24817s-1.4542-3.24816-3.2481-3.24816-3.2482 1.45425-3.2482 3.24816 1.4543 3.24817 3.2482 3.24817z" fill="#a0616a"/><path d="m15.1693 8.0332s.4274 3.932-.2564 4.3594c-.6839.4274 3.9319 1.0257 3.9319 1.0257s-.6838-4.27388 1.0258-5.38509z" fill="#a0616a"/><path d="m19.2732 11.7099s1.2728-.5943-.5603-.3826-3.4146-.6004-3.4146-.6004-.5554-.5556-.6409.0428c-.0855.5983.2564 1.7095-1.6241 1.8805-1.8805.1709-3.59006-.3419-4.27388.9402-.68382 1.2822-.34191 6.8383-.34191 6.8383s1.28217 4.6158 2.30789 5.2996c1.0257.6838 10.0009-.2564 10.0009-.2564l2.5644-4.6158v-5.3851s-.3419-1.8806-2.7353-1.3677c0 0-1.5386-.3419-1.4532-1.1112.0855-.7693.171-1.2822.171-1.2822z" fill="#d0cde1"/><path d="m11.0638 28.9951c.0528-.2302.0882-.3604.0882-.3604l-.0274-.1873-.2816-1.9123-.1184-.8066c1.0255-.4274 1.2821-2.3935 1.2821-2.3935l.0387-.0231.175-.1047v-.0005l.6283-.3769.0128-.0075.2538.1688.5155.3439c.676.5044 1.4497.8622 2.2718 1.0505.822.1884 1.6743.2032 2.5024.0434.3855-.066.7624-.1749 1.1237-.3245l1.2434-.4147.0387-.0127.0382.0057.7292.1103.0133.0024.0603.009-.1688 1.1675-.2449 1.6967c.6468.3425 1.2218.9859 1.7246 1.7788.1113.1755.2192.3581.3236.5477.1359.2453.2656.5005.3892.7618.0151.0311.0297.0628.0443.0944.0477.1023.0948.2056.1406.3094h-13.0231c.017-.1043.034-.2038.0505-.2995.0009-.0033.0015-.0066.0019-.0099.0061-.0321.0118-.0633.017-.0944.0575-.3113.1132-.5712.1571-.7618z" fill="#2f2e41"/><path d="m10.5547 12.5639s.9402 1.7095.5983 3.8465c-.3419 2.1369 1.0258 7.4366 1.0258 7.4366l1.0257-.2565s-.6838-4.4448-.5129-5.4706c.171-1.0257.171-5.0432-.6838-5.556-.8548-.5129-1.4531 0-1.4531 0z" fill="#2f2e41"/><path d="m20.4948 14.3401.3593 9.4638.6838.4274s.983-10.3856.4701-10.3856h-1.0435c-.0638 0-.127.013-.1856.0381-.0586.0252-.1115.062-.1554.1083-.044.0462-.078.1009-.1002.1608-.0221.0598-.0318.1235-.0285.1872z" fill="#2f2e41"/><path d="m12.6481 23.6341c.236 0 .4274-.1914.4274-.4274 0-.2361-.1914-.4274-.4274-.4274s-.4274.1913-.4274.4274c0 .236.1914.4274.4274.4274z" fill="#6c63ff"/><path d="m21.195 24.0618c.236 0 .4274-.1913.4274-.4274 0-.236-.1914-.4274-.4274-.4274-.2361 0-.4274.1914-.4274.4274 0 .2361.1913.4274.4274.4274z" fill="#6c63ff"/><path d="m14.6992 2.94727v3.24818h.7522l.9573-1.02572-.1282 1.02572h3.3252l-.2052-1.02572.4103 1.02572h.5299v-3.24818z" fill="#2f2e41"/><path d="m14.1861 6.79377c.1416 0 .2565-.21048.2565-.47013 0-.25964-.1149-.47012-.2565-.47012s-.2564.21048-.2564.47012c0 .25965.1148.47013.2564.47013z" fill="#a0616a"/><path d="m20.7682 6.79377c.1416 0 .2564-.21048.2564-.47013 0-.25964-.1148-.47012-.2564-.47012-.1417 0-.2565.21048-.2565.47012 0 .25965.1148.47013.2565.47013z" fill="#a0616a"/><path d="m22.5213 23.5918s-3.8892-.7266-4.1457.5556c-.2564 1.2821 4.3167.7265 4.3167.7265z" fill="#a0616a"/><path d="m22.4343 14.7871s9.3171 7.4366 7.6075 9.2316c-1.7095 1.7951-8.2059 1.2822-8.2059 1.2822l.4274-2.137 3.7611-.4273-1.8806-1.8806-1.7095.171z" fill="#d0cde1"/><path d="m8.67383 27.1811 1.19669.9402s.85478 2.6498 2.13698 1.8805c1.2821-.7693-1.1967-3.5046-1.1967-3.5046l-1.45315-.5128z" fill="#a0616a"/><path d="m9.8699 13.4199-1.19347.3592s-8.294583 6.1371-8.6364947 7.8467c-.3419123 1.7096 1.6240847 2.6498 1.6240847 2.6498l7.43658 3.5046.7693-2.0515-3.5046-1.795s.25644-.5129-.7693-.5983c-1.02573-.0855-1.19669-1.1967-1.19669-1.1967s2.05147-3.1627 3.16268-2.4789c1.11122.6838 1.45313 1.1967 1.45313 1.1967z" fill="#d0cde1"/><path d="m26.8919 29.2876v.2863c.0002.0786-.0144.1565-.0429.2297-.0127.0327-.028.0642-.0458.0944-.0562.0943-.136.1725-.2315.2267-.0955.0543-.2035.0828-.3133.0827h-21.06434c-.10984.0001-.21781-.0284-.31332-.0827-.09552-.0542-.17529-.1324-.23151-.2267-.01778-.0302-.03309-.0617-.04576-.0944-.02852-.0732-.04308-.1511-.04292-.2297v-.2863c-.00002-.0832.01635-.1656.04818-.2425.03182-.0769.07849-.1467.13732-.2055.05883-.0589.12868-.1055.20555-.1374.07687-.0318.15926-.0482.24246-.0481h1.21419v-.1335c-.00001-.0035.00067-.007.002-.0102.00132-.0032.00327-.0061.00572-.0085.00245-.0025.00537-.0044.00858-.0058.0032-.0013.00664-.002.01011-.002h.63351c.00347 0 .00691.0007.01012.002.00321.0014.00612.0033.00857.0058.00246.0024.0044.0053.00573.0085.00132.0032.002.0067.002.0102v.1335h.39577v-.1335c-.00001-.0035.00067-.007.00199-.0102.00133-.0032.00328-.0061.00573-.0085.00245-.0025.00537-.0044.00858-.0058.0032-.0013.00664-.002.01011-.002h.63351c.00347 0 .00691.0007.01012.002.0032.0014.00612.0033.00857.0058.00246.0024.0044.0053.00573.0085.00132.0032.002.0067.002.0102v.1335h.39624v-.1335c-.00001-.0035.00067-.007.002-.0102.00132-.0032.00327-.0061.00572-.0085.00246-.0025.00537-.0044.00858-.0058.00321-.0013.00664-.002.01012-.002h.63351c.00347 0 .0069.0007.01011.002.00321.0014.00612.0033.00858.0058.00245.0024.0044.0053.00572.0085.00133.0032.00201.0067.002.0102v.1335h.39577v-.1335c-.00001-.0035.00067-.007.002-.0102.00132-.0032.00327-.0061.00572-.0085.00246-.0025.00537-.0044.00858-.0058.00321-.0013.00664-.002.01011-.002h.63354c.0034 0 .0069.0007.0101.002.0032.0014.0061.0033.0086.0058.0024.0024.0044.0053.0057.0085s.002.0067.002.0102v.1335h.3958v-.1335c0-.0035.0006-.007.002-.0102.0013-.0032.0032-.0061.0057-.0085.0024-.0025.0053-.0044.0086-.0058.0032-.0013.0066-.002.0101-.002h.6335c.0035 0 .0069.0007.0101.002.0032.0014.0061.0033.0086.0058.0024.0024.0044.0053.0057.0085s.002.0067.002.0102v.1335h.3962v-.1335c0-.0035.0007-.007.002-.0102.0014-.0032.0033-.0061.0058-.0085.0024-.0025.0053-.0044.0085-.0058.0032-.0013.0067-.002.0101-.002h.6336c.0034 0 .0069.0007.0101.002.0032.0014.0061.0033.0086.0058.0024.0024.0044.0053.0057.0085s.002.0067.002.0102v.1335h.3957v-.1335c0-.0035.0007-.007.002-.0102.0014-.0032.0033-.0061.0058-.0085.0024-.0025.0053-.0044.0085-.0058.0033-.0013.0067-.002.0102-.002h4.9624c.0035 0 .0069.0007.0101.002.0032.0014.0061.0033.0086.0058.0024.0024.0044.0053.0057.0085s.002.0067.002.0102v.1335h.3962v-.1335c0-.0035.0007-.007.002-.0102.0014-.0032.0033-.0061.0058-.0085.0024-.0025.0053-.0044.0085-.0058.0032-.0013.0067-.002.0101-.002h.6336c.0069.0001.0136.0029.0186.0079.0049.0049.0077.0116.0078.0186v.1335h.3957v-.1335c0-.0035.0007-.007.002-.0102.0014-.0032.0033-.0061.0058-.0085.0024-.0025.0053-.0044.0085-.0058.0033-.0013.0067-.002.0102-.002h.6335c.0034 0 .0069.0007.0101.002.0032.0014.0061.0033.0086.0058.0024.0024.0044.0053.0057.0085s.002.0067.002.0102v.1335h.3957v-.1335c0-.0035.0007-.007.002-.0102.0014-.0032.0033-.0061.0058-.0085.0024-.0025.0053-.0044.0086-.0058.0032-.0013.0066-.002.0101-.002h.6335c.0034 0 .0069.0007.0101.002.0032.0014.0061.0033.0086.0058.0024.0024.0044.0053.0057.0085s.002.0067.002.0102v.1335h.3962v-.1335c0-.0035.0007-.007.002-.0102.0014-.0032.0033-.0061.0058-.0085.0024-.0025.0053-.0044.0085-.0058.0032-.0013.0067-.002.0101-.002h.6336c.0069.0001.0135.003.0184.0079.0048.0049.0075.0116.0075.0186v.1335h.3962v-.1335c0-.0035.0007-.007.002-.0102.0014-.0032.0033-.0061.0058-.0085.0024-.0025.0053-.0044.0085-.0058.0032-.0013.0067-.002.0102-.002h.6335c.0034 0 .0069.0007.0101.002.0032.0014.0061.0033.0086.0058.0024.0024.0044.0053.0057.0085s.002.0067.002.0102v.1335h.3958v-.1335c-.0001-.0035.0006-.007.0019-.0102.0014-.0032.0033-.0061.0058-.0085.0024-.0025.0053-.0044.0086-.0058.0032-.0013.0066-.002.0101-.002h.6335c.0034 0 .0069.0007.0101.002.0032.0014.0061.0033.0086.0058.0024.0024.0044.0053.0057.0085s.002.0067.002.0102v.1335h1.8477c.0832-.0001.1656.0163.2425.0481.0768.0319.1467.0785.2055.1374.0588.0588.1055.1286.1373.2055s.0482.1593.0482.2425z" fill="#3f3d56"/><path d="m25.1953 17.2282h-7.8513v-.1618h-3.5601v.1618h-7.88368c-.14085 0-.27593.056-.37553.1556s-.15555.2347-.15555.3755v10.7509c0 .1408.05595.2759.15555.3755s.23468.1556.37553.1556h19.29508c.1409 0 .276-.056.3756-.1556s.1555-.2347.1555-.3755v-10.7509c0-.1408-.0559-.2759-.1555-.3755s-.2347-.1556-.3756-.1556z" fill="#3f3d56"/><path d="m15.564 22.1613c.6513 0 1.1793-.528 1.1793-1.1793s-.528-1.1793-1.1793-1.1793-1.1792.528-1.1792 1.1793.5279 1.1793 1.1792 1.1793z" stroke="#d0cde1" stroke-miterlimit="10" stroke-width="2"/><path d="m15.1871 22.5851c.6513 0 1.1793-.528 1.1793-1.1793s-.528-1.1792-1.1793-1.1792-1.1793.5279-1.1793 1.1792.528 1.1793 1.1793 1.1793z" fill="#d0cde1"/></svg>