<svg width="40" height="31" fill="none" xmlns="http://www.w3.org/2000/svg"><path d="M34.568 24.798c1.055 1.133 1.11 2.798 1.11 2.798s-1.657-.172-2.712-1.304c-1.056-1.133-1.11-2.798-1.11-2.798s1.656.172 2.712 1.304Z" fill="#6C63FF"/><path d="M37.89 26.566c-1.133 1.055-2.798 1.11-2.798 1.11s.171-1.657 1.304-2.712c1.133-1.056 2.797-1.11 2.797-1.11s-.171 1.656-1.304 2.712Z" fill="#6C63FF"/><path d="M37.608 29.928h-4.165a.427.427 0 0 1-.384-.24l-.907-1.865a.425.425 0 0 1 .383-.612h5.98a.426.426 0 0 1 .384.612l-.907 1.865a.426.426 0 0 1-.383.24Z" fill="#3F3D56"/><path d="M20.729 12.02a1.717 1.717 0 1 0 0-3.434 1.717 1.717 0 0 0 0 3.434Z" fill="#2F2E41"/><path d="M21.208 8.633a1.717 1.717 0 0 1 1.51 2.532 1.715 1.715 0 1 0-2.85-1.886 1.712 1.712 0 0 1 1.34-.646Z" fill="#2F2E41"/><path d="M17.52 10.3a5.043 5.043 0 1 0 0-10.087 5.043 5.043 0 0 0 0 10.086Z" fill="#2F2E41"/><path d="M13.563 2.127a5.042 5.042 0 0 1 6.989-.53c-.041-.038-.082-.078-.125-.116a5.043 5.043 0 1 0-6.701 7.538c.042.038.087.074.13.11a5.042 5.042 0 0 1-.293-7.002Z" fill="#2F2E41"/><path d="M17.477 10.256a3.248 3.248 0 1 0 0-6.496 3.248 3.248 0 0 0 0 6.496Z" fill="#A0616A"/><path d="M15.17 8.033s.427 3.932-.257 4.36c-.684.427 3.932 1.025 3.932 1.025s-.684-4.274 1.026-5.385h-4.702Z" fill="#A0616A"/><path d="M19.273 11.71s1.273-.594-.56-.383c-1.833.212-3.415-.6-3.415-.6s-.555-.556-.64.043c-.086.598.256 1.71-1.625 1.88-1.88.171-3.59-.342-4.274.94-.683 1.283-.341 6.839-.341 6.839s1.282 4.616 2.307 5.3c1.026.683 10.001-.257 10.001-.257l2.565-4.616v-5.385s-.342-1.88-2.736-1.368c0 0-1.538-.342-1.453-1.11.086-.77.171-1.283.171-1.283Z" fill="#D0CDE1"/><path d="M11.064 28.995c.053-.23.088-.36.088-.36l-.027-.188-.282-1.912-.118-.806c1.025-.428 1.282-2.394 1.282-2.394l.038-.023.175-.105.629-.377.012-.008.254.17.516.343a6.062 6.062 0 0 0 4.774 1.094 5.256 5.256 0 0 0 1.124-.325l1.243-.414.039-.013.038.006.73.11.012.002.06.01-.168 1.167-.245 1.697c.647.342 1.222.985 1.725 1.778.111.176.219.358.323.548.136.245.266.5.39.762l.044.094c.047.103.095.206.14.31H10.837a32.808 32.808 0 0 1 .07-.404c.057-.311.113-.571.157-.762Z" fill="#2F2E41"/><path d="M10.555 12.564s.94 1.71.598 3.846c-.342 2.137 1.026 7.437 1.026 7.437l1.025-.257s-.683-4.444-.512-5.47c.17-1.026.17-5.043-.684-5.556-.855-.513-1.453 0-1.453 0ZM20.495 14.34l.36 9.464.683.427s.983-10.385.47-10.385h-1.043a.472.472 0 0 0-.47.494Z" fill="#2F2E41"/><path d="M12.648 23.634a.427.427 0 1 0 0-.855.427.427 0 0 0 0 .855ZM21.195 24.062a.427.427 0 1 0 0-.855.427.427 0 0 0 0 .855Z" fill="#6C63FF"/><path d="M14.7 2.947v3.248h.751l.958-1.025-.128 1.025h3.325L19.4 5.17l.41 1.025h.53V2.947H14.7Z" fill="#2F2E41"/><path d="M14.186 6.794c.142 0 .257-.21.257-.47s-.115-.47-.257-.47c-.142 0-.256.21-.256.47s.114.47.256.47ZM20.768 6.794c.142 0 .257-.21.257-.47s-.115-.47-.257-.47c-.142 0-.256.21-.256.47s.114.47.256.47ZM22.521 23.592s-3.889-.727-4.145.555c-.257 1.283 4.316.727 4.316.727l-.17-1.282Z" fill="#A0616A"/><path d="M22.434 14.787s9.317 7.437 7.608 9.232c-1.71 1.795-8.206 1.282-8.206 1.282l.427-2.137 3.761-.427-1.88-1.881-1.71.171v-6.24Z" fill="#D0CDE1"/><path d="m8.674 27.181 1.197.94s.854 2.65 2.136 1.88c1.283-.768-1.196-3.504-1.196-3.504l-1.453-.513-.684 1.197Z" fill="#A0616A"/><path d="m9.87 13.42-1.194.36S.382 19.915.04 21.625c-.342 1.71 1.624 2.65 1.624 2.65l7.437 3.504.769-2.051-3.505-1.795s.257-.513-.769-.599C4.57 23.25 4.399 22.14 4.399 22.14s2.052-3.163 3.163-2.48c1.111.685 1.453 1.198 1.453 1.198l.855-7.437Z" fill="#D0CDE1"/><path d="M26.892 29.288v.286a.629.629 0 0 1-.32.55.633.633 0 0 1-.314.083H5.194a.633.633 0 0 1-.633-.633v-.286a.634.634 0 0 1 .633-.634h1.214v-.133a.026.026 0 0 1 .027-.027h.633c.004 0 .007 0 .01.002a.027.027 0 0 1 .017.025v.133h.395v-.133a.027.027 0 0 1 .008-.02.027.027 0 0 1 .019-.008h.633l.01.003a.027.027 0 0 1 .015.014.027.027 0 0 1 .002.01v.134h.396v-.133a.026.026 0 0 1 .026-.027h.634c.003 0 .007 0 .01.002a.027.027 0 0 1 .014.014.026.026 0 0 1 .002.01v.134h.396v-.133a.026.026 0 0 1 .026-.027h.634c.003 0 .007 0 .01.002a.028.028 0 0 1 .014.014.027.027 0 0 1 .002.01v.134h.396v-.133a.025.025 0 0 1 .008-.02.026.026 0 0 1 .019-.007h.633a.027.027 0 0 1 .019.008.026.026 0 0 1 .008.019v.133h.396v-.133c0-.004 0-.007.002-.01a.026.026 0 0 1 .006-.01.026.026 0 0 1 .018-.007h.634c.003 0 .007 0 .01.002a.028.028 0 0 1 .014.014.027.027 0 0 1 .002.01v.134h.396v-.133c0-.004 0-.007.002-.01a.026.026 0 0 1 .006-.01.026.026 0 0 1 .018-.007h4.963a.027.027 0 0 1 .018.008.026.026 0 0 1 .008.019v.133h.396v-.133l.002-.01a.026.026 0 0 1 .006-.01.026.026 0 0 1 .019-.007h.633a.027.027 0 0 1 .027.027v.133h.395v-.133l.002-.01a.026.026 0 0 1 .006-.01.026.026 0 0 1 .019-.007h.633c.004 0 .007 0 .01.002a.028.028 0 0 1 .015.014.027.027 0 0 1 .002.01v.134h.395v-.133c0-.004.001-.007.003-.01a.026.026 0 0 1 .005-.01.026.026 0 0 1 .019-.007h.633c.004 0 .007 0 .01.002a.028.028 0 0 1 .015.014.027.027 0 0 1 .002.01v.134h.396v-.133c0-.004 0-.007.002-.01a.026.026 0 0 1 .006-.01.026.026 0 0 1 .018-.007h.634c.007 0 .014.003.018.008a.027.027 0 0 1 .008.019v.133h.396v-.133c0-.004 0-.007.002-.01a.026.026 0 0 1 .006-.01.026.026 0 0 1 .019-.007h.633c.004 0 .007 0 .01.002a.028.028 0 0 1 .015.014.027.027 0 0 1 .002.01v.134h.395v-.133a.025.025 0 0 1 .008-.02.026.026 0 0 1 .019-.007h.633c.004 0 .007 0 .01.002a.028.028 0 0 1 .015.014.027.027 0 0 1 .002.01v.134h1.847a.633.633 0 0 1 .634.634Z" fill="#3F3D56"/><path d="M25.195 17.228h-7.851v-.162h-3.56v.162H5.9a.531.531 0 0 0-.53.531V28.51a.531.531 0 0 0 .53.531h19.295a.531.531 0 0 0 .531-.53V17.758a.531.531 0 0 0-.53-.53Z" fill="#3F3D56"/><path d="M15.564 22.161a1.18 1.18 0 1 0 0-2.358 1.18 1.18 0 0 0 0 2.358Z" stroke="#D0CDE1" stroke-width="2" stroke-miterlimit="10"/><path d="M15.187 22.585a1.18 1.18 0 1 0 0-2.359 1.18 1.18 0 0 0 0 2.36Z" fill="#D0CDE1"/></svg>