<svg fill="none" height="45" viewBox="0 0 45 45" width="45" xmlns="http://www.w3.org/2000/svg"><g fill="#fff"><path d="m15.533 29.455c-.192 0-.384-.073-.53-.22-.293-.293-.293-.769 0-1.062l13.171-13.171c.293-.293.768-.293 1.061 0s.293.768 0 1.061l-13.172 13.172c-.146.147-.338.22-.53.22z"/><path d="m28.704 29.455c-.192 0-.384-.073-.53-.22l-13.172-13.171c-.293-.293-.293-.768 0-1.061s.768-.293 1.061 0l13.171 13.171c.293.293.293.769 0 1.062-.146.146-.338.219-.53.219z"/><path d="m22.119 44.237c-12.197 0-22.119-9.922-22.119-22.117 0-12.19602 9.922-22.11902344 22.119-22.11902344s22.119 9.92200344 22.119 22.11902344c0 12.197-9.924 22.117-22.119 22.117zm0-42.73602c-11.369 0-20.619 9.25002-20.619 20.61902s9.25 20.619 20.619 20.619 20.619-9.25 20.619-20.619-9.25-20.61902-20.619-20.61902z"/></g></svg>