<svg fill="none" height="22" viewBox="0 0 21 22" width="21" xmlns="http://www.w3.org/2000/svg"><path d="m12.41 11.0002 8.29-8.29001c.1638-.19131.2494-.43738.2397-.68906-.0097-.25167-.1141-.49041-.2922-.66851-.1781-.17809-.4168-.28242-.6685-.29215-.2516-.00972-.4977.07589-.689.23972l-8.29 8.29-8.29003-8.3c-.1883-.18831-.4437-.294096-.71-.294096s-.52169.105786-.71.294096c-.1883.1883-.294089.44369-.294089.71 0 .2663.105789.52169.294089.71l8.3 8.29001-8.3 8.29c-.10468.0896-.1897.2-.24972.324-.060025.1241-.093756.2592-.099075.3969-.00532.1377.017886.2751.068165.4034.05027.1283.12653.2449.22398.3423.09746.0975.214.1737.34233.224s.26566.0735.40338.0682.27285-.0391.39691-.0991c.12407-.06.23439-.145.32403-.2497l8.30003-8.29 8.29 8.29c.1913.1638.4374.2494.689.2397.2517-.0097.4904-.1141.6685-.2922.1781-.178.2825-.4168.2922-.6685.0097-.2516-.0759-.4977-.2397-.689z" fill="#fff"/></svg>