<svg fill="none" height="388" viewBox="0 0 388 484" width="388" xmlns="http://www.w3.org/2000/svg" xmlns:xlink="http://www.w3.org/1999/xlink"><mask id="a" height="19" maskUnits="userSpaceOnUse" width="32" x="209" y="177"><path d="m240.909 186.424c.709-4.975-3.151-9.424-8.176-9.424h-14.967c-4.841 0-8.766 3.925-8.766 8.766 0 5.928 5.252 10.482 11.121 9.641l13.783-1.973c3.633-.521 6.487-3.377 7.005-7.01z" fill="#fff"/></mask><mask id="b" height="19" maskUnits="userSpaceOnUse" width="33" x="147" y="177"><path d="m147.343 186.424c-.709-4.975 3.151-9.424 8.176-9.424h14.967c4.841 0 8.766 3.925 8.766 8.766 0 5.928-5.252 10.482-11.121 9.641l-13.783-1.973c-3.633-.521-6.487-3.377-7.005-7.01z" fill="#fff"/></mask><mask id="c" height="31" maskUnits="userSpaceOnUse" width="70" x="159" y="237"><path d="m159 237h70v31h-70z" fill="#c4c4c4"/></mask><path d="m176 279h36v23h-36z" fill="#a48176"/><circle cx="262" cy="90" fill="#2b4570" r="50"/><path d="m262 126c0 22.091-17.909 40-40 40s-40-17.909-40-40 17.909-40 40-40 40 17.909 40 40z" fill="#e44a3c"/><path d="m117 157.5c0-42.25 34.25-76.5 76.5-76.5s76.5 34.25 76.5 76.5v23.5h-153z" fill="#2b4570"/><path d="m117 179c0-26.51 21.49-48 48-48h57c26.51 0 48 21.49 48 48v43c0 38.66-31.34 70-70 70h-13c-38.66 0-70-31.34-70-70z" fill="#c79889"/><g mask="url(#a)"><path d="m0 0h48.7695v33.3333h-48.7695z" fill="#fff" transform="matrix(-1 0 0 1 251.119 170.333)"/><ellipse fill="#271e1e" rx="9.97558" ry="10" transform="matrix(-1 0 0 1 223.409 184.776)"/></g><g mask="url(#b)"><path d="m137.133 170.333h48.7695v33.3333h-48.7695z" fill="#fff"/><ellipse cx="164.843" cy="184.776" fill="#271e1e" rx="9.97558" ry="10"/></g><circle cx="249" cy="222" fill="#e44a3c" fill-opacity=".25" r="10"/><circle cx="141" cy="222" fill="#e44a3c" fill-opacity=".24" r="10"/><g mask="url(#c)"><path d="m227.5 237c0 16.126-14.822 29.5-33.5 29.5s-33.5-13.374-33.5-29.5 14.822-29.5 33.5-29.5 33.5 13.374 33.5 29.5z" stroke="#000" stroke-opacity=".21" stroke-width="3"/></g><g stroke="#000"><circle cx="160" cy="187" r="21" stroke-width="2"/><circle cx="228" cy="187" r="21" stroke-width="2"/><path d="m182 186.5h24"/></g><path d="m77 337c0-19.33 15.67-35 35-35h164c19.33 0 35 15.67 35 35v42h-234z" fill="#c79889"/><path d="m77 350h234v90h-234z" fill="#2b4570"/><path d="m228.44 395.001c0-19.021-15.419-34.44-34.44-34.44s-34.44 15.419-34.44 34.44c0 19.02 15.419 34.44 34.44 34.44s34.44-15.42 34.44-34.44z" stroke="#2b4570"/><path d="m177.921 397.525-.007-.003-.007-.003c-3.878-1.574-6.463-3.171-7.846-4.763-1.35-1.579-2.037-3.551-2.037-5.954 0-3.013 1.074-5.469 3.226-7.409v-.001c2.172-1.961 5.06-2.965 8.72-2.965 3.871 0 6.906.998 9.166 2.941 2.12 1.823 3.25 4.231 3.372 7.275h-8.348c-.07-1.282-.393-2.34-1.034-3.109-.748-.898-1.847-1.305-3.189-1.305-1.13 0-2.1.356-2.864 1.093-.781.754-1.14 1.784-1.14 3.012 0 .993.45 1.852 1.261 2.561l.004.004.003.003c.407.343 1.053.734 1.902 1.173.858.443 1.955.951 3.289 1.522l.012.005.014.005c3.826 1.416 6.444 2.971 7.937 4.631l.005.006c1.493 1.617 2.259 3.736 2.259 6.409 0 3.07-1.143 5.504-3.436 7.355-2.307 1.863-5.36 2.819-9.213 2.819-2.579 0-4.83-.498-6.767-1.477-1.942-1.003-3.458-2.384-4.561-4.144-.983-1.6-1.517-3.308-1.608-5.13h7.889c.11 1.465.504 2.66 1.246 3.518l.003.003.003.003c.885.993 2.266 1.425 3.996 1.425 1.344 0 2.456-.303 3.235-1.006.789-.713 1.137-1.749 1.137-2.999 0-1.007-.496-1.884-1.359-2.626-.84-.762-2.629-1.718-5.263-2.869z" stroke="#2b4570"/><path d="m208.353 397.525.007-.003.007-.003c3.878-1.574 6.463-3.171 7.845-4.763 1.351-1.579 2.038-3.551 2.038-5.954 0-3.013-1.074-5.469-3.225-7.409l-.001-.001c-2.172-1.961-5.06-2.965-8.72-2.965-3.871 0-6.906.998-9.166 2.941-2.12 1.823-3.25 4.231-3.372 7.275h8.348c.07-1.282.394-2.34 1.034-3.109.748-.898 1.847-1.305 3.189-1.305 1.13 0 2.1.356 2.864 1.093.781.754 1.141 1.784 1.141 3.012 0 .993-.451 1.852-1.262 2.561l-.004.004-.003.003c-.407.343-1.053.734-1.902 1.173-.858.443-1.955.951-3.288 1.522l-.013.005-.014.005c-3.826 1.416-6.444 2.971-7.937 4.631l-.005.006c-1.493 1.617-2.259 3.736-2.259 6.409 0 3.07 1.143 5.504 3.437 7.355 2.306 1.863 5.359 2.819 9.212 2.819 2.579 0 4.83-.498 6.767-1.477 1.943-1.003 3.458-2.384 4.562-4.144.982-1.6 1.517-3.308 1.607-5.13h-7.889c-.11 1.465-.504 2.66-1.246 3.518l-.003.003-.003.003c-.885.993-2.266 1.425-3.996 1.425-1.344 0-2.456-.303-3.234-1.006-.79-.713-1.138-1.749-1.138-2.999 0-1.007.496-1.884 1.359-2.626.84-.762 2.629-1.718 5.263-2.869z" stroke="#2b4570"/><rect fill="#fff" height="108.689" rx="5" width="164.099" x="115.754" y="313"/><path d="m115.754 400.376h164.099v16.311c0 2.762-2.239 5-5 5h-154.099c-2.762 0-5-2.238-5-5z" fill="#9fd8cb"/><rect fill="#a56060" height="21.3115" rx="3" width="245.082" x="71" y="421.688"/></svg>