<svg class="correct-avatar" width="388" height="388" viewBox="0 0 388 484" fill="none" xmlns="http://www.w3.org/2000/svg"><path fill="#A48176" d="M176 279h36v23h-36z"/><g class="correct-avatar__head"><circle cx="262" cy="90" r="50" fill="#2B4570" class="correct-avatar__head__pony-tail"/><path d="M262 126c0 22.091-17.909 40-40 40s-40-17.909-40-40 17.909-40 40-40 40 17.909 40 40Z" fill="#E44A3C" class="correct-avatar__head__pom-pom"/><path d="M117 157.5c0-42.25 34.25-76.5 76.5-76.5s76.5 34.25 76.5 76.5V181H117v-23.5Z" fill="#2B4570" class="correct-avatar__head__scalp"/><path d="M117 179c0-26.51 21.49-48 48-48h57c26.51 0 48 21.49 48 48v43c0 38.66-31.34 70-70 70h-13c-38.66 0-70-31.34-70-70v-43Z" fill="#C79889"/><mask id="a" mask-type="alpha" maskUnits="userSpaceOnUse" x="209" y="177" width="32" height="19"><path d="M240.909 186.424c.709-4.975-3.151-9.424-8.176-9.424h-14.967a8.766 8.766 0 0 0-8.766 8.766c0 5.928 5.252 10.482 11.121 9.641l13.783-1.973a8.26 8.26 0 0 0 7.005-7.01Z" fill="#fff"/></mask><g mask="url(#a)"><path fill="#fff" d="M251.119 170.333h-48.77v33.333h48.77z"/><ellipse rx="9.976" ry="10" transform="matrix(-1 0 0 1 223.409 184.776)" fill="#271E1E"/></g><mask id="b" mask-type="alpha" maskUnits="userSpaceOnUse" x="147" y="177" width="33" height="19"><path d="M147.343 186.424c-.709-4.975 3.151-9.424 8.176-9.424h14.967a8.766 8.766 0 0 1 8.766 8.766c0 5.928-5.252 10.482-11.121 9.641l-13.783-1.973a8.26 8.26 0 0 1-7.005-7.01Z" fill="#fff"/></mask><g mask="url(#b)"><path fill="#fff" d="M137.133 170.333h48.77v33.333h-48.77z"/><ellipse cx="164.843" cy="184.776" rx="9.976" ry="10" fill="#271E1E"/></g><circle cx="249" cy="222" r="10" fill="#E44A3C" fill-opacity=".25"/><circle cx="141" cy="222" r="10" fill="#E44A3C" fill-opacity=".24"/><mask id="c" mask-type="alpha" maskUnits="userSpaceOnUse" x="159" y="237" width="70" height="31"><path fill="#C4C4C4" d="M159 237h70v31h-70z"/></mask><g mask="url(#c)"><path d="M227.5 237c0 16.126-14.822 29.5-33.5 29.5s-33.5-13.374-33.5-29.5c0-16.126 14.822-29.5 33.5-29.5s33.5 13.374 33.5 29.5Z" stroke="#000" stroke-opacity=".21" stroke-width="3"/></g><g class="correct-avatar__head__glasses" stroke="#000"><circle cx="160" cy="187" r="21" stroke-width="2"/><circle cx="228" cy="187" r="21" stroke-width="2"/><path d="M182 186.5h24"/></g></g><path d="M77 337c0-19.33 15.67-35 35-35h164c19.33 0 35 15.67 35 35v42H77v-42Z" fill="#C79889"/><path fill="#2B4570" d="M77 350h234v90H77z"/><path d="M228.44 395.001c0-19.021-15.419-34.44-34.44-34.44-19.021 0-34.44 15.419-34.44 34.44 0 19.02 15.419 34.44 34.44 34.44 19.021 0 34.44-15.42 34.44-34.44Z" stroke="#2B4570"/><path d="m177.921 397.525-.007-.003-.007-.003c-3.878-1.574-6.463-3.171-7.846-4.763-1.35-1.579-2.037-3.551-2.037-5.954 0-3.013 1.074-5.469 3.226-7.409v-.001c2.172-1.961 5.06-2.965 8.72-2.965 3.871 0 6.906.998 9.166 2.941 2.12 1.823 3.25 4.231 3.372 7.275h-8.348c-.07-1.282-.393-2.34-1.034-3.109-.748-.898-1.847-1.305-3.189-1.305-1.13 0-2.1.356-2.864 1.093-.781.754-1.14 1.784-1.14 3.012 0 .993.45 1.852 1.261 2.561l.004.004.003.003c.407.343 1.053.734 1.902 1.173.858.443 1.955.951 3.289 1.522l.012.005.014.005c3.826 1.416 6.444 2.971 7.937 4.631l.005.006c1.493 1.617 2.259 3.736 2.259 6.409 0 3.07-1.143 5.504-3.436 7.355-2.307 1.863-5.36 2.819-9.213 2.819-2.579 0-4.83-.498-6.767-1.477-1.942-1.003-3.458-2.384-4.561-4.144-.983-1.6-1.517-3.308-1.608-5.13h7.889c.11 1.465.504 2.66 1.246 3.518l.003.003.003.003c.885.993 2.266 1.425 3.996 1.425 1.344 0 2.456-.303 3.235-1.006.789-.713 1.137-1.749 1.137-2.999 0-1.007-.496-1.884-1.359-2.626-.84-.762-2.629-1.718-5.263-2.869ZM208.353 397.525l.007-.003.007-.003c3.878-1.574 6.463-3.171 7.845-4.763 1.351-1.579 2.038-3.551 2.038-5.954 0-3.013-1.074-5.469-3.225-7.409l-.001-.001c-2.172-1.961-5.06-2.965-8.72-2.965-3.871 0-6.906.998-9.166 2.941-2.12 1.823-3.25 4.231-3.372 7.275h8.348c.07-1.282.394-2.34 1.034-3.109.748-.898 1.847-1.305 3.189-1.305 1.13 0 2.1.356 2.864 1.093.781.754 1.141 1.784 1.141 3.012 0 .993-.451 1.852-1.262 2.561l-.004.004-.003.003c-.407.343-1.053.734-1.902 1.173a51.97 51.97 0 0 1-3.288 1.522l-.013.005-.014.005c-3.826 1.416-6.444 2.971-7.937 4.631l-.005.006c-1.493 1.617-2.259 3.736-2.259 6.409 0 3.07 1.143 5.504 3.437 7.355 2.306 1.863 5.359 2.819 9.212 2.819 2.579 0 4.83-.498 6.767-1.477 1.943-1.003 3.458-2.384 4.562-4.144.982-1.6 1.517-3.308 1.607-5.13h-7.889c-.11 1.465-.504 2.66-1.246 3.518l-.003.003-.003.003c-.885.993-2.266 1.425-3.996 1.425-1.344 0-2.456-.303-3.234-1.006-.79-.713-1.138-1.749-1.138-2.999 0-1.007.496-1.884 1.359-2.626.84-.762 2.629-1.718 5.263-2.869Z" stroke="#2B4570"/><rect x="115.754" y="313" width="164.099" height="108.689" rx="5" fill="#fff"/><path d="M115.754 400.376h164.099v16.311a5 5 0 0 1-5 5H120.754a5 5 0 0 1-5-5v-16.311Z" fill="#9FD8CB"/><rect x="71" y="421.688" width="245.082" height="21.311" rx="3" fill="#A56060"/></svg>