<svg fill="none" height="15" viewBox="0 0 59 15" width="59" xmlns="http://www.w3.org/2000/svg"><g fill="#00acd4"><path d="m29.0625 0c-1.4834 0-2.9334.439868-4.1668 1.26398-1.2333.82411-2.1946 1.99545-2.7623 3.36589-.5677 1.37045-.7162 2.87845-.4268 4.3333.2894 1.45483 1.0037 2.79123 2.0526 3.84013s2.3853 1.7632 3.8401 2.0526c1.4549.2894 2.9629.1409 4.3333-.4268 1.3705-.5677 2.5418-1.529 3.3659-2.7623.8241-1.2334 1.264-2.68344 1.264-4.1668-.0022-1.98844-.7931-3.8948-2.1992-5.30083-1.406-1.406043-3.3124-2.19693677-5.3008-2.19917zm0 13.125c-1.1125 0-2.2001-.3299-3.1251-.948s-1.646-1.4966-2.0717-2.52441c-.4258-1.02783-.5372-2.15883-.3201-3.24997.217-1.09115.7528-2.09343 1.5394-2.8801.7867-.78667 1.789-1.3224 2.8801-1.53944 1.0912-.21704 2.2222-.10565 3.25.3201 1.0278.42574 1.9063 1.14671 2.5244 2.07174.6181.92502.948 2.01256.948 3.12508-.0017 1.49132-.5949 2.9211-1.6494 3.9756s-2.4843 1.6477-3.9756 1.6494z"/><path d="m7.5 0c-1.48336 0-2.93341.439868-4.16677 1.26398-1.23337.82411-2.19467 1.99545-2.762323 3.36589-.56765739 1.37045-.716182 2.87845-.426793 4.3333.289389 1.45483 1.003696 2.79123 2.052586 3.84013 1.0489 1.0489 2.38527 1.7632 3.84012 2.0526 1.45486.2894 2.96286.1409 4.33328-.4268 1.3705-.5677 2.5418-1.529 3.3659-2.7623.8241-1.2334 1.264-2.68344 1.264-4.1668-.0022-1.98844-.7931-3.8948-2.1992-5.30083-1.406-1.406043-3.31236-2.19693677-5.3008-2.19917zm0 13.125c-1.11252 0-2.20005-.3299-3.12508-.948s-1.646-1.4966-2.07174-2.52441c-.42574-1.02783-.53714-2.15883-.32009-3.24997.21704-1.09115.75277-2.09343 1.53944-2.8801s1.78895-1.3224 2.88009-1.53944 2.22214-.10565 3.24998.3201c1.0278.42574 1.9063 1.14671 2.5244 2.07174.6181.92502.948 2.01256.948 3.12508-.0017 1.49132-.5949 2.9211-1.6494 3.9756s-2.48428 1.6477-3.9756 1.6494z"/><path d="m50.625 0c-1.4834 0-2.9334.439868-4.1668 1.26398-1.2333.82411-2.1946 1.99545-2.7623 3.36589-.5677 1.37045-.7162 2.87845-.4268 4.3333.2894 1.45483 1.0037 2.79123 2.0526 3.84013s2.3853 1.7632 3.8401 2.0526c1.4549.2894 2.9629.1409 4.3333-.4268 1.3705-.5677 2.5418-1.529 3.3659-2.7623.8241-1.2334 1.264-2.68344 1.264-4.1668-.0022-1.98844-.7931-3.8948-2.1992-5.30083-1.406-1.406043-3.3124-2.19693677-5.3008-2.19917zm0 13.125c-1.1125 0-2.2001-.3299-3.1251-.948s-1.646-1.4966-2.0717-2.52441c-.4258-1.02783-.5372-2.15883-.3201-3.24997.217-1.09115.7528-2.09343 1.5394-2.8801.7867-.78667 1.789-1.3224 2.8801-1.53944 1.0912-.21704 2.2222-.10565 3.25.3201 1.0278.42574 1.9063 1.14671 2.5244 2.07174.6181.92502.948 2.01256.948 3.12508-.0017 1.49132-.5949 2.9211-1.6494 3.9756s-2.4843 1.6477-3.9756 1.6494z"/></g></svg>