<svg width="20" height="22" fill="none" xmlns="http://www.w3.org/2000/svg"><g clip-path="url(#a)" fill="#FF8600"><path d="M19.926 10.74c-.158-.253-3.943-6.157-9.926-6.157-5.134 0-9.71 5.87-9.902 6.12-.13.171-.13.421 0 .593.193.25 4.768 6.12 9.902 6.12 5.134 0 9.71-5.87 9.902-6.12a.495.495 0 0 0 .024-.556ZM10 16.5c-4.116 0-8.03-4.318-9.024-5.5C1.97 9.816 5.878 5.5 10 5.5c4.816 0 8.215 4.31 9.045 5.475C18.087 12.12 14.151 16.5 10 16.5Z"/><path d="M10 7.333C8.16 7.333 6.665 8.978 6.665 11s1.495 3.666 3.333 3.666c1.839 0 3.334-1.644 3.334-3.666 0-2.022-1.495-3.667-3.334-3.667Zm0 6.417c-1.379 0-2.5-1.234-2.5-2.75S8.62 8.25 10 8.25c1.378 0 2.5 1.234 2.5 2.75s-1.122 2.75-2.5 2.75Z"/></g><defs><clipPath id="a"><path fill="#fff" d="M0 0h20v22H0z"/></clipPath></defs></svg>