<svg fill="none" height="22" viewBox="0 0 20 22" width="20" xmlns="http://www.w3.org/2000/svg" xmlns:xlink="http://www.w3.org/1999/xlink"><clipPath id="a"><path d="m0 0h20v22h-20z"/></clipPath><g clip-path="url(#a)" fill="#ff8600"><path d="m19.9259 10.7395c-.1575-.2522-3.9425-6.15649-9.92595-6.15649-5.13426 0-9.70933 5.87039-9.9018332 6.12069-.1308224.1705-.1308224.4208 0 .5922.1925032.2502 4.7675732 6.1207 9.9018332 6.1207 5.13425 0 9.70925-5.8705 9.90175-6.1207.1209-.1577.1317-.3859.0242-.5564zm-9.92595 5.7604c-4.11588 0-8.0293-4.3176-9.02346-5.5001.99252-1.18342 4.90176-5.50008 9.02346-5.50008 4.81585 0 8.21515 4.31116 9.04515 5.47538-.9584 1.1449-4.8943 5.5248-9.04515 5.5248z"/><path d="m9.9994 7.33301c-1.83836 0-3.33338 1.64453-3.33338 3.66669 0 2.0222 1.49502 3.6667 3.33338 3.6667 1.8383 0 3.3334-1.6445 3.3334-3.6667 0-2.02216-1.4951-3.66669-3.3334-3.66669zm0 6.41679c-1.37835 0-2.50005-1.2339-2.50005-2.75 0-1.51621 1.1217-2.75008 2.50005-2.75008 1.3783 0 2.5 1.23387 2.5 2.75008 0 1.5161-1.1217 2.75-2.5 2.75z"/></g></svg>