<svg fill="none" height="50" viewBox="0 0 50 50" width="50" xmlns="http://www.w3.org/2000/svg"><g fill="#ee7d00"><path d="m41.658 7.36542h-6.5742c-5.1174 0-9.2808 4.16338-9.2808 9.28078v5.5485h-5.2025c-.539 0-.9766.4371-.9766.9765v7.5135c0 .5394.4376.9765.9766.9765h5.2025v16.3857h-22.87331c-.53864 0-.97657-.438-.97657-.9766v-44.14061c0-.53864.43793-.97657.97657-.97657h1.95312c.5394 0 .97657-.43716.97657-.976558s-.43717-.976562-.97657-.976562h-1.95312c-1.61553 0-2.92969 1.31416-2.92969 2.92969v44.14061c0 1.6155 1.31416 2.9297 2.92969 2.9297h23.84991c.5394 0 .9765-.4372.9765-.9766v-18.3387c0-.5394-.4371-.9766-.9765-.9766h-5.2021v-5.5607h5.2021c.5394 0 .9765-.4371.9765-.9765v-6.5247c0-4.0405 3.2871-7.32804 7.3281-7.32804h5.5976v5.56034h-5.5976c-.9583 0-1.7678.8094-1.7678 1.7677v6.5247c0 .5394.4372.9765.9766.9765h6.2519l-.7317 5.5607h-5.5202c-.539 0-.9766.4372-.9766.9766v18.3387c0 .5394.4376.9766.9766.9766h3.0117c.5394 0 .9765-.4372.9765-.9766s-.4371-.9765-.9765-.9765h-2.0352v-16.3857h5.4001c.4902 0 .9045-.3635.9682-.8491l.9888-7.5138c.0366-.2785-.0485-.5597-.2339-.771-.1854-.2117-.4532-.3326-.7343-.3326h-6.3885v-5.3627h6.3885c.5394 0 .9766-.4372.9766-.9766v-7.51342c-.0004-.5394-.4376-.97656-.977-.97656z"/><path d="m47.0703 0h-34.375c-.5394 0-.9765.437164-.9765.976562s.4371.976558.9765.976558h34.375c.5386 0 .9766.43793.9766.97657v44.14061c0 .5386-.438.9766-.9766.9766h-1.9531c-.5394 0-.9766.4371-.9766.9765s.4372.9766.9766.9766h1.9531c1.6155 0 2.9297-1.3142 2.9297-2.9297v-44.14061c0-1.61553-1.3142-2.92969-2.9297-2.92969z"/><path d="m41.2113 48.0469h-.0007c-.5394 0-.9762.4371-.9762.9765s.4375.9766.9769.9766.9766-.4372.9766-.9766-.4372-.9765-.9766-.9765z"/><path d="m8.78944 1.95312c.5394 0 .97657-.43716.97657-.976558s-.43717-.976562-.97657-.976562h-.00076c-.5394 0-.97618.437164-.97618.976562s.43755.976558.97694.976558z"/></g></svg>