<svg width="50" height="50" fill="none" xmlns="http://www.w3.org/2000/svg"><path d="M41.658 7.365h-6.574c-5.118 0-9.281 4.164-9.281 9.281v5.549H20.6a.977.977 0 0 0-.976.976v7.514c0 .54.438.976.977.976h5.202v16.386H2.93a.978.978 0 0 1-.977-.977V2.93c0-.539.438-.977.977-.977h1.953a.976.976 0 1 0 0-1.953H2.93A2.933 2.933 0 0 0 0 2.93v44.14A2.933 2.933 0 0 0 2.93 50h23.85c.539 0 .976-.437.976-.977V30.685a.976.976 0 0 0-.976-.977h-5.203v-5.56h5.203c.539 0 .976-.438.976-.977v-6.525c0-4.04 3.287-7.328 7.328-7.328h5.598v5.56h-5.598c-.958 0-1.768.81-1.768 1.768v6.525c0 .54.438.976.977.976h6.252l-.732 5.561h-5.52a.977.977 0 0 0-.977.977v18.338c0 .54.438.977.977.977h3.012a.976.976 0 1 0 0-1.953H35.27V31.66h5.4c.49 0 .904-.363.968-.849l.989-7.514a.976.976 0 0 0-.969-1.103H35.27v-5.363h6.388c.54 0 .977-.437.977-.977V8.342a.977.977 0 0 0-.977-.977Z" fill="#EE7D00"/><path d="M47.07 0H12.695a.976.976 0 1 0 0 1.953H47.07c.539 0 .977.438.977.977v44.14a.978.978 0 0 1-.977.977h-1.953a.976.976 0 1 0 0 1.953h1.953A2.933 2.933 0 0 0 50 47.07V2.93A2.933 2.933 0 0 0 47.07 0ZM41.211 48.047a.976.976 0 1 0-.002 1.952.976.976 0 0 0 .002-1.952ZM8.79 1.953A.976.976 0 1 0 8.79 0h-.001a.976.976 0 1 0 0 1.953Z" fill="#EE7D00"/></svg>