<svg width="50" height="50" fill="none" xmlns="http://www.w3.org/2000/svg"><path d="M36.465 0h-22.93C6.07 0 0 6.071 0 13.534v22.932C0 43.928 6.071 50 13.534 50h22.932C43.928 50 50 43.928 50 36.466V13.535C50 6.07 43.928 0 36.465 0ZM47.07 36.466c0 5.846-4.757 10.603-10.604 10.603h-22.93c-5.847 0-10.604-4.757-10.604-10.603V13.535c0-5.847 4.757-10.604 10.604-10.604h22.93c5.847 0 10.604 4.757 10.604 10.604v22.93Z" fill="#EE7D00"/><path d="M25 11.328c-7.539 0-13.672 6.133-13.672 13.672 0 7.538 6.133 13.671 13.672 13.671 7.538 0 13.671-6.133 13.671-13.671 0-7.539-6.133-13.672-13.671-13.672Zm0 24.412c-5.922 0-10.74-4.818-10.74-10.74 0-5.922 4.818-10.74 10.74-10.74 5.922 0 10.74 4.818 10.74 10.74 0 5.922-4.818 10.74-10.74 10.74ZM38.999 6.474a4.044 4.044 0 0 0-4.04 4.04 4.044 4.044 0 0 0 4.04 4.04 4.045 4.045 0 0 0 4.04-4.04 4.044 4.044 0 0 0-4.04-4.04Zm0 5.148a1.11 1.11 0 1 1 1.109-1.108 1.11 1.11 0 0 1-1.11 1.108Z" fill="#EE7D00"/></svg>