<svg fill="none" height="50" viewBox="0 0 50 50" width="50" xmlns="http://www.w3.org/2000/svg"><g fill="#ee7d00"><path d="m36.4654 0h-22.9309c-7.46304 0-13.5345 6.07146-13.5345 13.5345v22.9313c0 7.4626 6.07146 13.5341 13.5345 13.5341h22.9313c7.4626 0 13.5341-6.0715 13.5341-13.5341v-22.9313c0-7.46304-6.0715-13.5345-13.5345-13.5345zm10.6033 36.4658c0 5.8464-4.7565 10.6029-10.6033 10.6029h-22.9309c-5.84676 0-10.60329-4.7565-10.60329-10.6029v-22.9313c0-5.84676 4.75653-10.60329 10.60329-10.60329h22.9313c5.8464 0 10.6029 4.75653 10.6029 10.60329z"/><path d="m24.9996 11.3281c-7.5386 0-13.6715 6.1329-13.6715 13.6715s6.1329 13.6715 13.6715 13.6715 13.6715-6.1329 13.6715-13.6715-6.1329-13.6715-13.6715-13.6715zm0 24.4118c-5.9219 0-10.7403-4.818-10.7403-10.7403 0-5.9219 4.8184-10.7403 10.7403-10.7403 5.9223 0 10.7403 4.8184 10.7403 10.7403 0 5.9223-4.818 10.7403-10.7403 10.7403z"/><path d="m38.9987 6.47363c-2.2277 0-4.0397 1.81236-4.0397 4.03977 0 2.2278 1.812 4.0401 4.0397 4.0401 2.2278 0 4.0402-1.8123 4.0402-4.0401 0-2.22779-1.8124-4.03977-4.0402-4.03977zm0 5.14827c-.6111 0-1.1085-.4974-1.1085-1.1085 0-.61151.4974-1.10856 1.1085-1.10856.6115 0 1.109.49705 1.109 1.10856 0 .6111-.4975 1.1085-1.109 1.1085z"/></g></svg>