<svg width="608" height="700" fill="none" xmlns="http://www.w3.org/2000/svg"><path d="M495.511 92.957c63.102 26.49 109.733 99.062 111.839 170.596 1.98 71.659-40.572 142.132-85.757 202.861-45.052 60.595-92.728 111.313-151.359 133.591-58.748 22.262-128.561 16.078-178.618-15.017-49.924-30.978-79.958-86.96-113.293-142.29-33.327-55.189-69.68-109.859-76.925-175.067-7.379-65.074 14.49-140.946 64.682-169.668 50.19-28.722 128.561-10.27 207.6-10.93 79.038-.661 158.603-20.417 221.831 5.924Z" fill="#00ACD4"/><path d="M162.462 280.729c.511 10.302 0 400.544 0 400.544h27.229l41.649-256.455c.526-8.314 8.117-100.232 8.117-100.232l-47.935-49.24-29.06 5.383Z" fill="#B45E00"/><path d="M272.509 277.948s31.197 199.601 31.197 207.726-51.079 192.261-51.079 192.261H226.42l22.294-212.3-76.438-179.593" fill="#FF8600"/><path d="M142.682 202.438c-1.422 2.067-10.373 22.947-9.697 31.166 1.037 12.574 9.666 19.528 24.424 27.159 4.243 0 8.769-49.012 8.769-49.012l-13.272-9.313h-10.224Z" fill="#DE8E68"/><path d="M172.277 147.908c-19.874 15.355-36.73 45.578-33.453 51.142 1.571 2.601 9.76 7.237 19.111 11.449" fill="#22385B"/><path d="M253.436 66.063c5.782-23.664-4.644-46.54-23.287-51.096-18.644-4.555-38.444 10.937-44.226 34.6-5.782 23.665 4.644 46.542 23.287 51.097 18.644 4.555 38.444-10.936 44.226-34.6Z" fill="#DE8E68"/><path d="M217.485 109.787c44.203 0 62.261 158.502 55.008 168.167-9.894 13.187-80.681 23.803-110.016 2.782-11.284-8.055-12.998-170.949 55.008-170.949Z" fill="#2B4570"/><path d="M162.462 681.274v18.727h63.958v-10.578l-36.729-8.149M226.42 677.934V700h66.984v-8.582l-40.745-13.484" fill="#000"/><path d="M280.179 192.302c1.242 1.32 11.984 16.997 13.485 20.345 2.994-2.554 99.14-83.164 100.719-84.257 1.58-1.092 4.315-.998 5.383-.275a4.229 4.229 0 0 1 1.47 5.422c-.849 1.572-12.801 12.086-12.801 12.086.974 1.218 5.964 13.87-.425 19.811-4.345 4.047-9.272 5.391-14.011 2.884-3.143 3.403-78.284 86.441-91.392 86.441-6.066 0-26.875-21.351-36.258-37.437" fill="#DE8E68"/><path d="M213.745 156.923c0 25.932 20.432 62.08 27.504 62.08 7.073 0 42.435-25.932 42.435-32.219 0-6.286-27.504-52.65-51.079-52.65-9.43 0-18.86 10.216-18.86 22.789Z" fill="#22385B"/><path d="M211.387 53.2c13.548.102 38.144-26.475 38.144-27.504 0-2.358-4.18-14.813-28.439-14.813-17.327 0-44.588 12.133-44.588 51.982 0 20.518-8.023 42.435-8.023 52.336 0 15.049 12.125 24.534 31.276 24.534 9.249 0 23.158-4.558 23.158-12.039 0-10.939 11.222-46.482-10.215-54.222" fill="#000"/><path d="M215.143 72.391a7.982 7.982 0 0 1-4.314 1.289c-4.896 0-8.864-4.59-8.864-10.255 0-5.666 3.968-10.216 8.864-10.216.916 0 1.826.159 2.688.471" fill="#DE8E68"/><path d="M573.913 0H418.312v115.03h155.601V0ZM496.109 280.399c36.586 0 66.245-29.659 66.245-66.245 0-36.587-29.659-66.246-66.245-66.246-36.587 0-66.246 29.659-66.246 66.246 0 36.586 29.659 66.245 66.246 66.245Z" fill="#2B4570"/></svg>