<svg fill="none" height="700" viewBox="0 0 608 700" width="608" xmlns="http://www.w3.org/2000/svg"><path d="m495.511 92.9572c63.102 26.4898 109.733 99.0618 111.839 170.5958 1.98 71.659-40.572 142.132-85.757 202.861-45.052 60.595-92.728 111.313-151.359 133.591-58.748 22.262-128.561 16.078-178.618-15.017-49.924-30.978-79.958-86.96-113.2932-142.29-33.327-55.189-69.67941-109.859-76.92475-175.067-7.37892-65.074 14.49065-140.946 64.68155-169.668 50.1904-28.7221 128.5614-10.2708 207.6004-10.9309 79.038-.6601 158.603-20.4158 221.831 5.9251z" fill="#00acd4"/><path d="m162.462 280.729c.511 10.302 0 400.544 0 400.544h27.229l41.649-256.455c.526-8.314 8.117-100.232 8.117-100.232l-47.935-49.24z" fill="#b45e00"/><path d="m272.509 277.948s31.197 199.601 31.197 207.726-51.079 192.261-51.079 192.261h-26.207l22.294-212.3-76.438-179.593" fill="#ff8600"/><path d="m142.682 202.438c-1.422 2.067-10.373 22.947-9.697 31.166 1.037 12.574 9.666 19.528 24.424 27.159 4.243 0 8.769-49.012 8.769-49.012l-13.272-9.313z" fill="#de8e68"/><path d="m172.277 147.908c-19.874 15.355-36.73 45.578-33.453 51.142 1.571 2.601 9.76 7.237 19.111 11.449" fill="#22385b"/><path d="m253.436 66.0632c5.782-23.6644-4.644-46.5408-23.287-51.0958-18.644-4.5551-38.444 10.9361-44.226 34.6005s4.644 46.5407 23.287 51.0961c18.644 4.555 38.444-10.9365 44.226-34.6008z" fill="#de8e68"/><path d="m217.485 109.787c44.203 0 62.261 158.502 55.008 168.167-9.894 13.187-80.681 23.803-110.016 2.782-11.284-8.055-12.998-170.949 55.008-170.949z" fill="#2b4570"/><path d="m162.462 681.274v18.727h63.958v-10.578l-36.729-8.149" fill="#000"/><path d="m226.42 677.934v22.066h66.984v-8.582l-40.745-13.484" fill="#000"/><path d="m280.179 192.302c1.242 1.32 11.984 16.997 13.485 20.345 2.994-2.554 99.14-83.164 100.719-84.257 1.58-1.092 4.315-.998 5.383-.275.867.567 1.495 1.433 1.766 2.432s.165 2.063-.296 2.99c-.849 1.572-12.801 12.086-12.801 12.086.974 1.218 5.964 13.87-.425 19.811-4.345 4.047-9.272 5.391-14.011 2.884-3.143 3.403-78.284 86.441-91.392 86.441-6.066 0-26.875-21.351-36.258-37.437" fill="#de8e68"/><path d="m213.745 156.923c0 25.932 20.432 62.08 27.504 62.08 7.073 0 42.435-25.932 42.435-32.219 0-6.286-27.504-52.65-51.079-52.65-9.43 0-18.86 10.216-18.86 22.789z" fill="#22385b"/><path d="m211.387 53.1997c13.548.1021 38.144-26.4746 38.144-27.504 0-2.3575-4.18-14.8129-28.439-14.8129-17.327 0-44.588 12.1332-44.588 51.9825 0 20.518-8.023 42.4347-8.023 52.3357 0 15.049 12.125 24.534 31.276 24.534 9.249 0 23.158-4.558 23.158-12.039 0-10.939 11.222-46.4816-10.215-54.222" fill="#000"/><path d="m215.143 72.3911c-1.284.8345-2.782 1.2819-4.314 1.2887-4.896 0-8.864-4.5892-8.864-10.255 0-5.6659 3.968-10.2158 8.864-10.2158.916-.0008 1.826.1588 2.688.4715" fill="#de8e68"/><g fill="#2b4570"><path d="m573.913 0h-155.601v115.03h155.601z"/><path d="m496.109 280.399c36.586 0 66.245-29.659 66.245-66.245 0-36.587-29.659-66.246-66.245-66.246-36.587 0-66.246 29.659-66.246 66.246 0 36.586 29.659 66.245 66.246 66.245z"/></g></svg>