<svg fill="none" height="50" viewBox="0 0 50 50" width="50" xmlns="http://www.w3.org/2000/svg"><g fill="#ee7d00"><path d="m37.3047 48.0469h-34.37501c-.53864 0-.97657-.438-.97657-.9766v-44.14061c0-.53864.43793-.97657.97657-.97657h1.95312c.5394 0 .97657-.43716.97657-.976558s-.43717-.976562-.97657-.976562h-1.95312c-1.61553 0-2.92969 1.31416-2.92969 2.92969v44.14061c0 1.6155 1.31416 2.9297 2.92969 2.9297h34.37501c.539 0 .9765-.4372.9765-.9766s-.4371-.9765-.9765-.9765z"/><path d="m47.0703 0h-34.375c-.5394 0-.9765.437164-.9765.976562s.4371.976558.9765.976558h34.375c.5386 0 .9766.43793.9766.97657v44.14061c0 .5386-.438.9766-.9766.9766h-1.9531c-.5394 0-.9766.4371-.9766.9765s.4372.9766.9766.9766h1.9531c1.6155 0 2.9297-1.3145 2.9297-2.9297v-44.14061c0-1.61553-1.3142-2.92969-2.9297-2.92969z"/><path d="m12.0361 17.2607c2.8405 0 5.1514-2.3109 5.1514-5.1513 0-2.84083-2.3109-5.15139-5.1514-5.15139-2.84077 0-5.15133 2.31094-5.15133 5.15139 0 2.8404 2.31056 5.1513 5.15133 5.1513zm0-8.34957c1.7636 0 3.1983 1.43467 3.1983 3.19827 0 1.7635-1.4347 3.1982-3.1983 3.1982-1.7635 0-3.19821-1.4347-3.19821-3.1982 0-1.7636 1.43471-3.19827 3.19821-3.19827z"/><path d="m33.6182 17.749c-2.1584 0-4.2416.7508-5.9082 2.0775v-.6126c0-.5394-.4376-.9766-.9766-.9766h-6.8115c-.5394 0-.9766.4372-.9766.9766v22.8515c0 .5394.4372.9766.9766.9766h7.1777c.539 0 .9766-.4372.9766-.9766v-13.1897c0-1.6288 1.3252-2.9541 2.9541-2.9541 1.6288 0 2.9541 1.3253 2.9541 2.9541v13.1897c0 .5394.4371.9766.9765.9766h7.1778c.539 0 .9765-.4372.9765-.9766v-14.8193c0-5.2368-4.2606-9.4971-9.497-9.4971zm7.5439 23.3399h-5.2246v-12.2132c0-2.7057-2.2015-4.9072-4.9072-4.9072-2.7062 0-4.9073 2.2015-4.9073 4.9072v12.2132h-5.2246v-20.8985h4.8584v2.052c0 .4226.2716.7972.6737.9285.4013.1308.8423-.0115 1.0914-.3529 1.4244-1.9508 3.7033-3.1159 6.0963-3.1159 4.1595 0 7.5439 3.3841 7.5439 7.544z"/><path d="m8.44727 18.2373c-.5394 0-.97657.4372-.97657.9766v22.8515c0 .5394.43717.9766.97657.9766h7.17773c.539 0 .9766-.4372.9766-.9766v-22.8515c0-.5394-.4376-.9766-.9766-.9766zm6.20113 22.8516h-5.22457v-20.8985h5.22457z"/><path d="m8.78944 1.95312c.53902 0 .97657-.43716.97657-.976558s-.43755-.976562-.97657-.976562h-.00076c-.5394 0-.97618.437164-.97618.976562s.43755.976558.97694.976558z"/><path d="m41.2113 48.0469h-.0007c-.5394 0-.9762.4371-.9762.9765s.4375.9766.9769.9766.9766-.4372.9766-.9766-.4372-.9765-.9766-.9765z"/></g></svg>