<svg width="50" height="50" fill="none" xmlns="http://www.w3.org/2000/svg"><path d="M37.305 48.047H2.93a.978.978 0 0 1-.977-.977V2.93c0-.539.438-.977.977-.977h1.953a.976.976 0 1 0 0-1.953H2.93A2.933 2.933 0 0 0 0 2.93v44.14A2.933 2.933 0 0 0 2.93 50h34.375a.977.977 0 0 0 0-1.953ZM47.07 0H12.695a.976.976 0 1 0 0 1.953H47.07c.539 0 .977.438.977.977v44.14a.978.978 0 0 1-.977.977h-1.953a.976.976 0 1 0 0 1.953h1.953A2.933 2.933 0 0 0 50 47.07V2.93A2.933 2.933 0 0 0 47.07 0Z" fill="#EE7D00"/><path d="M12.036 17.26c2.84 0 5.152-2.31 5.152-5.15 0-2.841-2.311-5.152-5.152-5.152a5.157 5.157 0 0 0-5.151 5.151c0 2.84 2.31 5.152 5.151 5.152Zm0-8.349a3.202 3.202 0 0 1 3.198 3.198 3.202 3.202 0 0 1-3.198 3.199 3.202 3.202 0 0 1-3.198-3.199 3.202 3.202 0 0 1 3.198-3.198ZM33.618 17.749c-2.158 0-4.241.75-5.908 2.078v-.613a.977.977 0 0 0-.977-.977h-6.811a.977.977 0 0 0-.977.977v22.851c0 .54.438.977.977.977H27.1a.977.977 0 0 0 .976-.977v-13.19a2.958 2.958 0 0 1 2.954-2.953 2.958 2.958 0 0 1 2.954 2.954v13.19c0 .539.438.976.977.976h7.178a.977.977 0 0 0 .976-.977V27.246c0-5.237-4.26-9.497-9.497-9.497Zm7.544 23.34h-5.224V28.876a4.913 4.913 0 0 0-4.908-4.908 4.913 4.913 0 0 0-4.907 4.908v12.213h-5.225V20.19h4.859v2.052a.977.977 0 0 0 1.765.576 7.583 7.583 0 0 1 6.096-3.116c4.16 0 7.544 3.384 7.544 7.544V41.09ZM8.447 18.237a.977.977 0 0 0-.976.977v22.851c0 .54.437.977.976.977h7.178a.977.977 0 0 0 .977-.977V19.214a.977.977 0 0 0-.977-.977H8.447Zm6.201 22.852H9.424V20.19h5.224V41.09ZM8.79 1.953A.977.977 0 0 0 8.79 0h-.001a.976.976 0 1 0 0 1.953ZM41.211 48.047a.976.976 0 1 0-.002 1.952.976.976 0 0 0 .002-1.952Z" fill="#EE7D00"/></svg>