<svg xmlns="http://www.w3.org/2000/svg" viewBox="0 0 83.87 68.4"><defs><style>.cls-1{fill:#00acd4;}.cls-2{fill:#1e425c;}.cls-3{fill:#ff8600;}</style></defs><title>original_samestart_logomark</title><g id="Layer_2" data-name="Layer 2"><g id="Layer_1-2" data-name="Layer 1"><path class="cls-1" d="M0,28.39A28.39,28.39,0,0,1,51.5,11.9,28.38,28.38,0,0,0,32.39,56.5a27.8,27.8,0,0,1-4,.29A28.4,28.4,0,0,1,0,28.39Z"/><polygon class="cls-1" points="28.39 0 0 0 0 28.39 28.39 0"/><path class="cls-2" d="M27.1,40A28.38,28.38,0,0,1,51.5,11.9,28.38,28.38,0,0,1,32.39,56.5,28.22,28.22,0,0,1,27.1,40Z"/><path class="cls-3" d="M56.76,28.39A28.21,28.21,0,0,0,51.48,11.9a27.76,27.76,0,0,1,4-.28A28.39,28.39,0,1,1,32.36,56.5,28.38,28.38,0,0,0,56.76,28.39Z"/><polygon class="cls-3" points="53.15 68.4 83.52 68.4 83.52 38.03 53.15 68.4"/></g></g></svg>