<svg width="84" height="69" fill="none" xmlns="http://www.w3.org/2000/svg"><path d="M0 28.39A28.39 28.39 0 0 1 51.5 11.9a28.38 28.38 0 0 0-19.11 44.6 27.8 27.8 0 0 1-4 .29A28.4 28.4 0 0 1 0 28.39Z" fill="#00ACD4"/><path d="M28.39 0H0v28.39L28.39 0Z" fill="#00ACD4"/><path d="M27.1 40a28.38 28.38 0 0 1 24.4-28.1 28.38 28.38 0 0 1-19.11 44.6A28.22 28.22 0 0 1 27.1 40Z" fill="#2B4570"/><path d="M56.76 28.39a28.21 28.21 0 0 0-5.28-16.49 27.765 27.765 0 0 1 4-.28A28.39 28.39 0 1 1 32.36 56.5a28.38 28.38 0 0 0 24.4-28.11Z" fill="#FF8600"/><path d="M53.15 68.4h30.37V38.03L53.15 68.4Z" fill="#FF8600"/></svg>