<svg fill="none" height="69" viewBox="0 0 84 69" width="84" xmlns="http://www.w3.org/2000/svg"><path d="m0 28.39c-.00000064-6.0161 1.91116-11.8768 5.45777-16.7363 3.54661-4.85962 8.54533-8.46691 14.27493-10.3015 5.7296-1.83458 11.8938-1.801599 17.6035.09419 5.7096 1.89578 10.6694 5.55636 14.1638 10.45361-4.8281.6839-9.3985 2.6003-13.2705 5.5643s-6.915 6.8757-8.8355 11.3579-2.6537 9.3836-2.129 14.2315c.5248 4.848 2.2899 9.4789 5.125 13.4463-1.3246.1928-2.6614.2898-4 .29-7.5304-.0026-14.7515-2.996-20.07537-8.3217s-8.31463047-12.5479-8.31463-20.0783z" fill="#00acd4"/><path d="m28.39 0h-28.39v28.39z" fill="#00acd4"/><path d="m27.0997 40.0004c-.0002-6.8374 2.4682-13.445 6.9511-18.6077s10.679-8.5334 17.4489-9.4923c2.8351 3.9674 4.6001 8.5983 5.1249 13.4463.5248 4.8479-.2084 9.7493-2.1289 14.2315s-4.9635 8.3939-8.8355 11.3579-8.4425 4.8804-13.2705 5.5643c-3.45-4.8092-5.3006-10.5814-5.29-16.5z" fill="#2b4570"/><g fill="#ff8600"><path d="m56.7603 28.3892c.0121-5.9142-1.8349-11.6827-5.2799-16.49 1.3248-.1896 2.6616-.2832 4-.28 4.8673.0017 9.6525 1.2548 13.896 3.639s7.8028 5.8193 10.336 9.9755c2.5332 4.1563 3.9553 8.894 4.1297 13.7582.1744 4.8643-.9047 9.6917-3.1338 14.0187-2.229 4.327-5.5331 8.0082-9.595 10.6902-4.0618 2.6819-8.745 4.2745-13.5997 4.6248-4.8548.3503-9.7181-.5534-14.1229-2.6245-4.4048-2.071-8.2032-5.2397-11.0303-9.2019 6.7715-.9591 12.9689-4.3313 17.4521-9.496 4.4831-5.1648 6.9504-11.7749 6.9478-18.614z"/><path d="m53.1504 68.3993h30.37v-30.37z"/></g></svg>