<svg fill="none" height="60" viewBox="0 0 60 60" width="60" xmlns="http://www.w3.org/2000/svg" xmlns:xlink="http://www.w3.org/1999/xlink"><clipPath id="a"><path d="m0 0h60v60h-60z"/></clipPath><g clip-path="url(#a)"><path d="m56.923 10h-53.84601c-1.69242 0-3.07699 1.3846-3.07699 3.0769v33.8462c0 1.6922 1.38457 3.077 3.07699 3.077h53.84611c1.6922 0 3.077-1.3846 3.077-3.077v-33.8462c-.0001-1.6923-1.3847-3.0769-3.0771-3.0769zm-1.1546 2.3075-23.9984 18.0003c-.4315.3283-1.0938.5338-1.7701.5307-.6762.0031-1.3384-.2024-1.77-.5307l-23.99838-18.0003zm-12.8192 19.188 13.077 16.1539c.0131.0162.0292.0285.0431.0431h-52.1386c.01383-.0153.03-.0269.04313-.0431l13.07697-16.1539c.4006-.4954.3247-1.2216-.1716-1.6232-.4953-.4007-1.2215-.3247-1.6223.1707l-12.94924 15.9963v-32.2894l24.53834 18.4038c.9224.687 2.0446.9893 3.1538.9924 1.1076-.0024 2.2307-.3047 3.1537-.9924l24.5384-18.4038v32.2891l-12.9489-15.996c-.4008-.4953-1.1277-.5715-1.6223-.1707-.4962.4007-.5724 1.1278-.1715 1.6232z" fill="#ee7d00"/></g></svg>