<svg xmlns="http://www.w3.org/2000/svg" xmlns:xlink="http://www.w3.org/1999/xlink" viewBox="0 0 650 650"><defs><style>.cls-1{fill:url(#Безымянный_градиент_263);}.cls-2{fill:url(#Безымянный_градиент_5);}.cls-18,.cls-27,.cls-3,.cls-34,.cls-36,.cls-5{fill:none;stroke-miterlimit:10;}.cls-3{stroke-width:0.73px;stroke:url(#Безымянный_градиент_10);}.cls-4{fill:url(#Безымянный_градиент_17);}.cls-5{stroke-width:2.1px;stroke:url(#Безымянный_градиент_164);}.cls-6{fill:url(#Безымянный_градиент_5-2);}.cls-7{fill:url(#Безымянный_градиент_5-3);}.cls-8{fill:url(#Безымянный_градиент_5-4);}.cls-9{fill:url(#Безымянный_градиент_5-5);}.cls-10{fill:url(#Безымянный_градиент_5-6);}.cls-11{fill:url(#Безымянный_градиент_5-7);}.cls-12{fill:url(#Безымянный_градиент_18);}.cls-13{fill:url(#Безымянный_градиент_33);}.cls-14{fill:url(#Безымянный_градиент_33-2);}.cls-15{fill:url(#Безымянный_градиент_33-3);}.cls-16{fill:url(#Безымянный_градиент_17-2);}.cls-17{fill:url(#Безымянный_градиент_33-4);}.cls-18{stroke-width:1.22px;stroke:url(#Безымянный_градиент_33-5);}.cls-19{fill:url(#Безымянный_градиент_33-6);}.cls-20{fill:url(#Безымянный_градиент_17-3);}.cls-21{fill:url(#Безымянный_градиент_33-7);}.cls-22{fill:url(#Безымянный_градиент_11);}.cls-23{fill:url(#Безымянный_градиент_16);}.cls-24{fill:#1f1844;}.cls-25{fill:#737cbd;}.cls-26{fill:#f0eff3;}.cls-27{stroke:#fff;stroke-width:6px;}.cls-28{fill:#fff;}.cls-29{fill:#353483;}.cls-30{fill:url(#Безымянный_градиент_40);}.cls-31{fill:url(#Безымянный_градиент_170);}.cls-32{fill:url(#Безымянный_градиент_123);}.cls-33{fill:#191337;}.cls-34{stroke:#353483;}.cls-34,.cls-36{stroke-linecap:round;stroke-width:5.94px;}.cls-35{fill:url(#Безымянный_градиент_170-2);}.cls-36{stroke:#d4d9f6;}.cls-37{fill:url(#Безымянный_градиент_170-3);}.cls-38{fill:url(#Безымянный_градиент_7);}.cls-39{fill:url(#Безымянный_градиент_123-2);}.cls-40{fill:url(#Безымянный_градиент_9);}.cls-41{fill:url(#Безымянный_градиент_123-3);}.cls-42{fill:url(#Безымянный_градиент_18-2);}.cls-43{fill:url(#Безымянный_градиент_271);}.cls-44{fill:url(#Безымянный_градиент_269);}.cls-45{fill:url(#Безымянный_градиент_123-4);}.cls-46{fill:url(#Безымянный_градиент_5-8);}.cls-47{fill:url(#Безымянный_градиент_18-3);}.cls-48{fill:url(#Безымянный_градиент_123-5);}.cls-49{fill:url(#Безымянный_градиент_48);}.cls-50{fill:url(#Безымянный_градиент_123-6);}.cls-51{fill:url(#Безымянный_градиент_5-9);}.cls-52{fill:url(#Безымянный_градиент_18-4);}.cls-53{fill:#464b8b;}.cls-54{fill:url(#Безымянный_градиент_5-10);}.cls-55{fill:url(#Безымянный_градиент_18-5);}.cls-56{fill:url(#Безымянный_градиент_40-2);}.cls-57{fill:url(#Безымянный_градиент_170-4);}.cls-58{fill:url(#Безымянный_градиент_140);}.cls-59{fill:url(#Безымянный_градиент_139);}</style><linearGradient id="Безымянный_градиент_263" x1="9.89" y1="327.25" x2="636.4" y2="327.25" gradientUnits="userSpaceOnUse"><stop offset="0" stop-color="#f0f2f5"/><stop offset="0.99" stop-color="#f5f7f8"/></linearGradient><linearGradient id="Безымянный_градиент_5" x1="55.15" y1="508.32" x2="35.86" y2="361.96" gradientUnits="userSpaceOnUse"><stop offset="0" stop-color="#1f1844"/><stop offset="0.99" stop-color="#3d3c99"/></linearGradient><linearGradient id="Безымянный_градиент_10" x1="54.17" y1="504.55" x2="37.21" y2="375.81" gradientUnits="userSpaceOnUse"><stop offset="0" stop-color="#3f3d9e"/><stop offset="0.99" stop-color="#423e9f"/></linearGradient><linearGradient id="Безымянный_градиент_17" x1="64.06" y1="454.48" x2="135.63" y2="438.04" gradientUnits="userSpaceOnUse"><stop offset="0.01" stop-color="#bbc0d9"/><stop offset="1" stop-color="#d6dbf8"/></linearGradient><linearGradient id="Безымянный_градиент_164" x1="120.78" y1="875.89" x2="175.54" y2="885.92" gradientTransform="translate(-206.96 -373.52) rotate(-10.18)" gradientUnits="userSpaceOnUse"><stop offset="0" stop-color="#bac6d8"/><stop offset="0.99" stop-color="#d6dbf8"/></linearGradient><linearGradient id="Безымянный_градиент_5-2" x1="53.78" y1="457.48" x2="31.84" y2="435.92" xlink:href="#Безымянный_градиент_5"/><linearGradient id="Безымянный_градиент_5-3" x1="53.09" y1="475.6" x2="27.55" y2="466.71" xlink:href="#Безымянный_градиент_5"/><linearGradient id="Безымянный_градиент_5-4" x1="54.99" y1="457.43" x2="78.22" y2="439.15" xlink:href="#Безымянный_градиент_5"/><linearGradient id="Безымянный_градиент_5-5" x1="53.3" y1="475.64" x2="75.84" y2="464.84" xlink:href="#Безымянный_градиент_5"/><linearGradient id="Безымянный_градиент_5-6" x1="57.32" y1="492.6" x2="27.31" y2="489.01" xlink:href="#Безымянный_градиент_5"/><linearGradient id="Безымянный_градиент_5-7" x1="53.99" y1="494.71" x2="74.5" y2="482.18" xlink:href="#Безымянный_градиент_5"/><linearGradient id="Безымянный_градиент_18" x1="61.68" y1="410.15" x2="54.67" y2="438.84" gradientUnits="userSpaceOnUse"><stop offset="0.01" stop-color="#3d3c99"/><stop offset="1" stop-color="#1f1844"/></linearGradient><linearGradient id="Безымянный_градиент_33" x1="-378.1" y1="2412.55" x2="-368.83" y2="2412.55" gradientTransform="translate(-1411.78 -1513.42) rotate(-45.37)" gradientUnits="userSpaceOnUse"><stop offset="0" stop-color="#e0e4eb"/><stop offset="0.99" stop-color="#f3f6fd"/></linearGradient><linearGradient id="Безымянный_градиент_33-2" x1="-1312.35" y1="3316.9" x2="-1302.99" y2="3316.9" gradientTransform="translate(-2719.04 -1785.87) rotate(-72.22)" xlink:href="#Безымянный_градиент_33"/><linearGradient id="Безымянный_градиент_33-3" x1="-1313.62" y1="-1375.2" x2="-1304.34" y2="-1375.2" gradientTransform="matrix(0.63, 0.78, -0.78, 0.63, -178.19, 2327.55)" xlink:href="#Безымянный_градиент_33"/><linearGradient id="Безымянный_градиент_17-2" x1="66.78" y1="474.68" x2="76.45" y2="464.75" xlink:href="#Безымянный_градиент_17"/><linearGradient id="Безымянный_градиент_33-4" x1="-1686.67" y1="-1798.35" x2="-1677.16" y2="-1798.35" gradientTransform="matrix(0.5, 0.87, -0.77, 0.45, -477.27, 2723.75)" xlink:href="#Безымянный_градиент_33"/><linearGradient id="Безымянный_градиент_33-5" x1="108.91" y1="1031.44" x2="122.57" y2="1031.44" gradientTransform="translate(-292.68 -505.49) rotate(-13.38)" xlink:href="#Безымянный_градиент_33"/><linearGradient id="Безымянный_градиент_33-6" x1="-1884.11" y1="3561.65" x2="-1874.39" y2="3561.65" gradientTransform="matrix(0.04, -0.93, 1, 0.04, -3459.99, -1409.96)" xlink:href="#Безымянный_градиент_33"/><linearGradient id="Безымянный_градиент_17-3" x1="67" y1="490.25" x2="76.65" y2="479.55" xlink:href="#Безымянный_градиент_17"/><linearGradient id="Безымянный_градиент_33-7" x1="-2068.29" y1="-2223.92" x2="-2057.77" y2="-2223.92" gradientTransform="matrix(0.35, 0.94, -0.74, 0.28, -865.11, 3028.3)" xlink:href="#Безымянный_градиент_33"/><linearGradient id="Безымянный_градиент_11" x1="63.19" y1="409.74" x2="56.17" y2="438.43" gradientUnits="userSpaceOnUse"><stop offset="0" stop-color="#e6eaf1"/><stop offset="0.99" stop-color="#f3f6fd"/></linearGradient><linearGradient id="Безымянный_градиент_16" x1="34.5" y1="535.63" x2="87.97" y2="523.34" gradientUnits="userSpaceOnUse"><stop offset="0.11" stop-color="#8988d5"/><stop offset="0.56" stop-color="#9d9ce8"/><stop offset="1" stop-color="#a7a5ee"/></linearGradient><linearGradient id="Безымянный_градиент_40" x1="-4642.95" y1="484.35" x2="-4569.87" y2="484.35" gradientTransform="matrix(-1, 0, 0, 1, -4299.17, 0)" gradientUnits="userSpaceOnUse"><stop offset="0.11" stop-color="#343381"/><stop offset="0.56" stop-color="#3d3c99"/><stop offset="1" stop-color="#403da0"/></linearGradient><linearGradient id="Безымянный_градиент_170" x1="-4635.08" y1="485.33" x2="-4577.82" y2="485.33" gradientTransform="matrix(-1, 0, 0, 1, -4299.17, 0)" gradientUnits="userSpaceOnUse"><stop offset="0.01" stop-color="#bbbfd9"/><stop offset="1" stop-color="#d6dbf8"/></linearGradient><linearGradient id="Безымянный_градиент_123" x1="-4662.29" y1="1411.36" x2="-4631.93" y2="1411.36" gradientTransform="matrix(-0.95, 0.32, 0.32, 0.95, -4533.28, 680.13)" gradientUnits="userSpaceOnUse"><stop offset="0" stop-color="#753200"/><stop offset="1" stop-color="#a04400"/></linearGradient><linearGradient id="Безымянный_градиент_170-2" x1="-4627.88" y1="397.29" x2="-4502.27" y2="397.29" xlink:href="#Безымянный_градиент_170"/><linearGradient id="Безымянный_градиент_170-3" x1="-4568.56" y1="555.22" x2="-4553.22" y2="555.22" xlink:href="#Безымянный_градиент_170"/><linearGradient id="Безымянный_градиент_7" x1="-4650.16" y1="481.1" x2="-4629.16" y2="476.14" gradientTransform="matrix(-1, 0, 0, 1, -4299.17, 0)" gradientUnits="userSpaceOnUse"><stop offset="0.05" stop-color="#f7e5e3"/><stop offset="1" stop-color="#f7d6d2"/></linearGradient><linearGradient id="Безымянный_градиент_123-2" x1="-4640.65" y1="1407.75" x2="-4610.28" y2="1407.75" xlink:href="#Безымянный_градиент_123"/><linearGradient id="Безымянный_градиент_9" x1="-4616.63" y1="475.35" x2="-4586.92" y2="472.23" xlink:href="#Безымянный_градиент_7"/><linearGradient id="Безымянный_градиент_123-3" x1="345.34" y1="345.9" x2="424.13" y2="345.9" gradientTransform="matrix(1, 0, 0, 1, 0, 0)" xlink:href="#Безымянный_градиент_123"/><linearGradient id="Безымянный_градиент_18-2" x1="-4690.94" y1="378.37" x2="-4537.49" y2="357.27" gradientTransform="matrix(-1, 0, 0, 1, -4299.17, 0)" xlink:href="#Безымянный_градиент_18"/><linearGradient id="Безымянный_градиент_271" x1="-4605.89" y1="367.78" x2="-4558.95" y2="361.33" gradientTransform="matrix(-1, 0, 0, 1, -4299.17, 0)" gradientUnits="userSpaceOnUse"><stop offset="0.01" stop-color="#bbbfd9"/><stop offset="0.29" stop-color="#cacde2"/><stop offset="0.84" stop-color="#f2f3f8"/><stop offset="1" stop-color="#fff"/></linearGradient><linearGradient id="Безымянный_градиент_269" x1="-4597.04" y1="343.55" x2="-4573.12" y2="340.26" gradientTransform="matrix(-1, 0, 0, 1, -4299.17, 0)" gradientUnits="userSpaceOnUse"><stop offset="0" stop-color="#fff"/><stop offset="0.16" stop-color="#f2f3f8"/><stop offset="0.71" stop-color="#cacde2"/><stop offset="0.99" stop-color="#bbbfd9"/></linearGradient><linearGradient id="Безымянный_градиент_123-4" x1="-4605.9" y1="399.25" x2="-4607.11" y2="418.27" gradientTransform="matrix(-1, 0, 0, 1, -4299.17, 0)" xlink:href="#Безымянный_градиент_123"/><linearGradient id="Безымянный_градиент_5-8" x1="-4547.61" y1="251.07" x2="-4555.17" y2="369.4" gradientTransform="matrix(-1, 0, 0, 1, -4299.17, 0)" xlink:href="#Безымянный_градиент_5"/><linearGradient id="Безымянный_градиент_18-3" x1="-4591.44" y1="335.71" x2="-4572.27" y2="335.71" gradientTransform="matrix(-1, 0, 0, 1, -4299.17, 0)" xlink:href="#Безымянный_градиент_18"/><linearGradient id="Безымянный_градиент_123-5" x1="-4661.89" y1="724.62" x2="-4609.57" y2="700.4" gradientTransform="matrix(-0.99, 0.17, 0.17, 0.99, -4409.98, 384.4)" xlink:href="#Безымянный_градиент_123"/><linearGradient id="Безымянный_градиент_48" x1="-4608.72" y1="712.03" x2="-4627.22" y2="730.18" gradientTransform="matrix(-0.99, 0.17, 0.17, 0.99, -4409.98, 384.4)" gradientUnits="userSpaceOnUse"><stop offset="0" stop-color="#a04400"/><stop offset="1" stop-color="#753200"/></linearGradient><linearGradient id="Безымянный_градиент_123-6" x1="-4608.77" y1="699.11" x2="-4611.15" y2="701.46" gradientTransform="matrix(-0.99, 0.17, 0.17, 0.99, -4409.98, 384.4)" xlink:href="#Безымянный_градиент_123"/><linearGradient id="Безымянный_градиент_5-9" x1="-4570.57" y1="334.53" x2="-4534.46" y2="334.53" gradientTransform="matrix(-1, 0, 0, 1, -4299.17, 0)" xlink:href="#Безымянный_градиент_5"/><linearGradient id="Безымянный_градиент_18-4" x1="-4570.19" y1="331.9" x2="-4535.73" y2="331.9" gradientTransform="matrix(-1, 0, 0, 1, -4299.17, 0)" xlink:href="#Безымянный_градиент_18"/><linearGradient id="Безымянный_градиент_5-10" x1="-4558.03" y1="378.85" x2="-4544.82" y2="378.85" gradientTransform="matrix(-1, 0, 0, 1, -4299.17, 0)" xlink:href="#Безымянный_градиент_5"/><linearGradient id="Безымянный_градиент_18-5" x1="-4601.79" y1="381.32" x2="-4591.8" y2="379.95" gradientTransform="matrix(-1, 0, 0, 1, -4299.17, 0)" xlink:href="#Безымянный_градиент_18"/><linearGradient id="Безымянный_градиент_40-2" x1="-4546.16" y1="492.08" x2="-4473.08" y2="492.08" xlink:href="#Безымянный_градиент_40"/><linearGradient id="Безымянный_градиент_170-4" x1="-4538.29" y1="493.13" x2="-4481.03" y2="493.13" xlink:href="#Безымянный_градиент_170"/><linearGradient id="Безымянный_градиент_140" x1="-4621.74" y1="689.23" x2="-4649.53" y2="702.44" gradientTransform="matrix(-0.99, 0.17, 0.17, 0.99, -4409.98, 384.4)" gradientUnits="userSpaceOnUse"><stop offset="0.1" stop-color="#753200"/><stop offset="0.48" stop-color="#8a3b00" stop-opacity="0.52"/><stop offset="0.82" stop-color="#9a4100" stop-opacity="0.14"/><stop offset="1" stop-color="#a04400" stop-opacity="0"/></linearGradient><linearGradient id="Безымянный_градиент_139" x1="1184.31" y1="107.27" x2="1245.2" y2="107.27" gradientTransform="matrix(0.98, 0.04, -0.04, 0.98, -914.52, 113.09)" gradientUnits="userSpaceOnUse"><stop offset="0" stop-color="#201f4f"/><stop offset="0.26" stop-color="#27275a"/><stop offset="0.72" stop-color="#393c76"/><stop offset="1" stop-color="#464b8b"/></linearGradient></defs><title>1</title><g id="Слой_2" data-name="Слой 2"><path class="cls-1" d="M615,339.74C560,227.27,402.63,62.53,198.16,62.11c-213.36-.44-234,211.17-119,270S26,464.24,146.22,537.9c121.66,74.56,381.67,67.56,445.67,9.56S638.77,388.33,615,339.74Z"/><path class="cls-2" d="M55.36,509.36s21.23-23.63,19-32.95,10.92-20.63,11.18-34.19c.29-15.36-7.92-11.26-10.76-17.83-4.21-9.74,5.16-18.36-9-22.09-9.68-2.54-16.48,2.42-15.6-9.55S46.7,366,38.95,360.58c-11.08-7.68-33.61-8.29-26,7.2,8,16.28.95,43.09-.91,50.43C-7.63,495.8,55.36,509.36,55.36,509.36Z"/><path class="cls-3" d="M31.68,376.55c2.43,20,27.55,52,16.17,73.43s5.87,54.5,5.87,54.5"/><path class="cls-4" d="M119.7,464.61c-13.79,4.87,1.14,22.71-13.94,30.74s-34.41,12.11-35.29,8.21c-.06-.26-.87-2.85-1.73-6.63-.2-.87-.39-1.82-.59-2.81,0-.28-.1-.56-.16-.84a76.31,76.31,0,0,1-1.14-9.13c0-.09,0-.19,0-.28-.07-1.22-.09-2.44-.07-3.66s.09-2.34.21-3.48c.45-4.34,1.69-8.34,4.23-11.21a12,12,0,0,1,2.2-2C83.88,456.26,88.07,459.8,88,449c-.14-18.46,5.12-21.22,11.3-19.39s11,2.33,11.92-4.49-4.68-37.23,9.37-37.17c24.34.08,12,31.14,9.57,36.18-5.9,12.08,6.37,14,9.28,22.78S133.48,459.74,119.7,464.61Z"/><path class="cls-5" d="M67.77,530.08s-3.7-34,22.19-53c11.7-8.6,33.44-39.31,31.47-72.54"/><path class="cls-6" d="M31.46,435.59c3.22-5.45,26.34,17,22.29,22S28.4,440.78,31.46,435.59Z"/><path class="cls-7" d="M25.63,466.27c.46-6.35,28.38,2.78,26.94,9.06S25.19,472.32,25.63,466.27Z"/><path class="cls-8" d="M78.32,438.23c4.94,3.87-19.47,24.9-23.82,20.24S73.61,434.54,78.32,438.23Z"/><path class="cls-9" d="M75.76,464.72c4.16,4.7-19.41,16.51-23,11.18S71.81,460.25,75.76,464.72Z"/><path class="cls-10" d="M27.48,489.1c-1.22-5.83,29.55-2.47,29.82,3.53S28.64,494.65,27.48,489.1Z"/><path class="cls-11" d="M74.27,482.31c3.19,5.4-18.86,18.86-21.42,13S71.23,477.17,74.27,482.31Z"/><path class="cls-12" d="M62.1,409.36c6.21.45-1.82,31.75-8,30.3S56.19,408.93,62.1,409.36Z"/><path class="cls-13" d="M33.8,434.1c3.22-5.45,26.34,17,22.29,22S30.73,439.3,33.8,434.1Z"/><path class="cls-14" d="M27.49,465c.46-6.35,28.38,2.78,26.94,9.06S27,471,27.49,465Z"/><path class="cls-15" d="M79.27,436.84c4.94,3.87-19.47,24.9-23.82,20.24S74.55,433.15,79.27,436.84Z"/><path class="cls-16" d="M67.49,475.52c.43-4.26,1.62-8.19,4.06-11,3-.59,5.43-.47,6.51.75C80.37,467.87,74.11,472.68,67.49,475.52Z"/><path class="cls-17" d="M76.93,463.72c4.16,4.7-19.41,16.51-23,11.18S73,459.25,76.93,463.72Z"/><path class="cls-18" d="M55.8,432.28s.71,16.26-1.44,30.45,3.28,38.2,12.12,45.88"/><path class="cls-19" d="M27.48,488c-1.22-5.83,29.55-2.47,29.82,3.53S28.64,493.54,27.48,488Z"/><path class="cls-20" d="M68.61,492.61c0-.27-.1-.55-.15-.83a76.58,76.58,0,0,1-1.09-9c0-.09,0-.19,0-.28,5-2.78,10.39-4.18,11.8-1.78C80.95,483.79,74.8,489.35,68.61,492.61Z"/><path class="cls-21" d="M78,478.46c3.19,5.4-18.86,18.86-21.42,13S75,473.32,78,478.46Z"/><path class="cls-22" d="M63.61,408.94c6.21.45-1.82,31.75-8,30.3S57.69,408.51,63.61,408.94Z"/><path class="cls-23" d="M68.94,559.11H49.81a17.22,17.22,0,0,1-17.07-14.92L28,509a4,4,0,0,1,3.94-4.51H86.81A4,4,0,0,1,90.75,509L86,544.19A17.22,17.22,0,0,1,68.94,559.11Z"/><rect class="cls-24" x="369.56" y="126" width="214.33" height="443.86" rx="16.49" ry="16.49"/><rect class="cls-25" x="382.16" y="144.22" width="189.14" height="407.42" rx="12.18" ry="12.18"/><path class="cls-24" d="M430.84,137.8h91.77a0,0,0,0,1,0,0v0A19.19,19.19,0,0,1,503.42,157H450a19.19,19.19,0,0,1-19.19-19.19v0A0,0,0,0,1,430.84,137.8Z"/><rect class="cls-26" x="505.51" y="168.05" width="53.58" height="16.88" rx="4.2" ry="4.2"/><rect class="cls-26" x="396.64" y="200.78" width="63.18" height="18.01" rx="4.2" ry="4.2"/><rect class="cls-26" x="401.84" y="173.27" width="52.78" height="6.44" rx="3.22" ry="3.22"/><rect class="cls-26" x="401.95" y="229.42" width="149.55" height="225.42" rx="7.07" ry="7.07"/><rect class="cls-26" x="401.95" y="475.63" width="149.55" height="39.89" rx="7.07" ry="7.07"/><circle class="cls-27" cx="476.73" cy="301.71" r="54.78"/><rect class="cls-28" x="416.73" y="372.72" width="119.99" height="29.19" rx="7.41" ry="7.41"/><rect class="cls-28" x="416.73" y="413.91" width="119.99" height="29.19" rx="7.41" ry="7.41"/><polygon class="cls-29" points="281.85 554.68 281.85 564.38 295.57 569.33 325.43 565.37 325.43 557.45 295.57 560.7 281.85 554.68"/><polygon class="cls-29" points="307.89 553.09 307.89 562.79 321.61 567.74 351.47 563.78 351.47 555.85 321.61 559.11 307.89 553.09"/><path class="cls-30" d="M270.77,485.47c1.27,35.63,18.61,64,38.75,63.39s35.45-30,34.18-65.62-18.6-64-38.75-63.39S269.52,449.84,270.77,485.47Zm34.36-60.7c15.77-.48,29.51,26.24,30.69,59.69s-10.64,61-26.41,61.44-29.51-26.24-30.69-59.69S289.37,425.25,305.13,424.77Z"/><path class="cls-31" d="M278.73,486.2c1.18,33.45,14.93,60.17,30.69,59.69s27.59-28,26.41-61.44-14.93-60.17-30.69-59.69S277.54,452.75,278.73,486.2Zm26.55-57.28c14.69-.45,27.48,24.44,28.59,55.59s-9.91,56.77-24.59,57.21-27.48-24.44-28.59-55.59S290.6,429.38,305.28,428.93Z"/><path class="cls-32" d="M306.35,541.86a87.73,87.73,0,0,0,10.8,9.75c3.64,2.47,14.43,4.35,23.89-1.83a14.85,14.85,0,0,1-8.73-7.43c-3.08-6-5.39-9.23-6.22-15.33s-16.91-2.42-16.91-2.42S309.82,538,306.35,541.86Z"/><path class="cls-33" d="M305.85,538.76a50.77,50.77,0,0,0,12.44,8.55c4,1.83,9.31,4.42,19.18.48a3,3,0,0,0,.51-.34s13,5.41,13.64,6c1.22,1.13,3.21,3.7,1.45,6.5-.92,1.47-10.42,1.93-16.52,1.74-5.64-.17-26.9-6.53-26.9-6.53C302.25,551.39,302.58,546.34,305.85,538.76Z"/><line class="cls-34" x1="302.83" y1="409.69" x2="346.22" y2="414.34"/><path class="cls-35" d="M217.85,326.86h0a14.75,14.75,0,0,0-14.74,15.27l4.27,119.73s13,6.23,34.25,4.81,73.58,6.23,83.21-6.23-1.7-28.58-1.7-28.58l-19.81-2.55,1.93-87.38a14.75,14.75,0,0,0-14.74-15.07Z"/><path class="cls-36" d="M182.47,341.29s12.23-9.85,32.41-11.46"/><path class="cls-34" d="M283.66,554.68c-.85-.28-14.05-39.73-14.05-39.73S260,512.12,256,517.22s-1.1,4.64-15.25,3.51-39.06-5.66-39.06-5.66"/><circle class="cls-29" cx="261.72" cy="555.22" r="17.17"/><circle class="cls-37" cx="261.72" cy="555.22" r="7.67"/><path class="cls-38" d="M285.34,420.75c9.14-2.14,36.13-5.52,48.88-4.44,24,2,12.38,30.32,7.19,54.26l-.14-.2-12.7,63.78-21.3-2.24,3.07-86.39C303.54,436.19,291.35,420.77,285.34,420.75Z"/><path class="cls-39" d="M284.68,545.33a87.73,87.73,0,0,0,10.8,9.75c3.64,2.47,14.43,4.35,23.89-1.83a14.85,14.85,0,0,1-8.73-7.43c-3.08-6-5.39-9.23-6.22-15.33s-16.91-2.42-16.91-2.42S288.15,541.44,284.68,545.33Z"/><path class="cls-33" d="M284.18,542.23a50.77,50.77,0,0,0,12.44,8.55c4,1.83,9.31,4.42,19.18.48a3,3,0,0,0,.51-.34s13,5.41,13.64,6c1.22,1.13,3.21,3.7,1.45,6.5-.92,1.47-10.42,1.93-16.52,1.74-5.64-.17-26.9-6.53-26.9-6.53C280.58,554.86,280.91,549.81,284.18,542.23Z"/><path class="cls-40" d="M228.12,414.2l68.33-.91a74.1,74.1,0,0,1,13.31,2.77c.81,0,1.58.08,2.3.14,24,2,12.38,30.32,7.19,54.26l-.14-.2L306.42,534l-20-2.84,1.47-75.64c-11.65-1.09-28.8-3.27-40.13-7.25C219.08,438.23,228.12,414.2,228.12,414.2Z"/><path class="cls-41" d="M404.55,341.46c-.74-1.94-13.13,4.36-13.32,3-.11-.81,11.66-5.06,11-6.53s-6.8,1.61-10.81,2.76-8.61,1.06-9.85-.44,8.15-5.59,5.77-8c-1.22-1.23-15.39,10.35-15.39,10.35a13.52,13.52,0,0,0-2.41,3.12l-.1-.09c-6.74,4.84-24.08,6.37-24.08,6.37l3.49,7.7,24.4-3.38v0a63.16,63.16,0,0,0,11.35.48,52.48,52.48,0,0,0,9-2c3.77-1.12,8.66-2.63,7.95-4s-6.9,1.67-7.44.89,11.08-4.36,10.46-6-11.74,3.59-12,2.83S405.13,343,404.55,341.46Z"/><path class="cls-42" d="M275.17,312.15c15.6,2.22,16.66,8.29,22.88,17.9,2.43,3.76,16.59,14.84,22.77,19.58a8.69,8.69,0,0,0,6.45,1.72l30.64-4.09a2.27,2.27,0,0,1,2.49,1.65l2.17,7.86a3.66,3.66,0,0,1-2.68,4.53l-35.82,8.57a7.45,7.45,0,0,1-3.15.07l-18.08-3.5L303.7,412s-4,1.55-4,1.95h-14.1C286.35,384.22,287.39,339.77,275.17,312.15Z"/><path class="cls-43" d="M255.34,310.52l16.7,1.32,14.07,61.6c.09,8.73-.54,31.8-.76,40.53h-15C278.37,383.57,265.39,338.78,255.34,310.52Z"/><path class="cls-44" d="M273.08,311.92l0-3.28c.34,0,1.36.51,1.69.56,6.39,14.44,9.56,32.52,10.68,47.91.39,5.41.57,10.86.63,16.33L272,311.83Z"/><path class="cls-45" d="M306.06,411.69c18.55,6.89,18.65,13.36,18.43,14.62H304.9a13,13,0,0,1-7.51-2.31,18.66,18.66,0,0,0-5.36-2.65l2.18-11.9C299.36,410,304,410.82,306.06,411.69Z"/><path class="cls-46" d="M220.62,405.71c1.83,8.25,8,11.62,11.08,11.62l37.68,2.51,23.82,3.84,3.11-18.54c-7.7-3.23-14.65-3.8-23.22-5.38,5.5-38.32-10.59-70-17.89-90.57l-4.89,1.11s-9.11.35-19,11.18c-8.24,9-12.37,28.29-12.38,36.37C218.89,375.62,219.3,399.73,220.62,405.71Z"/><path class="cls-47" d="M273.1,308.13l14.86,7,3.76,9.6a12.37,12.37,0,0,1,0,7.3l-5.59,31.3S278.85,316.86,273.1,308.13Z"/><path class="cls-48" d="M254.11,312.95c0,2.55,12.5,10.13,19.52,15.47a2.12,2.12,0,0,0,3.37-2.09l-3-15.26-.1-3.44,0-1.42a16.35,16.35,0,0,0,2-.22c5.1-.85,13.07-4.37,15.37-12.72,1.61-5.82-.71-11.06-.87-14.45a34.17,34.17,0,0,1,.92-7.68c.2-1,.38-2.05.51-3.1a14.47,14.47,0,0,0-.4-5.61c-1.94-7.16-9-12.83-15.92-13.59-8.64-1-22.07,1.49-25.18,11.65a29.53,29.53,0,0,0-.44,13.17,28.86,28.86,0,0,0,.69,3.07,4.14,4.14,0,0,0-1,.64c-2.41,2-2.27,6.61,2.78,12.82l.18.22a30.42,30.42,0,0,1,.36,3.86c0,.2,0,.39,0,.6C253.44,308.54,254.11,312.95,254.11,312.95Z"/><path class="cls-49" d="M252.89,294.88a30.1,30.1,0,0,0,21.05,13.92v-2.58c-6.12-2.08-13.35-6.68-21.6-16l.18.22a30.36,30.36,0,0,1,.37,3.87C252.87,294.47,252.88,294.67,252.89,294.88Z"/><path class="cls-50" d="M253.86,280.73s-1.91-2.45-3.13-.5.9,5.15.9,5.15Z"/><path class="cls-51" d="M244.79,310.09l6.35,1.55s17.15,20.74,19.85,44.72c.08.72.44,2.1.42,2.6-12.17-21.77-36.11-37.63-36.11-37.63Z"/><path class="cls-52" d="M245,309.19l8.35-1.89S268.3,330.66,271,354.64a11.47,11.47,0,0,1,0,1.86c-8.38-23.69-34.41-37.7-34.41-37.7Z"/><path class="cls-53" d="M291.25,269.84a10.73,10.73,0,0,0-.38-1.55Z"/><path class="cls-54" d="M245.65,397.29l3-36.87a11.06,11.06,0,0,1,4.2,7.92c.33,5.21,6,28.94,6,28.94Z"/><polygon class="cls-55" points="292.49 363.3 297.24 397.21 291.63 396.08 292.49 363.3"/><path class="cls-56" d="M174,493.28c1.27,38.33,18.61,68.85,38.75,68.19s35.45-32.26,34.18-70.59-18.6-68.85-38.75-68.19S172.73,455,174,493.28ZM208.35,428c15.77-.52,29.51,28.23,30.69,64.21s-10.64,65.57-26.41,66.09-29.51-28.23-30.69-64.21S192.58,428.5,208.35,428Z"/><path class="cls-57" d="M181.94,494.07c1.18,36,14.93,64.73,30.69,64.21s27.59-30.11,26.41-66.09S224.11,427.46,208.35,428,180.75,458.09,181.94,494.07Zm26.55-61.62c14.69-.48,25.5,26.3,26.6,59.8s-7.92,61.07-22.6,61.55-25.12-26.29-26.22-59.8S193.81,432.94,208.49,432.46Z"/><path class="cls-34" d="M261.15,553.84l13.3-11L271.94,432a14.18,14.18,0,0,0-13.86-13.85l-33.93-.77a14.18,14.18,0,0,0-14.51,14.18v82.14"/><path class="cls-58" d="M258.93,284.19c4-4,8.05-9.89,11.59-11.1,7.34-2.51,15.95-1.17,20.79-2,.2-1,.38-2.05.51-3.1a14.47,14.47,0,0,0-.4-5.61,3.45,3.45,0,0,0-.58-.49c-17.69,11.08-36-7.53-39.26,3.49C250.87,267.87,257.4,278.74,258.93,284.19Z"/><path class="cls-59" d="M284.15,242.41c-8.26,3.48-6.82-8-14.17-4.4-4.85,2.39-6.19,3.1-10.66,3s-11.57,2.43-13,7.24c-.79,2.69.47,2.51-2.11,4.92-1,.92-4.26,2.13-4.17,5.87s-.38-.09-1.85,7.31c-.22,1.13-.8,6.55,1.68,7.73,2.9,1.39-1.18,4.7.65,7.34,5.42,7.83,5.51,13.67,13.15,19.7a84,84,0,0,0-.53-10.1c-3.79-6.61-5.31-8.05-4-11.44,2.52-6.6,9.8,4.58,9.8,4.58s.81-6.91,11.19-13.28c-5.27-.62,6.14-4.8,7.37-4.43,8.55,2.56,11.45,2.36,16.11.63,3.08-1.14,1.4-6.81,3.48-7.59,2.87-1.08-1.63-7.74-1.55-9.72C295.83,243,287.3,241.08,284.15,242.41Z"/></g></svg>