<svg width="40" height="30" fill="none" xmlns="http://www.w3.org/2000/svg"><g clip-path="url(#a)"><path d="M18.725 29.088c0 .459-4.197.508-9.362.83-5.161.323-9.363-.371-9.363-.83 0-.458 4.221-1.38 9.363-.83 5.165.554 9.362.372 9.362.83Z" fill="#E6E6E6"/><path d="M38.467 0H27.369a2.359 2.359 0 0 0-2.3 1.84L19.46 26.712a1.907 1.907 0 0 0 1.766 2.323l11.408.563a2.52 2.52 0 0 0 2.603-2.068l3.18-17.584.237.067.609-3.333-.244-.06.888-4.909A1.454 1.454 0 0 0 38.467 0Z" fill="#3F3D56"/><path d="M28.83.535h-1.295a1.63 1.63 0 0 0-1.592 1.283L20.56 26.487a1.01 1.01 0 0 0 .921 1.223l11.372.745a1.309 1.309 0 0 0 1.373-1.073l4.592-25.498A1.146 1.146 0 0 0 37.691.535h-1.23a.54.54 0 0 0-.521.4.478.478 0 0 1-.462.354h-5.834a.816.816 0 0 1-.813-.754Z" fill="#fff"/><path d="m16.658 13.225 1.003 1.985 2.998 1.363c.32.54 1.337.582 1.411.232.083-.392-1.235-1.024-1.235-1.024l-2.508-1.696-.22-1.46-1.449.6ZM16.777 26.545l-.185 1.48 1.072.073.111-1.553h-.998Z" fill="#A0616A"/><path d="M16.925 27.802a2.9 2.9 0 0 1-.264-.324c-.154-.212-.29.879-.29.879s-.148.444-.111.665c.037.222.887.222 1.035.185.148-.037.888 0 .888 0h1.11c.96-.443 0-.74 0-.74-.297-.036-1.295-.96-1.295-.96l-.222-.408c-.148-.037-.296.518-.296.518l-.555.185Z" fill="#2F2E41"/><path d="m14.003 26.563-.185 1.479 1.073.074.11-1.553h-.998Z" fill="#A0616A"/><path d="M14.152 27.822a2.91 2.91 0 0 1-.265-.324c-.153-.213-.29.878-.29.878s-.148.407-.11.629c.036.222.887.222 1.035.185.148-.037.887.037.887.037h1.11c.961-.444 0-.74 0-.74-.296-.037-1.294-.961-1.294-.961l-.222-.407c-.148-.037-.296.518-.296.518l-.555.185ZM15.223 17.024c-.147.184-.074.813-.074.813s-.258 2.034-.147 2.219c.11.185-.074.333-.185.592-.111.259-.222.887-.222.887-.629.518-.592 2.885-.592 2.885l-.222 2.108c.074.222 1.11.259 1.258.222.148-.037.591-3.366.591-3.366l.999-1.886s-.074 5.03-.074 5.252c0 .221.998.11 1.22.11.222 0 .222-3.698.222-3.698l.222-.961 1.183-4.4v-.518l-.185-.26s-3.846-.184-3.993 0Z" fill="#2F2E41"/><path d="M16.852 8.629a1.146 1.146 0 1 0 0-2.293 1.146 1.146 0 0 0 0 2.293Z" fill="#A0616A"/><path d="M17.424 8.02c-.232.517-.094 1.24.37 2.034l-1.886-.888.296-.259-.074-.74 1.294-.147Z" fill="#A0616A"/><path d="M17.423 9.202c.247.147.395.417.48.691a6.55 6.55 0 0 1 .281 1.565l.09 1.59 1.11 4.216c-.962.814-1.517.629-2.811-.037s-1.442.222-1.442.222-.111-.037 0-.148c.11-.111 0 0-.111-.111s0 0 .037-.111c.037-.11 0-.037-.037-.074s.148-.37.148-.37l-.296-2.773-.37-3.92c.444-.555 1.701-1.036 1.701-1.036l1.146.814c.37.148.074-.444.074-.444v-.074Z" fill="#6C63FF"/><path d="m13.892 12.29-.148 2.218 1.886 2.7c0 .628.333.776.333.776a4.89 4.89 0 0 0 .333-.629c.185-.406-.111-.74-.111-.74L14.89 13.88l.554-1.368-1.553-.222Z" fill="#A0616A"/><path d="M14.52 9.96c-.628.221-.739 2.625-.739 2.625.74-.407 1.627.259 1.627.259s.185-.63.407-1.443a1.414 1.414 0 0 0-.296-1.331s-.37-.333-.998-.11Z" fill="#6C63FF"/><path d="M15.797 7.833c.146-.116.345.096.345.096l.116-1.05s.73.087 1.197-.03c.467-.117.54.423.54.423.024-.218.03-.438.015-.657-.03-.262-.409-.525-1.08-.7-.672-.175-1.022.584-1.022.584-.467.233-.257 1.451-.111 1.334Z" fill="#2F2E41"/><path d="M35.283 17.782a.093.093 0 0 0 .095-.075l2.55-13.879a.092.092 0 0 0-.09-.109l-11.6-.135h-.001a.093.093 0 0 0-.09.072L23.14 17.084a.092.092 0 0 0 .085.112l12.057.586ZM25.188 18.668a.046.046 0 0 0-.044.036l-.108.459a.046.046 0 0 0 .023.05.047.047 0 0 0 .019.006l6.053.43a.047.047 0 0 0 .048-.037l.103-.531a.046.046 0 0 0-.024-.05.047.047 0 0 0-.018-.005l-6.049-.358h-.003ZM32.54 21.357a.046.046 0 0 0 .049-.035l.131-.533a.047.047 0 0 0-.041-.057l-7.73-.54a.046.046 0 0 0-.047.032l-.136.46a.046.046 0 0 0 .04.06l7.735.613ZM32.127 23.064a.046.046 0 0 0 .048-.035l.131-.533a.046.046 0 0 0-.041-.057l-7.73-.54a.045.045 0 0 0-.03.008.045.045 0 0 0-.017.024l-.136.46a.046.046 0 0 0 .02.054.046.046 0 0 0 .02.006l7.735.613Z" fill="#E6E6E6"/><path d="M28.568 25.99a.046.046 0 0 0 .049-.035l.277-1.11a.046.046 0 0 0-.007-.038.047.047 0 0 0-.034-.02l-4.746-.398a.047.047 0 0 0-.049.036l-.237 1.064a.045.045 0 0 0 .008.037c.004.006.009.01.015.013a.045.045 0 0 0 .018.006l4.706.444Z" fill="#6C63FF"/></g><defs><clipPath id="a"><path fill="#fff" d="M0 0h39.932v30H0z"/></clipPath></defs></svg>