<svg fill="none" height="30" viewBox="0 0 40 30" width="40" xmlns="http://www.w3.org/2000/svg" xmlns:xlink="http://www.w3.org/1999/xlink"><clipPath id="a"><path d="m0 0h39.9316v30h-39.9316z"/></clipPath><g clip-path="url(#a)"><path d="m18.7251 29.0884c0 .4585-4.197.5073-9.36254.8301-5.16073.3226-9.36256-.3716-9.36256-.8301s4.22119-1.3811 9.36256-.8302c5.16554.5534 9.36254.3717 9.36254.8302z" fill="#e6e6e6"/><path d="m38.4668.00005002h-11.0974c-.5355-.00000059-1.0551.18219398-1.4733.51663398-.4183.334441-.7103.801226-.828 1.323626l-5.6074 24.87159c-.0611.2712-.0622.5526-.0031.8244.0591.2717.1769.5272.3452.7486.1682.2214.3829.4033.6289.533s.5174.204.7952.2176l11.4082.5621c.6109.0301 1.2119-.1631 1.6908-.5435s.803-.9221.9119-1.524l3.1808-17.58443.2366.06763.6086-3.33293-.2436-.0609.8879-4.90845c.038-.21024.0292-.42628-.0258-.63272-.0551-.20644-.155-.398195-.2926-.561597-.1377-.163401-.3097-.294424-.5037-.383729-.1941-.0893042-.4055-.13469099-.6192-.13292434z" fill="#3f3d56"/><path d="m28.8308.535157h-1.2954c-.372 0-.7328.12723-1.0226.360569-.2897.233334-.4909.558754-.5702.922214l-5.3823 24.66866c-.031.142-.0309.289.0001.4311.0311.142.0924.2756.1798.3918.0874.1161.1989.212.3268.2811s.2692.1098.4142.1193l11.3714.7453c.3208.021.6381-.0768.8914-.2748.2532-.198.4247-.4824.4817-.7988l4.5927-25.4974c.0297-.16503.0229-.33457-.0201-.49666-.0429-.16209-.1209-.31278-.2285-.441433-.1075-.128653-.242-.232134-.3939-.303141s-.3176-.107809-.4852-.107809h-1.2289c-.119 0-.2346.03921-.329.111559s-.1623.173802-.1932.288652c-.0273.101392-.0873.190962-.1706.254832-.0834.06387-.1855.09848-.2905.09848h-5.834c-.2056 0-.4036-.07761-.5545-.21731-.1508-.139705-.2434-.331206-.2592-.536214z" fill="#fff"/><path d="m16.6582 13.225 1.0026 1.9849 2.9979 1.3629c.3202.5411 1.3375.5825 1.4115.2326.083-.3925-1.2354-1.0243-1.2354-1.0243l-2.5075-1.696-.2194-1.4601z" fill="#a0616a"/><path d="m16.7767 26.5449-.1849 1.4793 1.0724.0739.111-1.5532z" fill="#a0616a"/><path d="m16.9255 27.8021c-.0959-.1014-.1843-.2096-.2646-.3237-.1537-.2127-.2901.8784-.2901.8784s-.1479.4438-.111.6656c.037.2219.8876.2219 1.0355.1849.1479-.0369.8876 0 .8876 0h1.1094c.9615-.4437 0-.7396 0-.7396-.2959-.037-1.2944-.9615-1.2944-.9615l-.2218-.4068c-.148-.037-.2959.5178-.2959.5178z" fill="#2f2e41"/><path d="m14.0033 26.5625-.1849 1.4792 1.0724.074.111-1.5532z" fill="#a0616a"/><path d="m14.1521 27.8216c-.0959-.1014-.1844-.2096-.2647-.3236-.1537-.2127-.2901.8783-.2901.8783s-.1479.4068-.1109.6287.8875.2219 1.0355.1849c.1479-.037.8875.037.8875.037h1.1094c.9615-.4438 0-.7397 0-.7397-.2958-.0369-1.2943-.9615-1.2943-.9615l-.2219-.4067c-.1479-.037-.2958.5177-.2958.5177z" fill="#2f2e41"/><path d="m15.2235 17.0236c-.1479.1849-.074.8136-.074.8136s-.2588 2.0339-.1479 2.2188c.111.1849-.0739.3329-.1849.5917-.1109.2589-.2219.8876-.2219.8876-.6286.5177-.5917 2.8845-.5917 2.8845l-.2219 2.1079c.074.2219 1.1095.2588 1.2574.2219.1479-.037.5917-3.3653.5917-3.3653l.9985-1.886s-.074 5.0294-.074 5.2513c0 .2218.9985.1109 1.2204.1109s.2219-3.6981.2219-3.6981l.2218-.9615 1.1834-4.4007v-.5177l-.1849-.2589s-3.846-.1849-3.9939 0z" fill="#2f2e41"/><path d="m16.8515 8.62875c.6331 0 1.1464-.51327 1.1464-1.14641s-.5133-1.1464-1.1464-1.1464c-.6332 0-1.1464.51326-1.1464 1.1464s.5132 1.14641 1.1464 1.14641z" fill="#a0616a"/><path d="m17.4244 8.01953c-.2324.51745-.0948 1.24021.3698 2.03397l-1.886-.88756.2959-.25887-.074-.73962z" fill="#a0616a"/><path d="m17.4234 9.2021c.247.14683.3948.41661.4796.69113.157.50827.2515 1.03377.2814 1.56487l.0896 1.59 1.1094 4.2158c-.9615.8136-1.5162.6287-2.8105-.037-1.2943-.6656-1.4423.2219-1.4423.2219s-.1109-.037 0-.1479c.111-.1109 0 0-.1109-.1109-.111-.111 0 0 .037-.111.0369-.1109 0-.037-.037-.074-.037-.0369.1479-.3698.1479-.3698l-.2958-2.7735-.3698-3.91999c.4437-.55471 1.7011-1.03546 1.7011-1.03546l1.1464.81357c.3698.14793.0739-.44377.0739-.44377z" fill="#6c63ff"/><path d="m13.8921 12.2891-.148 2.2188 1.8861 2.6996c0 .6287.3328.7766.3328.7766.126-.2012.2373-.4113.3328-.6287.1849-.4068-.1109-.7396-.1109-.7396l-1.2944-2.7366.5548-1.3682z" fill="#a0616a"/><path d="m14.5209 9.95908c-.6287.22192-.7397 2.62562-.7397 2.62562.7397-.4068 1.6272.2589 1.6272.2589s.1849-.6287.4068-1.4423c.067-.2288.075-.4709.0233-.7037-.0518-.2327-.1615-.4486-.3192-.6276 0 0-.3698-.3328-.9984-.11092z" fill="#6c63ff"/><path d="m15.7966 7.83345c.146-.11675.3451.09547.3451.09547l.1167-1.05079s.7297.08757 1.1967-.02918c.467-.11676.54.42323.54.42323.0241-.21807.029-.43782.0146-.65674-.0292-.2627-.4086-.5254-1.08-.70053-.6713-.17513-1.0216.58377-1.0216.58377-.467.23351-.2574 1.45153-.1115 1.33477z" fill="#2f2e41"/><g fill="#e6e6e6"><path d="m35.2831 17.7821c.0223.0009.0441-.0063.0616-.0201.0175-.0139.0294-.0335.0336-.0554l2.5499-13.87857c.0024-.01321.0019-.02679-.0015-.03979-.0033-.01301-.0095-.02512-.018-.03549-.0086-.01037-.0193-.01876-.0314-.02456-.0121-.00581-.0253-.0089-.0388-.00906l-11.6006-.13515h-.0011c-.0209.00008-.0412.00725-.0576.02033-.0163.01309-.0278.03132-.0324.05174l-3.0059 13.42815c-.0029.0131-.003.0267-.0001.0398s.0086.0255.0167.0362c.0082.0107.0186.0194.0305.0257s.025.0098.0384.0105z"/><path d="m25.1883 18.668c-.0104 0-.0205.0035-.0286.01-.0082.0065-.0139.0155-.0162.0256l-.1071.4592c-.0016.0065-.0016.0133-.0003.0198.0014.0065.0041.0127.0081.0181.0039.0053.009.0098.0148.013.0059.0032.0123.0051.019.0056l6.0525.4302c.0112.0007.0223-.0027.0312-.0095.0089-.0069.0151-.0167.0173-.0277l.1031-.5313c.0012-.0064.0011-.0131-.0004-.0195-.0016-.0064-.0044-.0123-.0085-.0175-.004-.0052-.0091-.0095-.0149-.0126-.0058-.003-.0122-.0048-.0188-.0052l-6.0484-.3581c-.0009-.0001-.0018-.0001-.0028-.0001z"/><path d="m32.5406 21.3565c.0109.0008.0217-.0022.0306-.0086s.0152-.0158.0178-.0264l.1312-.5323c.0016-.0066.0017-.0134.0004-.02s-.004-.0128-.008-.0182c-.0039-.0055-.009-.01-.0149-.0132-.0059-.0033-.0124-.0052-.0191-.0057l-7.7293-.5406c-.0105-.0008-.0209.002-.0296.008-.0086.006-.0149.0148-.0178.0249l-.1363.4601c-.002.0065-.0024.0135-.0014.0202.0011.0068.0037.0133.0076.0189.0038.0057.0089.0104.0149.0139.0059.0034.0126.0055.0194.006z"/><path d="m32.1265 23.0635c.0109.0009.0218-.0021.0307-.0085.0088-.0064.0151-.0158.0178-.0264l.1311-.5324c.0016-.0065.0018-.0133.0005-.0199s-.0041-.0129-.008-.0183c-.004-.0054-.0091-.0099-.015-.0132s-.0124-.0052-.0191-.0057l-7.7292-.5405c-.0105-.0009-.021.002-.0296.008-.0087.0059-.015.0147-.0179.0249l-.1363.46c-.0019.0066-.0024.0135-.0013.0203.001.0068.0036.0132.0075.0189.0039.0056.009.0104.0149.0138.006.0034.0126.0055.0194.006z"/></g><path d="m28.568 25.9893c.011.0011.022-.0018.031-.0082.0091-.0064.0155-.0158.018-.0266l.2774-1.1093c.0016-.0065.0018-.0132.0005-.0198-.0012-.0066-.0039-.0128-.0078-.0182-.0038-.0055-.0089-.01-.0147-.0133s-.0123-.0053-.0189-.0059l-4.7466-.3992c-.0111-.0008-.0221.0024-.0311.009-.0089.0066-.0152.0161-.0178.0269l-.2366 1.0647c-.0014.0063-.0015.013-.0001.0194.0013.0064.004.0124.0079.0177.0038.0053.0087.0097.0144.0129.0057.0033.012.0053.0185.0059z" fill="#6c63ff"/></g></svg>