<svg width="30" height="30" fill="none" xmlns="http://www.w3.org/2000/svg"><g clip-path="url(#a)" fill="#fff"><path d="M11.17 10.406a.44.44 0 0 0 .44-.44v-.212a.44.44 0 1 0-.879 0v.212c0 .243.197.44.44.44ZM14.135 10.406a.44.44 0 0 0 .44-.44v-.212a.44.44 0 1 0-.88 0v.212c0 .243.197.44.44.44Z"/><path d="M29.267 5.68a5.467 5.467 0 0 0-3.326-2.56 5.495 5.495 0 0 0-5.748 1.915h-2.304c-.094-.705-.345-1.356-.715-1.825a.44.44 0 0 0-.485-.145c-1.32.443-2.214.34-3.003.25-1.017-.116-1.902-.217-2.942.978-.758.055-1.32.3-1.7.742H.71A.714.714 0 0 0 0 5.75v16.18c0 .395.319.717.71.717H8.72l-.562 1.732H7.69c-.74 0-1.344.603-1.344 1.345v.675c0 .369.3.669.669.669h11.274a.67.67 0 0 0 .669-.669v-.675c0-.742-.603-1.345-1.344-1.345h-.467l-.561-1.732h8.008c.392 0 .71-.322.71-.717V13.843a5.477 5.477 0 0 0 1.944-.677 5.445 5.445 0 0 0 2.56-3.326 5.444 5.444 0 0 0-.54-4.16ZM10.97 5.161a.44.44 0 0 0 .33-.163c.793-.981 1.292-.924 2.287-.81.776.088 1.727.197 3.062-.19.546.959.648 2.748-.409 3.822-2.14.402-2.753-.018-3.345-.424-.299-.205-.607-.417-1.06-.531a2.8 2.8 0 0 0-.684-.084c-.706 0-1.352.26-1.853.572.032-1.414.264-2.153 1.672-2.192Zm-1.676 3.29c.451-.412 1.374-.973 2.327-.734.3.076.52.228.776.403.494.34 1.076.739 2.346.739.363 0 .781-.033 1.27-.108v.89c0 1.223-1.197 2.738-2.561 3.243-.59.219-1.008.219-1.598 0-1.364-.505-2.56-2.02-2.56-3.242v-1.19Zm5.247 5.744a2.559 2.559 0 0 1-1.889.827 2.556 2.556 0 0 1-1.886-.827 1.87 1.87 0 0 0 .432-.636c.116.055.233.105.35.15.393.144.749.217 1.105.217s.712-.072 1.104-.218c.119-.044.236-.094.351-.15.094.213.228.45.433.637ZM.879 5.913h7.708c-.178.62-.176 1.34-.174 2.095v1.635c0 1.214.854 2.598 2.024 3.457-.087.22-.212.473-.407.526-.151.042-.309.082-.475.125-.805.206-1.718.44-2.456.918-.905.585-1.363 1.433-1.363 2.521v2.227H.879V5.913ZM17.614 25.26c.256 0 .465.209.465.466v.465H7.225v-.465c0-.257.209-.466.465-.466h3.97a.44.44 0 1 0 0-.88H9.082l.561-1.731h6.02l.561 1.732H13.7a.44.44 0 1 0 0 .879h3.914Zm6.811-3.49H.879v-1.473H11.87a.44.44 0 1 0 0-.88H9.432v-.864a.44.44 0 1 0-.879 0v.865H6.615V17.19c0-1.651 1.309-2.114 3.158-2.588l.151-.039a3.432 3.432 0 0 0 2.727 1.338 3.434 3.434 0 0 0 2.729-1.338l.151.039c1.85.474 3.158.937 3.158 2.588v2.227h-1.938v-.865a.44.44 0 1 0-.88 0v.865h-1.974a.44.44 0 1 0 0 .879h10.528v1.473Zm0-2.352h-4.857V17.19c0-1.088-.458-1.936-1.363-2.522-.738-.477-1.65-.711-2.455-.917a31.79 31.79 0 0 1-.477-.125c-.194-.053-.319-.305-.405-.526 1.169-.859 2.022-2.243 2.022-3.457V8.412c.617-.642.98-1.517 1.033-2.499h1.707a5.487 5.487 0 0 0 .307 5.523c.142.467-.194 1.03-.534 1.378a.44.44 0 0 0 .002.616c.28.284.953.484 1.606.484l.129-.003c.518-.021.955-.168 1.284-.428a5.524 5.524 0 0 0 2.002.416v5.518h-.001ZM28.96 9.61a4.574 4.574 0 0 1-2.15 2.794 4.6 4.6 0 0 1-2.385.614 4.612 4.612 0 0 1-1.902-.453.44.44 0 0 0-.528.115c-.208.25-.555.326-.809.347a2.46 2.46 0 0 1-.773-.067c.418-.62.546-1.304.334-1.875a.442.442 0 0 0-.048-.092 4.605 4.605 0 0 1-.054-5.08 4.61 4.61 0 0 1 5.068-1.946 4.573 4.573 0 0 1 2.792 2.15 4.573 4.573 0 0 1 .455 3.493Z"/><path d="M24.513 6.442c-.794-.626-1.825-.624-2.454.026a2.05 2.05 0 0 0 .008 2.831l1.985 1.967c.121.12.286.222.46.222.175 0 .34-.102.46-.222l1.747-1.731.24-.236a2.05 2.05 0 0 0 .007-2.831c-.629-.65-1.66-.65-2.453-.026Zm1.824 2.236-1.825 1.807-1.59-1.576-.234-.231a1.164 1.164 0 0 1 .003-1.599c.37-.383.975-.224 1.358.122l.072.067c.079.074.198.186.392.186.193 0 .312-.112.39-.186l.075-.068c.381-.344.986-.503 1.355-.121.426.44.427 1.157.004 1.599Z"/></g><defs><clipPath id="a"><path fill="#fff" d="M0 0h30v30H0z"/></clipPath></defs></svg>