<svg fill="none" height="30" viewBox="0 0 30 30" width="30" xmlns="http://www.w3.org/2000/svg" xmlns:xlink="http://www.w3.org/1999/xlink"><clipPath id="a"><path d="m0 0h30v30h-30z"/></clipPath><g clip-path="url(#a)" fill="#fff"><path d="m11.1709 10.4057c.2427 0 .4395-.1967.4395-.43945v-.21234c0-.24276-.1967-.43946-.4395-.43946-.2427 0-.4395.1967-.4395.43946v.21234c0 .24275.1968.43945.4395.43945z"/><path d="m14.1348 10.4057c.2427 0 .4394-.1967.4394-.43945v-.21234c0-.24276-.1967-.43946-.4394-.43946s-.4395.1967-.4395.43946v.21234c.0001.24275.1968.43945.4395.43945z"/><path d="m29.2671 5.67911c-.3651-.6351-.8432-1.17944-1.4068-1.61303-.5631-.43418-1.2117-.75645-1.9189-.94682-2.1884-.58945-4.4307.23613-5.7484 1.91537h-2.3037c-.0944-.70424-.3453-1.35551-.715-1.82467-.1149-.14578-.309-.20355-.4849-.14466-1.32.44261-2.2144.34031-3.0035.25019-1.0172-.11625-1.9015-.21738-2.9421.97787-.75814.05467-1.31987.29948-1.70038.74121h-8.333264c-.391406 0-.710156.32168-.710156.71661v16.18012c0 .3949.31875.7165.710156.7165h8.008364l-.56139 1.7321h-.46693c-.74092 0-1.34373.6034-1.34373 1.3451v.6751c0 .3686.29988.6684.66843.6684h11.2743c.3686 0 .6685-.2998.6685-.6684v-.6751c0-.7417-.6029-1.3451-1.3438-1.3451h-.4669l-.5614-1.7321h8.0088c.3914 0 .7095-.3217.7095-.7165v-2.0716c0-.0012.0002-.0023.0002-.0035 0-.0013-.0002-.0024-.0002-.0036v-6.01c.6756-.0984 1.3342-.3252 1.9441-.6762 1.2703-.7306 2.1797-1.9118 2.5605-3.3262.3814-1.41375.1892-2.89201-.5414-4.16109zm-18.2978-.51715c.1284-.00358.2488-.06311.3296-.16295.7933-.98127 1.2925-.92414 2.2871-.81041.7757.08871 1.7272.19746 3.0617-.18955.5462.95859.6478 2.74775-.4086 3.82201-2.141.40242-2.753-.01776-3.3454-.42428-.2984-.20484-.607-.4166-1.0594-.53074-.2326-.05848-.4616-.08443-.6848-.08443-.7058 0-1.35192.25968-1.85296.57222.03199-1.41351.26403-2.15297 1.67276-2.19187zm-1.67657 3.29039c.45176-.41198 1.37467-.97377 2.32687-.73401.2995.07553.5207.22735.7768.40313.4941.33914 1.0754.73828 2.3461.73816.3622 0 .7807-.03258 1.2688-.10804v.89127c0 1.22164-1.1965 2.73664-2.5603 3.24224-.59.2185-1.0081.2184-1.5978.0001-1.364-.5057-2.56052-2.0207-2.56052-3.24234v-1.19051zm5.24677 5.74405c-.4826.5235-1.1605.8261-1.8883.8261-.7269 0-1.4043-.3026-1.8867-.8262.2051-.1865.3388-.4246.4325-.6368.1155.0554.2325.1058.3509.1497.3921.1453.7481.2179 1.1041.2179s.7121-.0726 1.1043-.218c.1183-.0438.2353-.0943.3507-.1496.0938.2122.2276.4504.4325.6369zm-13.660594-8.28292h7.708534c-.17824.61887-.1766 1.33881-.17414 2.09443.00029.08625.00059 1.63489.00059 1.63489 0 1.2139.85341 2.5982 2.02271 3.4575-.0869.2206-.2112.4731-.4065.5261-.15108.0412-.30864.0816-.47551.1243-.80508.2064-1.71756.4401-2.45584.9178-.90428.5852-1.36277 1.4337-1.36277 2.5219v2.2264h-4.857074zm16.734994 19.34532c.2564 0 .4649.2092.4649.4663v.4646h-10.85343v-.4646c0-.2571.20854-.4663.46483-.4663h3.9705c.2427 0 .4394-.1967.4394-.4395 0-.2427-.1967-.4394-.4394-.4394h-2.57966l.56132-1.7321h6.01934l.5614 1.7321h-2.5232c-.2427 0-.4395.1967-.4395.4394 0 .2428.1967.4395.4395.4395zm6.8111-3.4899h-23.546094v-1.4733h10.992494c.2427 0 .4394-.1967.4394-.4395 0-.2427-.1967-.4395-.4394-.4395h-2.43927v-.8643c0-.2428-.1967-.4395-.43945-.4395-.24276 0-.43946.1967-.43946.4395v.8643h-1.93845v-2.2263c0-1.6516 1.30886-2.1146 3.15785-2.5883.05138-.0132.10172-.0261.15158-.0389.6516.8434 1.6489 1.3382 2.727 1.3382 1.079 0 2.0769-.4948 2.7286-1.3382.0499.0128.1002.0258.1516.0389 1.849.4737 3.1579.9367 3.1579 2.5883v2.2263h-1.9385v-.8643c0-.2428-.1967-.4395-.4394-.4395-.2428 0-.4395.1967-.4395.4395v.8643h-1.9747c-.2427 0-.4394.1967-.4394.4395s.1967.4395.4394.4395h10.5278zm0-2.3522h-4.8568v-2.2263c0-1.0883-.4585-1.9368-1.3628-2.522-.7383-.4777-1.6508-.7114-2.4559-.9177-.1668-.0427-.3244-.0832-.4762-.1246-.1947-.0528-.3189-.3052-.4058-.5258 1.1692-.8593 2.0226-2.2436 2.0226-3.45756v-1.23106c.6174-.64131.9795-1.51693 1.0332-2.49826h1.7071c-.1722.33574-.3117.69375-.4136 1.07221-.409 1.51986-.1459 3.13877.7207 4.45117.1418.4658-.1946 1.0289-.5344 1.3775-.167.1717-.1664.4447.0017.6152.2795.2842.9533.484 1.606.484.0434 0 .0862-.0006.1289-.0023.518-.0217.9551-.1682 1.2838-.4283.2138.0878.4353.1634.6627.225.4429.1195.8917.1828 1.3388.191zm4.5351-9.80554c-.3199 1.18824-1.0839 2.18014-2.1504 2.79364-.474.273-.9825.4558-1.5058.5473-.2894.0509-.5835.0732-.8789.0668-.3703-.0077-.7423-.0598-1.1085-.1588-.2771-.0756-.5443-.1746-.7939-.2942-.1816-.0867-.399-.0398-.5273.1149-.2086.2496-.5549.3263-.8091.3474-.2854.0229-.5608-.014-.7729-.0668.4172-.6211.5461-1.3048.3334-1.8749-.0123-.0328-.0281-.0639-.0475-.0926-.7505-1.1097-.9813-2.48718-.6334-3.7797.1278-.47343.3252-.90996.5789-1.30072.211-.32637.4606-.62051.7412-.87891 1.1255-1.03705 2.7427-1.49349 4.3264-1.06693 1.1876.31992 2.1796 1.08334 2.793 2.14969.6135 1.06582.7746 2.30678.4548 3.49383z"/><path d="m24.5126 6.44248c-.7935-.62643-1.8243-.6245-2.4533.0259-.7509.7783-.7509 2.04474 0 2.82305.0025.00263.0051.00527.0077.00785l1.9852 1.96652c.1211.1199.2861.2219.4604.2219s.3393-.102.4603-.2219l1.7464-1.73103.2388-.23555c.0027-.00252.0053-.00516.0078-.00774.751-.77836.751-2.0448-.0004-2.82351-.6282-.64952-1.6603-.65087-2.4529-.02549zm1.8242 2.23512-1.8243 1.8071-1.5896-1.57572-.2347-.23138c-.4228-.44209-.4216-1.1584.0031-1.59862.3705-.38297.9749-.22394 1.3581.12235.0295.02619.0529.04828.0719.06627.0787.07406.1974.18591.3912.18591s.3125-.11185.3912-.18591c.019-.01799.0425-.04008.0739-.06803.3815-.34383.9863-.50291 1.3558-.12088.4251.44057.4262 1.15682.0034 1.59891z"/></g></svg>