<svg width="250" height="250" fill="none" xmlns="http://www.w3.org/2000/svg"><g clip-path="url(#a)"><path d="M15 109.711a74.712 74.712 0 0 1 135.526-43.395 74.682 74.682 0 0 0-50.289 117.368 72.997 72.997 0 0 1-10.526.763A74.737 74.737 0 0 1 15 109.711Z" fill="#00ACD4"/><path d="M89.71 35H15v74.71L89.71 35Z" fill="#00ACD4"/><path d="M86.317 140.263a74.684 74.684 0 0 1 64.21-73.947 74.683 74.683 0 0 1-50.289 117.368 74.262 74.262 0 0 1-13.921-43.421Z" fill="#1E425C"/><path d="M164.367 109.71a74.235 74.235 0 0 0-13.895-43.394c3.486-.5 7.004-.746 10.526-.737a74.711 74.711 0 1 1-60.842 118.105 74.684 74.684 0 0 0 64.211-73.974Z" fill="#FF8600"/><path d="M154.867 215h79.921v-79.921L154.867 215Z" fill="#FF8600"/></g><defs><clipPath id="a"><path fill="#fff" d="M15 35h220.71v180H15z"/></clipPath></defs></svg>