<svg width="250" height="250" viewBox="0 0 250 250" fill="none" xmlns="http://www.w3.org/2000/svg">
<g clip-path="url(#clip0)">
<path d="M15 109.711C15 93.8786 20.0294 78.4559 29.3625 65.6675C38.6957 52.8792 51.8501 43.3863 66.928 38.5584C82.0059 33.7306 98.2277 33.8174 113.253 38.8063C128.278 43.7952 141.33 53.4283 150.526 66.3158C137.821 68.1155 125.793 73.1585 115.604 80.9586C105.414 88.7587 97.4065 99.0527 92.3525 110.848C87.2986 122.643 85.3691 135.541 86.7501 148.299C88.131 161.057 92.7759 173.244 100.237 183.684C96.751 184.192 93.2331 184.447 89.7105 184.447C69.8936 184.44 50.8908 176.563 36.8806 162.548C22.8704 148.533 15 129.527 15 109.711H15Z" fill="#00ACD4"/>
<path d="M89.7105 35H15V109.71L89.7105 35Z" fill="#00ACD4"/>
<path d="M86.3165 140.263C86.3162 122.27 92.8119 104.881 104.609 91.2954C116.406 77.7093 132.712 68.839 150.527 66.3157C157.988 76.7561 162.633 88.9429 164.014 101.701C165.395 114.458 163.465 127.357 158.411 139.152C153.357 150.947 145.35 161.241 135.16 169.041C124.97 176.841 112.943 181.884 100.238 183.684C91.1586 171.028 86.2886 155.838 86.3165 140.263V140.263Z" fill="#1E425C"/>
<path d="M164.367 109.71C164.399 94.1466 159.538 78.9664 150.472 66.3157C153.958 65.8166 157.476 65.5704 160.998 65.5788C173.807 65.5833 186.4 68.881 197.567 75.1551C208.734 81.4292 218.1 90.469 224.767 101.406C231.433 112.344 235.176 124.812 235.634 137.612C236.093 150.413 233.254 163.117 227.388 174.504C221.522 185.89 212.827 195.578 202.138 202.635C191.449 209.693 179.125 213.884 166.349 214.806C153.573 215.728 140.775 213.35 129.183 207.9C117.592 202.45 107.596 194.111 100.156 183.684C117.976 181.16 134.285 172.286 146.083 158.694C157.881 145.103 164.373 127.708 164.367 109.71V109.71Z" fill="#FF8600"/>
<path d="M154.867 215H234.788V135.079L154.867 215Z" fill="#FF8600"/>
</g>
<defs>
<clipPath id="clip0">
<rect x="15" y="35" width="220.71" height="180" fill="white"/>
</clipPath>
</defs>
</svg>
