<svg fill="none" height="250" viewBox="0 0 250 250" width="250" xmlns="http://www.w3.org/2000/svg" xmlns:xlink="http://www.w3.org/1999/xlink"><clipPath id="a"><path d="m15 35h220.71v180h-220.71z"/></clipPath><g clip-path="url(#a)"><path d="m15 109.711c0-15.8324 5.0294-31.2551 14.3625-44.0435 9.3332-12.7883 22.4876-22.2812 37.5655-27.1091 15.0779-4.8278 31.2997-4.741 46.325.2479 15.025 4.9889 28.077 14.622 37.273 27.5095-12.705 1.7997-24.733 6.8427-34.922 14.6428-10.19 7.8001-18.1975 18.0941-23.2515 29.8894-5.0539 11.795-6.9834 24.693-5.6024 37.451 1.3809 12.758 6.0258 24.945 13.4869 35.385-3.486.508-7.0039.763-10.5265.763-19.8169-.007-38.8197-7.884-52.8299-21.899s-21.8806-33.021-21.8806-52.837z" fill="#00acd4"/><path d="m89.7105 35h-74.7105v74.71z" fill="#00acd4"/><path d="m86.3165 140.263c-.0003-17.993 6.4954-35.382 18.2925-48.9676 11.797-13.5861 28.103-22.4564 45.918-24.9797 7.461 10.4404 12.106 22.6272 13.487 35.3853 1.381 12.757-.549 25.656-5.603 37.451s-13.061 22.089-23.251 29.889-22.217 12.843-34.922 14.643c-9.0794-12.656-13.9494-27.846-13.9215-43.421z" fill="#1e425c"/><g fill="#ff8600"><path d="m164.367 109.71c.032-15.5634-4.829-30.7436-13.895-43.3943 3.486-.4991 7.004-.7453 10.526-.7369 12.809.0045 25.402 3.3022 36.569 9.5763s20.533 15.3139 27.2 26.2509c6.666 10.938 10.409 23.406 10.867 36.206.459 12.801-2.38 25.505-8.246 36.892-5.866 11.386-14.561 21.074-25.25 28.131-10.689 7.058-23.013 11.249-35.789 12.171s-25.574-1.456-37.166-6.906c-11.591-5.45-21.587-13.789-29.027-24.216 17.82-2.524 34.129-11.398 45.927-24.99 11.798-13.591 18.29-30.986 18.284-48.984z"/><path d="m154.867 215h79.921v-79.921z"/></g></g></svg>