<svg fill="none" height="378" viewBox="0 0 246 378" width="246" xmlns="http://www.w3.org/2000/svg"><path d="m105 214h36v23h-36z" fill="#5e3e3e"/><path d="m6 272c0-19.33 15.67-35 35-35h164c19.33 0 35 15.67 35 35v42h-234z" fill="#2b4570"/><path d="m6 285h234v90h-234z" fill="#2b4570"/><path d="m157.441 330.001c0-19.021-15.42-34.44-34.44-34.44-19.021 0-34.4405 15.419-34.4405 34.44 0 19.02 15.4195 34.44 34.4405 34.44 19.02 0 34.44-15.42 34.44-34.44z" stroke="#2b4570"/><path d="m106.922 332.525-.007-.003-.007-.003c-3.878-1.574-6.463-3.171-7.8455-4.763-1.3502-1.579-2.0379-3.551-2.0379-5.954 0-3.013 1.0742-5.469 3.2264-7.409v-.001c2.172-1.961 5.06-2.965 8.72-2.965 3.871 0 6.906.998 9.166 2.941 2.12 1.823 3.25 4.231 3.372 7.275h-8.348c-.07-1.282-.393-2.34-1.034-3.109-.748-.898-1.847-1.305-3.189-1.305-1.13 0-2.1.356-2.864 1.093-.781.754-1.141 1.784-1.141 3.012 0 .993.451 1.852 1.262 2.561l.004.004.003.003c.407.343 1.053.734 1.902 1.173.858.443 1.955.951 3.288 1.522l.013.005.014.005c3.826 1.416 6.444 2.971 7.937 4.631l.005.006c1.493 1.617 2.259 3.736 2.259 6.409 0 3.07-1.143 5.504-3.437 7.355-2.306 1.863-5.359 2.819-9.212 2.819-2.579 0-4.83-.498-6.767-1.477-1.942-1.003-3.4583-2.384-4.5613-4.144-.9828-1.6-1.5172-3.308-1.6075-5.13h7.8888c.11 1.465.504 2.66 1.246 3.518l.003.003.003.003c.885.993 2.266 1.425 3.996 1.425 1.344 0 2.456-.303 3.234-1.006.79-.713 1.138-1.749 1.138-2.999 0-1.007-.496-1.884-1.359-2.626-.84-.762-2.629-1.718-5.263-2.869z" stroke="#2b4570"/><path d="m137.354 332.525.007-.003.007-.003c3.878-1.574 6.462-3.171 7.845-4.763 1.35-1.579 2.038-3.551 2.038-5.954 0-3.013-1.074-5.469-3.226-7.409v-.001c-2.172-1.961-5.06-2.965-8.721-2.965-3.87 0-6.906.998-9.165 2.941-2.121 1.823-3.25 4.231-3.372 7.275h8.347c.071-1.282.394-2.34 1.035-3.109.748-.898 1.847-1.305 3.189-1.305 1.13 0 2.1.356 2.863 1.093.781.754 1.141 1.784 1.141 3.012 0 .993-.451 1.852-1.261 2.561l-.004.004-.004.003c-.407.343-1.052.734-1.901 1.173-.858.443-1.956.951-3.289 1.522l-.013.005-.013.005c-3.826 1.416-6.445 2.971-7.937 4.631l-.006.006c-1.493 1.617-2.259 3.736-2.259 6.409 0 3.07 1.144 5.504 3.437 7.355 2.307 1.863 5.36 2.819 9.212 2.819 2.579 0 4.83-.498 6.768-1.477 1.942-1.003 3.458-2.384 4.561-4.144.982-1.6 1.517-3.308 1.607-5.13h-7.889c-.109 1.465-.504 2.66-1.246 3.518l-.003.003-.002.003c-.886.993-2.266 1.425-3.996 1.425-1.344 0-2.457-.303-3.235-1.006-.789-.713-1.138-1.749-1.138-2.999 0-1.007.497-1.884 1.36-2.626.839-.762 2.628-1.718 5.263-2.869z" stroke="#2b4570"/><path d="m44.7539 335.376h164.0991v16.311c0 2.762-2.239 5-5 5h-154.0991c-2.7614 0-5-2.238-5-5z" fill="#ff8600"/><path d="m45 254c0-2.761 2.2386-5 5-5h154c2.761 0 5 2.239 5 5v82h-164z" fill="#fff"/><path d="m89 287.39c0-6.016 1.9112-11.877 5.4578-16.736 3.5466-4.86 8.5452-8.467 14.2752-10.302 5.729-1.834 11.894-1.801 17.603.094 5.71 1.896 10.67 5.557 14.164 10.454-4.828.684-9.399 2.6-13.271 5.564s-6.915 6.876-8.835 11.358c-1.921 4.482-2.654 9.384-2.129 14.232s2.29 9.479 5.125 13.446c-1.325.193-2.661.29-4 .29-7.53-.003-14.751-2.996-20.0754-8.322-5.3238-5.325-8.3146-12.548-8.3146-20.078z" fill="#00acd4"/><path d="m117.39 259h-28.39v28.39z" fill="#00acd4"/><path d="m116.1 299c0-6.837 2.468-13.445 6.951-18.607 4.483-5.163 10.679-8.534 17.449-9.493 2.835 3.968 4.6 8.599 5.125 13.447.524 4.848-.209 9.749-2.129 14.231-1.921 4.482-4.964 8.394-8.836 11.358s-8.442 4.881-13.27 5.564c-3.45-4.809-5.301-10.581-5.29-16.5z" fill="#1e425c"/><path d="m145.76 287.39c.012-5.914-1.835-11.683-5.28-16.49 1.325-.189 2.662-.283 4-.28 4.868.002 9.653 1.255 13.896 3.639 4.244 2.384 7.803 5.819 10.336 9.976 2.534 4.156 3.956 8.894 4.13 13.758.175 4.864-.905 9.692-3.134 14.019s-5.533 8.008-9.595 10.69-8.745 4.274-13.599 4.625c-4.855.35-9.719-.554-14.123-2.625-4.405-2.071-8.203-5.24-11.031-9.202 6.772-.959 12.969-4.331 17.452-9.496 4.484-5.165 6.951-11.775 6.948-18.614z" fill="#ff8600"/><path d="m142.15 327.4h30.37v-30.37z" fill="#ff8600"/><rect fill="#a56060" height="21.3115" rx="3" width="245.082" y="356.688"/><rect fill="#282222" height="200" rx="55" width="200" x="22"/><rect fill="#5e3e3e" height="21.6667" rx="3" width="21.6667" x="173.667" y="133.334"/><rect fill="#5e3e3e" height="21.6667" rx="3" width="21.6667" x="48.667" y="133.334"/><rect fill="#795252" height="150" rx="50" width="123.967" x="60.334" y="81.667"/><path d="m61 97c0-8.2843 6.7157-15 15-15h94c8.284 0 15 6.7157 15 15v24h-124z" fill="#ff8600"/><g fill="#5e3e3e"><path d="m118.667 156.667h6.66666v21.6667h-6.66666z"/><path d="m103 200.001c0 5.523 4.477 10 10 10h17c5.523 0 10-4.477 10-10v-5h-37z"/><path d="m103 195c0-2.761 2.239-5 5-5h27c2.761 0 5 2.239 5 5 0 .69-.56 1.25-1.25 1.25h-34.5c-.69 0-1.25-.56-1.25-1.25z"/></g><path d="m103 195.002c0 4.832 3.918 8.75 8.75 8.75h19.5c4.832 0 8.75-3.918 8.75-8.75z" fill="#282222"/><path d="m112.071 144.702c0 8.488-6.881 15.369-15.3689 15.369-8.4881 0-15.3691-6.881-15.3691-15.369s6.881-15.369 15.3691-15.369c8.4879 0 15.3689 6.881 15.3689 15.369z" stroke="#000" stroke-width="2"/><circle cx="147.298" cy="144.702" r="15.369" stroke="#000" stroke-width="2"/><path d="m113.071 144.202h17.857" stroke="#000"/><path d="m107 144.815c0 2.107-4.701.763-10.5.763s-10.5 1.344-10.5-.763 4.701-3.815 10.5-3.815 10.5 1.708 10.5 3.815z" fill="#271e1e"/><path d="m157 144.815c0 2.107-4.701.763-10.5.763s-10.5 1.344-10.5-.763 4.701-3.815 10.5-3.815 10.5 1.708 10.5 3.815z" fill="#271e1e"/></svg>