<svg width="216" height="438" viewBox="0 0 216 438" fill="none" xmlns="http://www.w3.org/2000/svg">
<g clip-path="url(#clip0)">
<path d="M60.9016 305.816C60.4049 306.648 59.5705 307.107 58.5356 307.107C56.6145 307.1 54.3027 306.338 52.5026 305.12C50.842 303.996 48.4345 301.914 46.4028 298.363C46.0213 297.697 45.3955 297.245 44.726 297.138C44.7237 297.293 44.7248 297.469 44.7248 297.635C44.7248 297.992 44.726 298.416 44.711 298.884V324.393C44.711 326.936 42.6435 329.003 40.1012 329.003C37.5589 329.003 35.4915 326.936 35.4915 324.393V306.531C35.4915 306.214 35.2322 305.954 34.9152 305.954C34.5983 305.954 34.339 306.214 34.339 306.531V332.461C34.339 335.003 32.2715 337.07 29.7293 337.07C27.187 337.07 25.1195 335.003 25.1195 332.461V306.531C25.1195 306.214 24.8602 305.954 24.5433 305.954C24.2264 305.954 23.9671 306.214 23.9671 306.531V327.275C23.9671 329.499 22.1577 331.308 19.9335 331.308C17.7093 331.308 15.9 329.499 15.9 327.275V304.226C15.9 303.909 15.6407 303.65 15.3238 303.65C15.0068 303.65 14.7475 303.909 14.7475 304.226V318.631C14.7475 320.855 12.9382 322.665 10.7025 322.665C8.47827 322.665 6.66895 320.855 6.66895 318.631L6.67125 287.288C7.78681 271.174 17.6713 269 27.1939 269C35.0835 269 42.1698 272.914 45.664 279.169C46.1135 279.895 47.3293 281.806 48.771 284.072C52.3759 289.734 55.3952 294.491 55.8412 295.337C56.8358 297.22 57.9456 298.692 59.0496 299.593C60.0488 300.409 60.6596 301.45 61.1563 302.363C61.4121 302.838 61.6357 304.584 60.9016 305.816Z" fill="#5E3E3E"/>
</g>
<path d="M65.0703 145H43.0703C27.0541 145 14.0703 157.984 14.0703 174V272H65.0703V145Z" fill="#22385B"/>
<path d="M180.597 78.2264L157.109 69.0478L91.6158 184.293L132.839 200.117L180.597 78.2264Z" fill="#22385B"/>
<g clip-path="url(#clip1)">
<path d="M145.886 37.7479C146.648 37.1491 147.591 37.0199 148.557 37.3908C150.348 38.0857 152.233 39.6254 153.477 41.4077C154.625 43.0518 156.126 45.8587 156.751 49.9016C156.868 50.6602 157.29 51.3062 157.877 51.6462C157.935 51.5029 157.997 51.3379 158.056 51.1829C158.184 50.8494 158.335 50.4531 158.517 50.0216L167.659 26.2067C168.57 23.8333 171.241 22.644 173.614 23.5551C175.988 24.4662 177.177 27.1372 176.266 29.5107L169.864 46.187C169.751 46.4829 169.9 46.8179 170.196 46.9315C170.492 47.0451 170.827 46.8959 170.94 46.6L180.233 22.3924C181.144 20.019 183.815 18.8297 186.188 19.7408C188.562 20.6519 189.751 23.3229 188.84 25.6964L179.547 49.904C179.434 50.1999 179.583 50.5349 179.879 50.6485C180.175 50.762 180.51 50.6129 180.623 50.317L188.057 30.9509C188.854 28.8744 191.192 27.8337 193.268 28.6308C195.345 29.4278 196.385 31.7654 195.588 33.8419L187.328 55.3598C187.215 55.6557 187.364 55.9907 187.66 56.1042C187.956 56.2178 188.291 56.0687 188.404 55.7728L193.567 42.3241C194.364 40.2476 196.701 39.2069 198.789 40.0081C200.865 40.8052 201.906 43.1427 201.109 45.2192L189.874 74.4795C183.058 89.1239 173.051 87.6108 164.161 84.1982C156.795 81.3708 151.582 75.1776 150.562 68.0854C150.403 67.2465 149.952 65.027 149.418 62.3951C148.082 55.8174 146.968 50.294 146.855 49.3445C146.601 47.2301 146.092 45.4584 145.385 44.2214C144.744 43.1016 144.547 41.9112 144.411 40.88C144.342 40.3451 144.759 38.635 145.886 37.7479Z" fill="#5E3E3E"/>
</g>
<path d="M33.3737 168.256C34.2897 155.158 45.1825 145 58.3128 145H105.687C118.818 145 129.71 155.158 130.626 168.256L139 288H25L33.3737 168.256Z" fill="#2B4570"/>
<path d="M57 190.602C57 187.084 58.1176 183.657 60.1917 180.815C62.2657 177.973 65.1889 175.864 68.5396 174.791C71.8902 173.718 75.495 173.737 78.834 174.846C82.173 175.954 85.0734 178.095 87.117 180.959C84.2935 181.359 81.6208 182.48 79.3564 184.213C77.0921 185.946 75.3126 188.234 74.1895 190.855C73.0664 193.476 72.6376 196.343 72.9445 199.178C73.2514 202.013 74.2835 204.721 75.9415 207.041C75.1669 207.154 74.3851 207.21 73.6023 207.211C69.1986 207.209 64.9757 205.459 61.8624 202.344C58.749 199.23 57 195.006 57 190.602V190.602Z" fill="#00ACD4"/>
<path d="M73.6023 174H57V190.602L73.6023 174Z" fill="#00ACD4"/>
<path d="M72.8477 197.392C72.8476 193.393 74.2911 189.529 76.9127 186.51C79.5343 183.491 83.1577 181.52 87.1167 180.959C88.7747 183.279 89.8069 185.987 90.1137 188.822C90.4206 191.657 89.9918 194.524 88.8687 197.145C87.7457 199.766 85.9661 202.054 83.7018 203.787C81.4375 205.52 78.7647 206.641 75.9412 207.041C73.9237 204.228 72.8415 200.853 72.8477 197.392Z" fill="#1E425C"/>
<path d="M90.1928 190.602C90.1999 187.143 89.1198 183.77 87.1051 180.959C87.8799 180.848 88.6616 180.793 89.4443 180.795C92.2907 180.796 95.0891 181.529 97.5707 182.923C100.052 184.317 102.134 186.326 103.615 188.757C105.096 191.187 105.928 193.958 106.03 196.802C106.132 199.647 105.501 202.47 104.197 205C102.894 207.531 100.962 209.684 98.5864 211.252C96.211 212.82 93.4723 213.752 90.6333 213.957C87.7943 214.161 84.9502 213.633 82.3743 212.422C79.7984 211.211 77.5771 209.358 75.9238 207.041C79.8838 206.48 83.508 204.508 86.1297 201.487C88.7515 198.467 90.1943 194.601 90.1928 190.602Z" fill="#FF8600"/>
<path d="M88.082 214H105.842V196.24L88.082 214Z" fill="#FF8600"/>
<path d="M25 288H139L149 340H15L25 288Z" fill="#FF8600"/>
<path d="M82 340H124V422.542C124 431.079 117.079 438 108.542 438C100.791 438 94.2385 432.259 93.2192 424.575L82 340Z" fill="#5E3E3E"/>
<path d="M82 340H40V422.542C40 431.079 46.9206 438 55.4575 438C63.2088 438 69.7615 432.259 70.7808 424.575L82 340Z" fill="#5E3E3E"/>
<path d="M79 362H40V422.55C40 431.083 46.9171 438 55.4499 438C63.2035 438 69.7562 432.253 70.7677 424.566L79 362Z" fill="#272838"/>
<path d="M85 362H124V422.55C124 431.083 117.083 438 108.55 438C100.797 438 94.2438 432.253 93.2323 424.566L85 362Z" fill="#272838"/>
<path d="M22 428C22 419.716 28.7157 413 37 413H73V438H22V428Z" fill="#2B4570"/>
<path d="M142 428C142 419.716 135.284 413 127 413H91V438H142V428Z" fill="#2B4570"/>
<path d="M190.023 1.98633H183.758C183.459 1.98633 183.173 2.10485 182.962 2.31583C182.751 2.52681 182.633 2.81296 182.633 3.11133V4.1982C182.633 4.34594 182.662 4.49223 182.718 4.62872C182.775 4.76521 182.858 4.88923 182.962 4.9937C183.173 5.20468 183.459 5.3232 183.758 5.3232H190.023C190.171 5.3232 190.317 5.2941 190.454 5.23757C190.59 5.18103 190.714 5.09816 190.819 4.9937C190.923 4.88923 191.006 4.76521 191.062 4.62872C191.119 4.49223 191.148 4.34594 191.148 4.1982V3.11133C191.148 2.81296 191.03 2.52681 190.819 2.31583C190.608 2.10485 190.321 1.98633 190.023 1.98633Z" fill="#8F9799"/>
<path d="M197.182 7.76172V73.408C197.182 75.8933 195.167 77.908 192.682 77.908H159.318C156.833 77.908 154.818 75.8933 154.818 73.408V7.76172C154.818 5.27641 156.833 3.26172 159.318 3.26172H192.682C195.167 3.26172 197.182 5.27641 197.182 7.76172Z" fill="#464A4C"/>
<path d="M194.069 10.502V65.1846C194.069 66.4273 193.061 67.4346 191.819 67.4346H160.18C158.937 67.4346 157.93 66.4273 157.93 65.1846V10.502C157.93 9.2593 158.937 8.25195 160.18 8.25195H191.819C193.061 8.25195 194.069 9.2593 194.069 10.502Z" fill="white"/>
<path d="M172.762 74.6914H179.236C180.355 74.6914 181.261 73.7849 181.261 72.6664V72.5924C181.261 71.4739 180.355 70.5674 179.236 70.5674H172.762C171.644 70.5674 170.737 71.4739 170.737 72.5924V72.6664C170.737 73.7849 171.644 74.6914 172.762 74.6914Z" fill="#8F9799"/>
<path d="M164 36.3011C164 34.542 164.559 32.8284 165.596 31.4075C166.633 29.9866 168.094 28.9318 169.77 28.3954C171.445 27.859 173.247 27.8686 174.917 28.4229C176.586 28.9772 178.037 30.0476 179.058 31.4795C177.647 31.6795 176.31 32.2398 175.178 33.1065C174.046 33.9732 173.156 35.1169 172.595 36.4275C172.033 37.7381 171.819 39.1712 171.972 40.5888C172.126 42.0063 172.642 43.3604 173.471 44.5204C173.083 44.5768 172.693 44.6051 172.301 44.6052C170.099 44.6044 167.988 43.7292 166.431 42.172C164.874 40.6147 164 38.503 164 36.3011V36.3011Z" fill="#00ACD4"/>
<path d="M172.301 28H164V36.3011L172.301 28Z" fill="#00ACD4"/>
<path d="M171.924 39.6958C171.924 37.6966 172.646 35.7646 173.956 34.255C175.267 32.7454 177.079 31.7599 179.058 31.4795C179.887 32.6395 180.403 33.9936 180.557 35.4111C180.71 36.8287 180.496 38.2618 179.934 39.5724C179.373 40.883 178.483 42.0267 177.351 42.8934C176.219 43.7601 174.882 44.3204 173.471 44.5204C172.462 43.1142 171.921 41.4264 171.924 39.6958Z" fill="#1E425C"/>
<path d="M180.596 36.301C180.6 34.5717 180.06 32.885 179.053 31.4794C179.44 31.4239 179.831 31.3965 180.222 31.3975C181.645 31.398 183.045 31.7644 184.285 32.4615C185.526 33.1586 186.567 34.163 187.307 35.3783C188.048 36.5936 188.464 37.9789 188.515 39.4012C188.566 40.8235 188.25 42.235 187.599 43.5002C186.947 44.7654 185.981 45.8417 184.793 46.6259C183.605 47.4101 182.236 47.8758 180.817 47.9782C179.397 48.0807 177.975 47.8164 176.687 47.2108C175.399 46.6053 174.289 45.6788 173.462 44.5202C175.442 44.2398 177.254 43.2538 178.565 41.7436C179.876 40.2335 180.597 38.3007 180.596 36.301Z" fill="#FF8600"/>
<path d="M179.541 48.0002H188.421V39.1201L179.541 48.0002Z" fill="#FF8600"/>
<rect x="66" y="132" width="31" height="13" fill="#5E3E3E"/>
<rect x="22" width="120" height="120" rx="40" fill="#282222"/>
<rect x="113" y="80" width="13" height="13" rx="3" fill="#5E3E3E"/>
<rect x="38" y="80" width="13" height="13" rx="3" fill="#5E3E3E"/>
<rect x="45" y="49" width="74.3802" height="90" rx="25" fill="#795252"/>
<path d="M45 64C45 55.7157 51.7157 49 60 49H104C112.284 49 119 55.7157 119 64V70H45V64Z" fill="#FF8600"/>
<rect x="80" y="94" width="4" height="13" fill="#5E3E3E"/>
<mask id="mask0" mask-type="alpha" maskUnits="userSpaceOnUse" x="88" y="82" width="15" height="9">
<path d="M102.941 86.5644C103.258 84.3437 101.535 82.3574 99.2915 82.3574H92.6098C90.4485 82.3574 88.6964 84.1095 88.6964 86.2708C88.6964 88.9175 91.041 90.9502 93.661 90.575L99.8142 89.6939C101.436 89.4616 102.71 88.1866 102.941 86.5644Z" fill="white"/>
</mask>
<g mask="url(#mask0)">
<rect width="21.7721" height="14.881" transform="matrix(-1 0 0 1 107.5 79.3809)" fill="white"/>
<ellipse rx="4.45338" ry="4.46429" transform="matrix(-1 0 0 1 95.1286 85.8285)" fill="#271E1E"/>
<circle cx="97" cy="83" r="1" fill="white"/>
</g>
<mask id="mask1" mask-type="alpha" maskUnits="userSpaceOnUse" x="61" y="82" width="15" height="9">
<path d="M61.1708 86.5644C60.8544 84.3437 62.5777 82.3574 64.8208 82.3574H71.5025C73.6638 82.3574 75.4159 84.1095 75.4159 86.2708C75.4159 88.9175 73.0713 90.9502 70.4513 90.575L64.2981 89.6939C62.6761 89.4616 61.402 88.1866 61.1708 86.5644Z" fill="white"/>
</mask>
<g mask="url(#mask1)">
<rect x="56.6133" y="79.3809" width="21.7721" height="14.881" fill="white"/>
<ellipse cx="68.9837" cy="85.8285" rx="4.45338" ry="4.46429" fill="#271E1E"/>
<circle cx="71" cy="83" r="1" fill="white"/>
</g>
<circle cx="66.8214" cy="86.8214" r="8.82143" stroke="black" stroke-width="2"/>
<circle cx="97.1788" cy="86.8214" r="8.82143" stroke="black" stroke-width="2"/>
<line x1="76.6426" y1="86.3213" x2="87.3569" y2="86.3213" stroke="black"/>
<path d="M68 122C68 127.523 72.4772 132 78 132H86C91.5228 132 96 127.523 96 122V120H68V122Z" fill="#5E3E3E"/>
<path d="M68 120C68 117.791 69.7909 116 72 116H92C94.2091 116 96 117.791 96 120C96 120.552 95.5523 121 95 121H69C68.4477 121 68 120.552 68 120Z" fill="#5E3E3E"/>
<path d="M68 120C68 123.866 71.134 127 75 127H89C92.866 127 96 123.866 96 120H68Z" fill="#282222"/>
<defs>
<clipPath id="clip0">
<rect width="68.07" height="68.07" fill="white" transform="matrix(1 0 0 -1 0 337.07)"/>
</clipPath>
<clipPath id="clip1">
<rect width="68.07" height="68.07" fill="white" transform="matrix(-0.93358 -0.358368 -0.358368 0.93358 213.943 30.3945)"/>
</clipPath>
</defs>
</svg>
