<svg class="thembi-success" width="246" height="378" fill="none" xmlns="http://www.w3.org/2000/svg"><path fill="#5E3E3E" d="M105 214h36v23h-36z"/><path d="M6 272c0-19.33 15.67-35 35-35h164c19.33 0 35 15.67 35 35v42H6v-42Z" fill="#2B4570"/><path fill="#2B4570" d="M6 285h234v90H6z"/><path d="M157.441 330.001c0-19.021-15.42-34.44-34.44-34.44-19.021 0-34.44 15.419-34.44 34.44 0 19.02 15.419 34.44 34.44 34.44 19.02 0 34.44-15.42 34.44-34.44Z" stroke="#2B4570"/><path d="m106.922 332.525-.007-.003-.007-.003c-3.878-1.574-6.463-3.171-7.846-4.763-1.35-1.579-2.037-3.551-2.037-5.954 0-3.013 1.074-5.469 3.226-7.409v-.001c2.172-1.961 5.06-2.965 8.72-2.965 3.871 0 6.906.998 9.166 2.941 2.12 1.823 3.25 4.231 3.372 7.275h-8.348c-.07-1.282-.393-2.34-1.034-3.109-.748-.898-1.847-1.305-3.189-1.305-1.13 0-2.1.356-2.864 1.093-.781.754-1.141 1.784-1.141 3.012 0 .993.451 1.852 1.262 2.561l.004.004.003.003c.407.343 1.053.734 1.902 1.173a51.97 51.97 0 0 0 3.288 1.522l.013.005.014.005c3.826 1.416 6.444 2.971 7.937 4.631l.005.006c1.493 1.617 2.259 3.736 2.259 6.409 0 3.07-1.143 5.504-3.437 7.355-2.306 1.863-5.359 2.819-9.212 2.819-2.579 0-4.83-.498-6.767-1.477-1.942-1.003-3.458-2.384-4.561-4.144-.983-1.6-1.517-3.308-1.608-5.13h7.889c.11 1.465.504 2.66 1.246 3.518l.003.003.003.003c.885.993 2.266 1.425 3.996 1.425 1.344 0 2.456-.303 3.234-1.006.79-.713 1.138-1.749 1.138-2.999 0-1.007-.496-1.884-1.359-2.626-.84-.762-2.629-1.718-5.263-2.869ZM137.354 332.525l.007-.003.007-.003c3.878-1.574 6.462-3.171 7.845-4.763 1.35-1.579 2.038-3.551 2.038-5.954 0-3.013-1.074-5.469-3.226-7.409v-.001c-2.172-1.961-5.06-2.965-8.721-2.965-3.87 0-6.906.998-9.165 2.941-2.121 1.823-3.25 4.231-3.372 7.275h8.347c.071-1.282.394-2.34 1.035-3.109.748-.898 1.847-1.305 3.189-1.305 1.13 0 2.1.356 2.863 1.093.781.754 1.141 1.784 1.141 3.012 0 .993-.451 1.852-1.261 2.561l-.004.004-.004.003c-.407.343-1.052.734-1.901 1.173-.858.443-1.956.951-3.289 1.522l-.013.005-.013.005c-3.826 1.416-6.445 2.971-7.937 4.631l-.006.006c-1.493 1.617-2.259 3.736-2.259 6.409 0 3.07 1.144 5.504 3.437 7.355 2.307 1.863 5.36 2.819 9.212 2.819 2.579 0 4.83-.498 6.768-1.477 1.942-1.003 3.458-2.384 4.561-4.144.982-1.6 1.517-3.308 1.607-5.13h-7.889c-.109 1.465-.504 2.66-1.246 3.518l-.003.003-.002.003c-.886.993-2.266 1.425-3.996 1.425-1.344 0-2.457-.303-3.235-1.006-.789-.713-1.138-1.749-1.138-2.999 0-1.007.497-1.884 1.36-2.626.839-.762 2.628-1.718 5.263-2.869Z" stroke="#2B4570"/><path d="M44.754 335.376h164.099v16.311a5 5 0 0 1-5 5h-154.1a5 5 0 0 1-5-5v-16.311Z" fill="#FF8600"/><path d="M45 254a5 5 0 0 1 5-5h154a5 5 0 0 1 5 5v82H45v-82Z" fill="#fff"/><path d="M89 287.39a28.388 28.388 0 0 1 19.733-27.038A28.39 28.39 0 0 1 140.5 270.9a28.383 28.383 0 0 0-22.106 16.922 28.374 28.374 0 0 0 2.996 27.678c-1.325.193-2.661.29-4 .29A28.402 28.402 0 0 1 89 287.39Z" fill="#00ACD4"/><path d="M117.39 259H89v28.39L117.39 259Z" fill="#00ACD4"/><path d="M116.1 299a28.378 28.378 0 0 1 24.4-28.1 28.389 28.389 0 0 1 2.996 27.678A28.387 28.387 0 0 1 121.39 315.5a28.216 28.216 0 0 1-5.29-16.5Z" fill="#1E425C"/><path d="M145.76 287.39a28.21 28.21 0 0 0-5.28-16.49 28.391 28.391 0 1 1 6.034 56.427A28.392 28.392 0 0 1 121.36 315.5a28.376 28.376 0 0 0 24.4-28.11Z" fill="#FF8600"/><path d="M142.15 327.4h30.37v-30.37l-30.37 30.37Z" fill="#FF8600"/><rect y="356.688" width="245.082" height="21.311" rx="3" fill="#A56060"/><g class="thembi-success__head"><rect x="22" width="200" height="200" rx="55" fill="#282222"/><rect x="173.667" y="133.334" width="21.667" height="21.667" rx="3" fill="#5E3E3E"/><rect x="48.667" y="133.334" width="21.667" height="21.667" rx="3" fill="#5E3E3E"/><rect x="60.334" y="81.667" width="123.967" height="150" rx="50" fill="#795252"/><path d="M61 97c0-8.284 6.716-15 15-15h94c8.284 0 15 6.716 15 15v24H61V97Z" fill="#FF8600"/><path fill="#5E3E3E" d="M118.667 156.667h6.667v21.667h-6.667zM103 200.001c0 5.523 4.477 10 10 10h17c5.523 0 10-4.477 10-10v-5h-37v5Z"/><path d="M103 195a5 5 0 0 1 5-5h27a5 5 0 0 1 5 5c0 .69-.56 1.25-1.25 1.25h-34.5c-.69 0-1.25-.56-1.25-1.25Z" fill="#5E3E3E"/><path d="M103 195.002a8.75 8.75 0 0 0 8.75 8.75h19.5a8.75 8.75 0 0 0 8.75-8.75h-37Z" fill="#282222"/><path d="M112.071 144.702c0 8.488-6.881 15.369-15.369 15.369s-15.369-6.881-15.369-15.369 6.881-15.369 15.37-15.369c8.487 0 15.368 6.881 15.368 15.369Z" stroke="#000" stroke-width="2"/><circle cx="147.298" cy="144.702" r="15.369" stroke="#000" stroke-width="2"/><path stroke="#000" d="M113.071 144.202h17.857"/><path d="M107 144.815c0 2.107-4.701.763-10.5.763s-10.5 1.344-10.5-.763S90.701 141 96.5 141s10.5 1.708 10.5 3.815ZM157 144.815c0 2.107-4.701.763-10.5.763s-10.5 1.344-10.5-.763S140.701 141 146.5 141s10.5 1.708 10.5 3.815Z" fill="#271E1E"/></g></svg>