<svg fill="none" height="184" viewBox="0 0 207 184" width="207" xmlns="http://www.w3.org/2000/svg"><g fill="#2b4570"><path d="m103.23-73.074c31.166 13.0834 102.23 63.92539 103.27 99.2556.978 35.3924-68.071 55.1993-90.388 85.1924-22.2507 29.928-45.7978 54.977-74.7551 65.98-29.0156 10.996-63.4959 7.941-88.2189-7.417-24.6571-15.299-39.4909-42.949-55.955-70.2759-16.46-27.2574-34.414-54.2586-37.993-86.4646-3.644-32.1399 7.157-69.6125 31.946-83.7982 24.7894-14.1856 63.4962-5.0727 102.53298-5.3987 39.03672-.326 78.33352-10.0833 109.56102 2.9264z"/><path d="m103.23-73.074c31.166 13.0834 102.23 63.92539 103.27 99.2556.978 35.3924-68.071 55.1993-90.388 85.1924-22.2507 29.928-45.7978 54.977-74.7551 65.98-29.0156 10.996-63.4959 7.941-88.2189-7.417-24.6571-15.299-39.4909-42.949-55.955-70.2759-16.46-27.2574-34.414-54.2586-37.993-86.4646-3.644-32.1399 7.157-69.6125 31.946-83.7982 24.7894-14.1856 63.4962-5.0727 102.53298-5.3987 39.03672-.326 78.33352-10.0833 109.56102 2.9264z"/></g></svg>