<svg width="207" height="184" fill="none" xmlns="http://www.w3.org/2000/svg"><path d="M103.23-73.074C134.396-59.991 205.46-9.149 206.5 26.182c.978 35.392-68.071 55.199-90.388 85.192-22.25 29.928-45.798 54.977-74.755 65.98-29.016 10.996-63.496 7.941-88.219-7.417-24.657-15.299-39.49-42.949-55.955-70.276-16.46-27.257-34.414-54.258-37.993-86.465-3.644-32.14 7.157-69.612 31.946-83.798C-84.074-84.787-45.368-75.674-6.331-76c39.037-.326 78.334-10.084 109.561 2.926Z" fill="#2B4570"/><path d="M103.23-73.074C134.396-59.991 205.46-9.149 206.5 26.182c.978 35.392-68.071 55.199-90.388 85.192-22.25 29.928-45.798 54.977-74.755 65.98-29.016 10.996-63.496 7.941-88.219-7.417-24.657-15.299-39.49-42.949-55.955-70.276-16.46-27.257-34.414-54.258-37.993-86.465-3.644-32.14 7.157-69.612 31.946-83.798C-84.074-84.787-45.368-75.674-6.331-76c39.037-.326 78.334-10.084 109.561 2.926Z" fill="#2B4570"/></svg>