<svg width="207" height="184" viewBox="0 0 207 184" fill="none" xmlns="http://www.w3.org/2000/svg">
<path d="M103.23 -73.074C134.396 -59.9906 205.46 -9.14861 206.5 26.1816C207.478 61.574 138.429 81.3809 116.112 111.374C93.8613 141.302 70.3142 166.351 41.3569 177.354C12.3413 188.35 -22.139 185.295 -46.862 169.937C-71.5191 154.638 -86.3529 126.988 -102.817 99.6611C-119.277 72.4037 -137.231 45.4025 -140.81 13.1965C-144.454 -18.9434 -133.653 -56.416 -108.864 -70.6017C-84.0746 -84.7873 -45.3678 -75.6744 -6.33102 -76.0004C32.7057 -76.3264 72.0025 -86.0837 103.23 -73.074Z" fill="#2B4570"/>
<path d="M103.23 -73.074C134.396 -59.9906 205.46 -9.14861 206.5 26.1816C207.478 61.574 138.429 81.3809 116.112 111.374C93.8613 141.302 70.3142 166.351 41.3569 177.354C12.3413 188.35 -22.139 185.295 -46.862 169.937C-71.5191 154.638 -86.3529 126.988 -102.817 99.6611C-119.277 72.4037 -137.231 45.4025 -140.81 13.1965C-144.454 -18.9434 -133.653 -56.416 -108.864 -70.6017C-84.0746 -84.7873 -45.3678 -75.6744 -6.33102 -76.0004C32.7057 -76.3264 72.0025 -86.0837 103.23 -73.074Z" fill="#2B4570"/>
</svg>
