<svg width="15" height="15" fill="none" xmlns="http://www.w3.org/2000/svg"><path d="M7.5 14.297a6.805 6.805 0 0 1-4.684-1.875h.934v-.469H2.344a.234.234 0 0 0-.234.235v.134l-.025.022.025.026v1.224h.468v-.752a7.275 7.275 0 0 0 5.164 1.92l-.015-.469a7.13 7.13 0 0 1-.227.004ZM10.705 13.496l.222.413c.14-.075.277-.154.41-.238l-.247-.398a7.103 7.103 0 0 1-.385.223ZM9.896 13.864l.166.438c.147-.056.295-.117.439-.182l-.194-.427c-.135.061-.271.118-.41.17ZM11.459 13.025l.274.38c.128-.092.254-.188.376-.288l-.297-.363a7.019 7.019 0 0 1-.353.27ZM9.047 14.12l.106.457a7.06 7.06 0 0 0 .459-.123l-.137-.448a6.59 6.59 0 0 1-.428.115ZM8.17 14.265l.046.466c.158-.015.315-.036.47-.062l-.076-.462a6.655 6.655 0 0 1-.44.058ZM13.69 10.312l.427.194c.066-.144.127-.292.182-.438l-.439-.166a6.523 6.523 0 0 1-.17.41ZM12.146 12.462l.32.342c.115-.108.228-.22.336-.335l-.342-.32a6.892 6.892 0 0 1-.315.313ZM14.206 8.618l.463.076c.025-.155.046-.312.062-.47l-.467-.046a7.014 7.014 0 0 1-.058.44ZM14.004 9.481l.449.137a7.24 7.24 0 0 0 .122-.46l-.456-.105a6.443 6.443 0 0 1-.115.428ZM12.753 11.813l.362.297c.1-.122.197-.248.29-.376l-.382-.273c-.086.12-.176.237-.27.352ZM13.271 11.093l.398.248c.084-.135.164-.273.238-.411l-.413-.221c-.07.13-.144.258-.223.384ZM14.297 7.5c0 .076-.002.151-.004.227l.468.015c.003-.08.005-.161.005-.242h-.47ZM.234 7.5h.47a7.3 7.3 0 0 1 .003-.227l-.468-.015c-.003.08-.005.16-.005.242ZM2.245 3.188l-.362-.297c-.1.122-.197.247-.29.376l.382.273c.086-.12.176-.238.27-.352ZM1.728 3.91l-.398-.248a7.5 7.5 0 0 0-.238.411l.413.221c.07-.13.145-.259.223-.384ZM2.852 2.54l-.32-.343c-.115.108-.227.22-.336.336l.342.32c.102-.108.206-.213.314-.314ZM4.292 1.505l-.221-.413c-.14.075-.277.154-.41.238l.247.397c.126-.078.254-.152.384-.222ZM5.948.882 5.841.426a7.203 7.203 0 0 0-.458.123l.136.448c.141-.042.285-.08.43-.115ZM3.538 1.976l-.273-.38a7.507 7.507 0 0 0-.376.289l.297.362c.114-.094.232-.184.352-.27ZM5.1 1.14 4.934.7a7.193 7.193 0 0 0-.438.182l.194.427c.134-.061.271-.118.41-.17ZM6.823.738 6.777.27a7.254 7.254 0 0 0-.47.063l.076.462a6.65 6.65 0 0 1 .44-.058ZM.27 6.783l.466.046c.014-.148.034-.295.058-.44L.33 6.311a7.57 7.57 0 0 0-.061.471ZM.881 4.498a7.162 7.162 0 0 0-.182.44l.439.165c.052-.14.11-.277.17-.41l-.427-.195ZM.424 5.848l.456.106c.034-.145.072-.288.115-.43L.546 5.39c-.045.15-.087.305-.122.459ZM7.5.703c1.748 0 3.425.679 4.684 1.875h-.934v.469h1.406c.13 0 .235-.105.235-.235v-.134l.024-.022-.024-.026V1.406h-.469v.752A7.276 7.276 0 0 0 7.258.238l.016.469c.075-.003.15-.004.226-.004ZM8.672 11.25V8.203h2.481l1.338 1.338a.235.235 0 0 0 .4-.166V8.203h.703c.13 0 .234-.105.234-.234V3.75a.234.234 0 0 0-.234-.234H6.563a.234.234 0 0 0-.235.234v3.047H3.847L2.509 5.459a.235.235 0 0 0-.4.166v1.172h-.703a.234.234 0 0 0-.234.234v4.219c0 .13.105.234.234.234h7.031c.13 0 .235-.104.235-.234ZM6.797 3.984h6.562v3.75h-.703a.234.234 0 0 0-.234.235v.84l-1.006-1.006a.233.233 0 0 0-.166-.069H8.672v-.703a.234.234 0 0 0-.235-.234h-1.64V3.984Zm1.406 7.032H1.641v-3.75h.703c.13 0 .234-.105.234-.235v-.84l1.006 1.006a.233.233 0 0 0 .166.069h4.453v3.75Z" fill="#FF8600"/><path d="M9.844 6.797h.469v.469h-.47v-.47ZM9.844 4.453h.469v1.875h-.47V4.453ZM4.453 8.672a.468.468 0 0 1 .556-.461.47.47 0 0 1 .187.841c-.323.233-.509.575-.509.937v.089h.47v-.089c0-.21.114-.413.313-.557a.936.936 0 0 0-.38-1.683.936.936 0 0 0-1.106.923v.234h.47v-.234ZM4.688 10.313h.468v.468h-.468v-.469Z" fill="#FF8600"/></svg>