<svg fill="none" height="15" viewBox="0 0 15 15" width="15" xmlns="http://www.w3.org/2000/svg"><g fill="#ff8600"><path d="m7.50019 14.2969c-1.74797 0-3.42539-.6785-4.68375-1.875h.93375v-.4688h-1.40625c-.12961 0-.23437.1048-.23437.2344v.1343l-.02461.022c.00797.0089.01664.0174.02461.0263v1.2237h.46875v-.7517c1.33523 1.2291 3.09257 1.9235 4.92187 1.9235.0811 0 .16149-.0014.24188-.0042l-.015-.4683c-.07547.0024-.15094.0038-.22688.0038z"/><path d="m10.7051 13.496.2215.413c.1397-.0748.277-.1542.4109-.2379l-.2478-.3977c-.1256.078-.2538.1523-.3846.2226z"/><path d="m9.89648 13.8635.16522.4386c.1477-.0556.2953-.1168.439-.1822l-.1936-.4265c-.1348.0609-.2716.1179-.41062.1701z"/><path d="m11.459 13.0246.2738.3809c.1284-.0926.254-.1889.3759-.289l-.2972-.3626c-.1146.0938-.232.1842-.3525.2707z"/><path d="m9.04688 14.1207.1057.4563c.15516-.0358.30937-.0771.45914-.1225l-.1364-.4486c-.14086.0428-.28383.0813-.42844.1148z"/><path d="m8.16992 14.2648.0457.4665c.15867-.0155.3157-.0361.47063-.0619l-.07594-.4624c-.14531.0241-.29227.0433-.44039.0578z"/><path d="m13.6904 10.3118.4266.1941c.0656-.1442.1268-.2918.1818-.4383l-.4385-.16526c-.052.13876-.109.27546-.1699.40946z"/><path d="m12.1455 12.4624.3203.342c.1156-.1083.2279-.2201.3359-.3356l-.342-.3204c-.1012.108-.206.2125-.3142.314z"/><path d="m14.2061 8.61835.4624.07594c.0256-.15539.0464-.31219.0621-.47039l-.4664-.04617c-.0148.14812-.0342.29531-.0581.44062z"/><path d="m14.0039 9.48117.4486.13642c.0459-.15164.0874-.30611.1228-.45868l-.4564-.10618c-.0335.14438-.0719.28758-.115.42844z"/><path d="m12.7529 11.8127.3621.2977c.1005-.1221.1971-.248.2892-.3762l-.3809-.2733c-.0862.12-.1765.2374-.2704.3518z"/><path d="m13.2715 11.0927.3978.2482c.0839-.1348.164-.2731.2381-.4109l-.4135-.221c-.0698.1303-.1441.2583-.2224.3837z"/><path d="m14.2967 7.5c0 .07594-.0014.15141-.0037.22687l.4683.01501c.0028-.0804.0042-.16102.0042-.24188z"/><path d="m.234375 7.4997h.46875c0-.07594.001406-.15141.00375-.22689l-.468281-.015c-.002813.0804-.004219.16103-.004219.24189z"/><path d="m2.24507 3.18805-.36211-.29743c-.10031.12212-.19687.24775-.28921.37618l.38086.27352c.08648-.12047.17671-.23813.27046-.35227z"/><path d="m1.72766 3.90984-.39773-.24773c-.08344.13406-.16289.27117-.23813.41109l.41344.22125c.07008-.13054.14438-.25898.22242-.38461z"/><path d="m2.85231 2.53923-.32039-.34196c-.11531.10805-.22735.22008-.33563.33563l.34196.32062c.10148-.10828.20601-.21304.31406-.31429z"/><path d="m4.29227 1.50501-.22149-.41321c-.13968.07477-.27656.15422-.41062.23789l.2482.39774c.12516-.07828.25336-.15235.38391-.22242z"/><path d="m5.94812.882108-.10711-.456327c-.15422.036093-.3075.077343-.4582.123281l.1364.448358c.1411-.042891.2843-.081328.42891-.115312z"/><path d="m3.53836 1.9761-.27375-.3804c-.12844.09235-.25383.18891-.37594.28899l.29766.36234c.11414-.09398.23179-.18445.35203-.27093z"/><path d="m5.0996 1.13969-.16523-.438518c-.14719.055547-.29461.116718-.43828.182109l.19406.426559c.13406-.06093.27094-.11789.40945-.17015z"/><path d="m6.82344.73789-.04617-.466406c-.1582.015703-.31523.036328-.47063.062109l.07641.462657c.14531-.024375.29227-.043594.44039-.05836z"/><path d="m.269531 6.78312.466406.04594c.014532-.14836.033985-.29508.057657-.44062l-.462422-.07594c-.025313.15539-.045938.31219-.061641.47062z"/><path d="m.881328 4.49805c-.06539.14391-.126562.29157-.182109.43922l.438521.16524c.0525-.13922.10945-.2761.17039-.41039z"/><path d="m.423828 5.84781.456327.10594c.03375-.14461.071953-.28758.114843-.42891l-.448592-.13617c-.045469.15047-.086953.30492-.122578.45914z"/><path d="m7.50015.703125c1.74797 0 3.42535.678755 4.68375 1.874995h-.9338v.46876h1.4063c.1296 0 .2343-.10501.2343-.23438v-.1343l.0246-.02203c-.0079-.0089-.0166-.01734-.0246-.02625v-1.22367h-.4687v.75164c-1.3352-1.229062-3.09255-1.923515-4.92185-1.923515-.08133 0-.16172.001172-.24234.003984l.01594.468516c.075-.002578.1507-.00375.2264-.00375z"/><path d="m8.67188 11.25v-3.04688h2.48112l1.3375 1.33758c.0448.04477.1048.06868.1657.06868.0303 0 .0608-.00562.0898-.01781.0877-.03609.1446-.12188.1446-.21657v-1.17188h.7032c.1296 0 .2343-.10476.2343-.23437v-4.21874c0-.12937-.1047-.23439-.2343-.23439h-7.0313c-.12961 0-.23438.10502-.23438.23439v3.04687h-2.4811l-1.33758-1.33757c-.06703-.06703-.16781-.08696-.25547-.05086-.08765.03633-.14459.12187-.14459.21656v1.17187h-.70314c-.12961 0-.23436.10501-.23436.23438v4.21874c0 .1296.10475.2344.23436.2344h7.03126c.12961 0 .23438-.1048.23438-.2344zm-1.875-7.26561h6.56252v3.74999h-.7032c-.1296 0-.2343.10476-.2343.23437v.84048l-1.0062-1.00618c-.0438-.04407-.1034-.06867-.1657-.06867h-2.57812v-.70312c0-.12937-.10477-.23438-.23438-.23438h-1.64062zm1.40624 7.03121h-6.56251v-3.74997h.70313c.12961 0 .23437-.105.23437-.23437v-.84047l1.00619 1.00616c.04382.04407.10335.06868.16569.06868h4.45313z"/><path d="m9.84375 6.79688h.46875v.46874h-.46875z"/><path d="m9.84375 4.45312h.46875v1.875h-.46875z"/><path d="m4.45312 8.67157c0-.13898.06117-.26976.16757-.35906.10805-.09094.2454-.12703.38814-.10195.18422.03234.34172.18984.37406.37406.03211.18187-.03962.36094-.18704.46734-.32297.23344-.50836.57516-.50836.93751v.08833h.46875v-.08833c0-.21.11439-.41344.31407-.55758.29414-.21211.43758-.5679.37453-.92837-.06656-.37781-.37687-.68836-.75492-.75492-.2782-.04781-.55804.02602-.77062.20461-.21282.17883-.33492.44063-.33492.71836v.23438h.46874z"/><path d="m4.6875 10.3125h.46875v.4687h-.46875z"/></g></svg>