<svg fill="none" height="30" viewBox="0 0 30 30" width="30" xmlns="http://www.w3.org/2000/svg" xmlns:xlink="http://www.w3.org/1999/xlink"><clipPath id="a"><path d="m0 0h30v30h-30z"/></clipPath><g clip-path="url(#a)" fill="#fff"><path d="m15 0c-8.28418 0-15 6.71582-15 15 0 8.2842 6.71582 15 15 15 .4519 0 .9021-.0203 1.3501-.0605.4165-.0374.8293-.0945 1.239-.1661l.1575-.0278c7.6164-1.4214 12.8974-8.4094 12.185-16.1248-.7124-7.71528-7.1836-13.61835859-14.9316-13.6208zm-1.2051 28.947h-.0354c-.3889-.0344-.7749-.0864-1.1574-.1531-.022-.0039-.044-.0063-.0655-.0105-.374-.0668-.7441-.1499-1.1106-.2468l-.0886-.0227c-.3574-.0969-.7109-.2095-1.0593-.3345-.0362-.0129-.0725-.0244-.1087-.0378-.34152-.1255-.67697-.2661-1.00729-.4182-.04102-.0183-.08203-.0359-.12305-.0554-.32397-.1499-.6416-.3189-.95312-.4966-.04395-.0249-.08838-.0498-.13233-.0745-.30664-.1789-.6062-.3708-.90014-.5735-.04444-.031-.08936-.061-.13355-.092-.28882-.2048-.57031-.4224-.84448-.6499l-.07544-.0659v-4.2156c.00366-3.0361 2.46387-5.4963 5.5-5.5h7c3.0361.0037 5.4963 2.4639 5.5 5.5v4.2161l-.0664.0554c-.2795.2334-.5664.4541-.8611.6626-.0391.0273-.0786.0534-.1174.0803-.2974.2065-.6021.4009-.9141.5835-.039.0227-.0791.0442-.1179.0667-.3162.1799-.6377.3498-.9656.5029-.0376.0176-.0754.0339-.1135.05-.333.1536-.6714.295-1.0154.4214-.0342.0127-.0686.0237-.1001.0357-.3501.1254-.7051.239-1.0644.3364l-.0862.0215c-.367.0969-.7373.1804-1.1118.2475-.0215.0039-.043.0066-.0645.01-.383.0669-.7695.1189-1.1587.1536h-.0354c-.3999.0344-.8.053-1.2051.053-.405 0-.8083-.0152-1.2075-.0496zm11.2051-4.1579v-3.2891c-.0042-3.5881-2.9119-6.4958-6.5-6.5h-7c-3.58813.0042-6.49585 2.9119-6.5 6.5v3.2886c-5.385254-5.4964-5.325195-14.3086.13428-19.73123 5.45952-5.42236 14.27192-5.42236 19.73142 0 5.4595 5.42263 5.5196 14.23483.1343 19.73123z"/><path d="m15 4c-2.7615 0-5 2.23853-5 5 0 2.7615 2.2385 5 5 5s5-2.2385 5-5c-.0029-2.76025-2.2397-4.99707-5-5zm0 9c-2.2092 0-4-1.7908-4-4 0-2.20923 1.7908-4 4-4s4 1.79077 4 4c-.0024 2.208-1.792 3.9976-4 4z"/></g></svg>