<svg width="375" height="375" fill="none" xmlns="http://www.w3.org/2000/svg"><mask id="a" mask-type="alpha" maskUnits="userSpaceOnUse" x="103" y="101" width="177" height="173"><path d="m233.383 162.65-37.949-54.165c-2.09-2.983.044-7.085 3.687-7.085h75.9c3.642 0 5.777 4.102 3.686 7.085l-37.95 54.165c-1.793 2.558-5.581 2.558-7.374 0ZM221.566 191.42l-56.137 80.316a4.369 4.369 0 0 1-3.58 1.866h-47.115c-3.532 0-5.604-3.976-3.58-6.871l52.638-75.311a4.367 4.367 0 0 0-.018-5.03l-55.413-78.094c-2.052-2.892.016-6.896 3.563-6.896h47.061c1.415 0 2.743.686 3.562 1.841l59.001 83.149a4.367 4.367 0 0 1 .018 5.03Z" fill="#3924A8"/></mask><g mask="url(#a)"><path fill="#fff" d="M103.468 101.4H279.53v172.201H103.468z"/></g></svg>