<svg fill="none" height="375" viewBox="0 0 375 375" width="375" xmlns="http://www.w3.org/2000/svg" xmlns:xlink="http://www.w3.org/1999/xlink"><mask id="a" height="173" maskUnits="userSpaceOnUse" width="177" x="103" y="101"><path d="m233.383 162.65-37.949-54.165c-2.09-2.983.044-7.085 3.687-7.085h75.9c3.642 0 5.777 4.102 3.686 7.085l-37.95 54.165c-1.793 2.558-5.581 2.558-7.374 0z" fill="#3924a8"/><path d="m221.566 191.42-56.137 80.316c-.817 1.169-2.154 1.866-3.58 1.866h-47.115c-3.532 0-5.604-3.976-3.58-6.871l52.638-75.311c1.057-1.512 1.05-3.526-.018-5.03l-55.413-78.094c-2.052-2.892.016-6.896 3.563-6.896h47.061c1.415 0 2.743.686 3.562 1.841l59.001 83.149c1.068 1.504 1.075 3.518.018 5.03z" fill="#3924a8"/></mask><g mask="url(#a)"><path d="m103.468 101.4h176.062v172.201h-176.062z" fill="#fff"/></g></svg>